<svg xmlns="http://www.w3.org/2000/svg" viewBox="0 0 250 250" width="250" height="250" preserveAspectRatio="xMidYMid meet" style="width: 100%; height: 100%; transform: translate3d(0px, 0px, 0px);">
  <style>
    @keyframes flicker {
      0% { 
        transform: scale(1);
      }
      50% { 
        transform: scale(1.5);
      }
      100% { 
        transform: scale(1);
      }
    }

    @keyframes arrow {
      0% {
        transform: translate(100px, -100px);
      }
      20% {
        transform: translate(0, 0);
      }
      30% {
        transform: translate(0, 0) rotate(-15deg);
      }
      40% {
        transform: translate(0, 0) rotate(12deg);
      }
      50% {
        transform: translate(0, 0) rotate(-10deg);
      }
      60% {
        transform: translate(0, 0) rotate(7deg);
      }
      70% {
        transform: translate(0, 0) rotate(5deg);
      }
      80% {
        transform: translate(0, 0) rotate(-3deg);
      }
      90% {
        transform: translate(0, 0) rotate(2deg);
      }
      100% {
        transform: translate(0, 0) rotate(0);
      }
    }

    .small-star {
      animation: flicker 2s infinite;
    }

    .medium-star {
      animation: flicker 3s infinite;
    }

    .large-star {
      animation: flicker 2.5s infinite;
    }

    .arrow-stick {
      transform-box: fill-box;
      transform-origin: 0% 100%;
      animation: arrow 0.5s linear;
    }

    .arrow-tail {
      transform-box: fill-box;
      transform-origin: -300% 300%;
      animation: arrow 0.5s linear;
    }

  </style>
  <defs>
    <clipPath id="__lottie_element_2">
      <rect width="250" height="250" x="0" y="0"></rect>
    </clipPath>
  </defs>
  <g clip-path="url(#__lottie_element_2)">

    <g transform="matrix(1,0,0,1,61.54999923706055,82.94999694824219)" opacity="1" style="display: block;">

      <!-- Target leg -->
      <g opacity="1" transform="matrix(1,0,0,1,31.29199981689453,124.2300033569336)">
        <path stroke-linecap="round" stroke-linejoin="miter" fill-opacity="0" stroke-miterlimit="4" stroke="rgb(222,228,248)" stroke-opacity="1" stroke-width="6" d=" M6.35699987411499,-15.520999908447266 C6.35699987411499,-15.520999908447266 -6.35699987411499,15.520999908447266 -6.35699987411499,15.520999908447266"></path>
      </g>

      <!-- Target leg -->
      <g opacity="1" transform="matrix(1,0,0,1,88.88700103759766,124.22899627685547)">
        <path stroke-linecap="round" stroke-linejoin="miter" fill-opacity="0" stroke-miterlimit="4" stroke="rgb(222,228,248)" stroke-opacity="1" stroke-width="6" d=" M6.357999801635742,15.520999908447266 C6.357999801635742,15.520999908447266 -6.357999801635742,-15.520999908447266 -6.357999801635742,-15.520999908447266"></path>
      </g>

      <!-- Target ring -->
      <g opacity="1" transform="matrix(1,0,0,1,60.0890007019043,60.0890007019043)">
        <path fill="rgb(222,228,248)" fill-opacity="1" d=" M0,59.8390007019043 C33.04800033569336,59.8390007019043 59.8390007019043,33.04800033569336 59.8390007019043,0 C59.8390007019043,-33.04800033569336 33.04800033569336,-59.8390007019043 0,-59.8390007019043 C-33.04800033569336,-59.8390007019043 -59.8390007019043,-33.04800033569336 -59.8390007019043,0 C-59.8390007019043,33.04800033569336 -33.04800033569336,59.8390007019043 0,59.8390007019043z"></path>
      </g>

      <!-- Target ring -->
      <g opacity="1" transform="matrix(1,0,0,1,60.0890007019043,60.0890007019043)">
        <path fill="rgb(245,247,252)" fill-opacity="1" d=" M0,48.61899948120117 C26.85300064086914,48.61899948120117 48.61899948120117,26.851999282836914 48.61899948120117,0 C48.61899948120117,-26.851999282836914 26.85300064086914,-48.61899948120117 0,-48.61899948120117 C-26.851999282836914,-48.61899948120117 -48.61899948120117,-26.851999282836914 -48.61899948120117,0 C-48.61899948120117,26.851999282836914 -26.851999282836914,48.61899948120117 0,48.61899948120117z"></path>
      </g>

      <!-- Target ring -->
      <g opacity="1" transform="matrix(1,0,0,1,60.09000015258789,60.09000015258789)">
        <path fill="rgb(222,228,248)" fill-opacity="1" d=" M-0.0010000000474974513,37.400001525878906 C20.65399932861328,37.400001525878906 37.400001525878906,20.65399932861328 37.400001525878906,-0.0010000000474974513 C37.400001525878906,-20.6560001373291 20.65399932861328,-37.400001525878906 -0.0010000000474974513,-37.400001525878906 C-20.6560001373291,-37.400001525878906 -37.400001525878906,-20.6560001373291 -37.400001525878906,-0.0010000000474974513 C-37.400001525878906,20.65399932861328 -20.6560001373291,37.400001525878906 -0.0010000000474974513,37.400001525878906z"></path>
      </g>

      <!-- Target ring -->
      <g opacity="1" transform="matrix(1,0,0,1,60.09000015258789,60.0890007019043)">
        <path fill="rgb(245,247,252)" fill-opacity="1" d=" M-0.0010000000474974513,26.92799949645996 C14.871000289916992,26.92799949645996 26.92799949645996,14.871000289916992 26.92799949645996,-0.0010000000474974513 C26.92799949645996,-14.873000144958496 14.871000289916992,-26.92799949645996 -0.0010000000474974513,-26.92799949645996 C-14.873000144958496,-26.92799949645996 -26.92799949645996,-14.873000144958496 -26.92799949645996,-0.0010000000474974513 C-26.92799949645996,14.871000289916992 -14.873000144958496,26.92799949645996 -0.0010000000474974513,26.92799949645996z"></path>
      </g>

      <!-- Target ring -->
      <g opacity="1" transform="matrix(1,0,0,1,60.0890007019043,60.0890007019043)">
        <path fill="rgb(222,228,248)" fill-opacity="1" d=" M0,14.960000038146973 C8.26200008392334,14.960000038146973 14.960000038146973,8.26200008392334 14.960000038146973,0 C14.960000038146973,-8.26200008392334 8.26200008392334,-14.960000038146973 0,-14.960000038146973 C-8.26200008392334,-14.960000038146973 -14.960000038146973,-8.26200008392334 -14.960000038146973,0 C-14.960000038146973,8.26200008392334 -8.26200008392334,14.960000038146973 0,14.960000038146973z"></path>
      </g>
    </g>

    <!-- Medium star -->
    <g transform="matrix(0.7473796606063843,0,0,0.7473796606063843,166.63412475585938,43.035118103027344)" opacity="1" style="display: block;">
      <g opacity="1" transform="matrix(1,0,0,1,8.25,8.25)">
        <path class="medium-star" fill="rgb(222,228,248)" fill-opacity="1" d=" M7.2729997634887695,-0.7279999852180481 C3.6510000228881836,-0.7279999852180481 0.7260000109672546,-3.6510000228881836 0.7260000109672546,-7.2729997634887695 C0.7260000109672546,-7.681000232696533 0.40700000524520874,-8 0,-8 C-0.40799999237060547,-8 -0.7269999980926514,-7.681000232696533 -0.7269999980926514,-7.2729997634887695 C-0.7269999980926514,-3.6510000228881836 -3.6519999504089355,-0.7279999852180481 -7.27400016784668,-0.7279999852180481 C-7.679999828338623,-0.7279999852180481 -8,-0.40799999237060547 -8,0 C-8,0.40700000524520874 -7.679999828338623,0.7269999980926514 -7.27400016784668,0.7269999980926514 C-3.6519999504089355,0.7269999980926514 -0.7269999980926514,3.6500000953674316 -0.7269999980926514,7.271999835968018 C-0.7269999980926514,7.679999828338623 -0.40799999237060547,8 0,8 C0.40700000524520874,8 0.7260000109672546,7.679999828338623 0.7260000109672546,7.271999835968018 C0.7260000109672546,3.6500000953674316 3.6510000228881836,0.7269999980926514 7.2729997634887695,0.7269999980926514 C7.678999900817871,0.7269999980926514 8,0.40700000524520874 8,0 C8,-0.40799999237060547 7.678999900817871,-0.7279999852180481 7.2729997634887695,-0.7279999852180481z"></path>
      </g>
    </g>

    <!-- Large star -->
    <g transform="matrix(1,0,0,1,49.54899978637695,57.95000076293945)" opacity="1" style="display: block;">
      <g opacity="1" transform="matrix(1,0,0,1,8.630000114440918,8.630999565124512)">
        <path class="large-star" fill="rgb(155,171,217)" fill-opacity="1" d=" M7.618000030517578,-0.7620000243186951 C3.8239998817443848,-0.7620000243186951 0.7620000243186951,-3.825000047683716 0.7620000243186951,-7.61899995803833 C0.7620000243186951,-8.045999526977539 0.4259999990463257,-8.380999565124512 -0.0010000000474974513,-8.380999565124512 C-0.4269999861717224,-8.380999565124512 -0.7620000243186951,-8.045999526977539 -0.7620000243186951,-7.61899995803833 C-0.7620000243186951,-3.825000047683716 -3.8239998817443848,-0.7620000243186951 -7.618000030517578,-0.7620000243186951 C-8.045000076293945,-0.7620000243186951 -8.380000114440918,-0.4269999861717224 -8.380000114440918,0 C-8.380000114440918,0.4259999990463257 -8.045000076293945,0.7620000243186951 -7.618000030517578,0.7620000243186951 C-3.8239998817443848,0.7620000243186951 -0.7620000243186951,3.8239998817443848 -0.7620000243186951,7.618000030517578 C-0.7620000243186951,8.045000076293945 -0.4269999861717224,8.380999565124512 -0.0010000000474974513,8.380999565124512 C0.4259999990463257,8.380999565124512 0.7620000243186951,8.045000076293945 0.7620000243186951,7.618000030517578 C0.7620000243186951,3.8239998817443848 3.8239998817443848,0.7620000243186951 7.618000030517578,0.7620000243186951 C8.045000076293945,0.7620000243186951 8.380000114440918,0.4259999990463257 8.380000114440918,0 C8.380000114440918,-0.4269999861717224 8.045000076293945,-0.7620000243186951 7.618000030517578,-0.7620000243186951z"></path>
      </g>
    </g>
    <g transform="matrix(0.4135799705982208,0,0,0.4135799705982208,87.320068359375,30.72006607055664)" opacity="1" style="display: block;">
    
      <!-- Small star -->
      <g opacity="1" transform="matrix(1,0,0,1,13.25,13.25)">
        <path class="small-star" fill="rgb(222,228,248)" fill-opacity="1" d=" M11.817999839782715,-1.1820000410079956 C5.933000087738037,-1.1820000410079956 1.1820000410079956,-5.933000087738037 1.1820000410079956,-11.819000244140625 C1.1820000410079956,-12.479999542236328 0.6620000004768372,-13 0,-13 C-0.6610000133514404,-13 -1.1820000410079956,-12.479999542236328 -1.1820000410079956,-11.819000244140625 C-1.1820000410079956,-5.933000087738037 -5.932000160217285,-1.1820000410079956 -11.817999839782715,-1.1820000410079956 C-12.479999542236328,-1.1820000410079956 -13,-0.6620000004768372 -13,0 C-13,0.6610000133514404 -12.479999542236328,1.180999994277954 -11.817999839782715,1.180999994277954 C-5.932000160217285,1.180999994277954 -1.1820000410079956,5.932000160217285 -1.1820000410079956,11.817999839782715 C-1.1820000410079956,12.479999542236328 -0.6610000133514404,13 0,13 C0.6620000004768372,13 1.1820000410079956,12.479999542236328 1.1820000410079956,11.817999839782715 C1.1820000410079956,5.932000160217285 5.933000087738037,1.180999994277954 11.817999839782715,1.180999994277954 C12.479999542236328,1.180999994277954 13,0.6610000133514404 13,0 C13,-0.6620000004768372 12.479999542236328,-1.1820000410079956 11.817999839782715,-1.1820000410079956z"></path>
      </g>
    </g>


    <g transform="matrix(1,0,0,1,119.80000305175781,76.08999633789062)" opacity="1" style="display: block;">

      <!-- Arrow stick -->
      <g opacity="1" transform="matrix(1,0,0,1,30.36400032043457,38.744998931884766)">
        <path class="arrow-stick" stroke-linecap="round" stroke-linejoin="miter" fill-opacity="0" stroke-miterlimit="4" stroke="rgb(155,171,217)" stroke-opacity="1" stroke-width="4" d=" M-28.364999771118164,28.364999771118164 C-28.364999771118164,28.364999771118164 28.364999771118164,-28.364999771118164 28.364999771118164,-28.364999771118164"></path>
      </g>

      <!-- Arrow tail -->
      <g opacity="1" transform="matrix(1,0,0,1,57.31800079345703,11.854000091552734)">
        <path class="arrow-tail" fill="rgb(187,200,236)" fill-opacity="1" d=" M-8.36400032043457,7.330999851226807 C-8.161999702453613,7.793000221252441 -7.793000221252441,8.163000106811523 -7.329999923706055,8.36400032043457 C-7.329999923706055,8.36400032043457 -0.6549999713897705,11.276000022888184 -0.6549999713897705,11.276000022888184 C0.0989999994635582,11.604999542236328 0.9769999980926514,11.439000129699707 1.559000015258789,10.857000350952148 C1.559000015258789,10.857000350952148 10.607999801635742,1.809000015258789 10.607999801635742,1.809000015258789 C11.604000091552734,0.8119999766349792 11.284000396728516,-0.875 9.991999626159668,-1.4390000104904175 C9.991999626159668,-1.4390000104904175 4.756999969482422,-3.7230000495910645 4.756999969482422,-3.7230000495910645 C4.294000148773193,-3.9240000247955322 3.924999952316284,-4.294000148773193 3.7239999771118164,-4.75600004196167 C3.7239999771118164,-4.75600004196167 1.4390000104904175,-9.993000030517578 1.4390000104904175,-9.993000030517578 C0.8759999871253967,-11.28499984741211 -0.8109999895095825,-11.604000091552734 -1.8079999685287476,-10.607000350952148 C-1.8079999685287476,-10.607000350952148 -10.857000350952148,-1.559000015258789 -10.857000350952148,-1.559000015258789 C-11.437999725341797,-0.9779999852180481 -11.604000091552734,-0.09799999743700027 -11.276000022888184,0.656000018119812 C-11.276000022888184,0.656000018119812 -8.36400032043457,7.330999851226807 -8.36400032043457,7.330999851226807z"></path>
      </g>
    </g>
  </g>
</svg>