<svg xmlns="http://www.w3.org/2000/svg" viewBox="0 0 250 250" width="250" height="250" preserveAspectRatio="xMidYMid meet" style="width: 100%; height: 100%; transform: translate3d(0px, 0px, 0px);">
  <style>
    @keyframes flicker {
      0% { 
        transform: scale(1);
      }
      50% { 
        transform: scale(1.5);
      }
      100% { 
        transform: scale(1);
      }
    }

    @keyframes balance {
      0% {
        transform: rotate(0deg);
      }
      33% {
        transform: rotate(-20deg);
      }
      66% {
        transform: rotate(0deg);
      }
      100% {
        transform: rotate(-11deg);
      }
    }

    @keyframes heart {
      0% {
        transform: translateY(0);
      }
      33% {
        transform: translateY(-25px);
      }
      66% {
        transform: translateY(0);
      }
      100% {
        transform: translateY(-12px);
      }
    }

    @keyframes brain {
      0% {
        transform: translateY(0);
      }
      33% {
        transform: translateY(25px);
      }
      66% {
        transform: translateY(0px);
      }
      100% {
        transform: translateY(13px);
      }
    }

    .small-star {
      animation: flicker 2s infinite;
    }

    .medium-star {
      animation: flicker 3s infinite;
    }

    .large-star {
      animation: flicker 2.5s infinite;
    }

    .surface {
      transform-box: fill-box;
      transform-origin: 50% 50%;
      transform: rotate(-11deg);
      animation: balance 2.5s ease-in-out 0.1s;
    }

    .brain {
      transform: translateY(13px);
      animation: brain 2.5s ease-in-out;
    }

    .heart {
      transform: translateY(-12px);
      animation: heart 2.5s ease-in-out;
    }

  </style>
  <defs>
    <clipPath id="__lottie_element_2">
      <rect width="250" height="250" x="0" y="0"></rect>
    </clipPath>
  </defs>
  <g clip-path="url(#__lottie_element_2)">

    <!-- Balance leg -->
    <g transform="matrix(1,0,0,1,109.75,187.75)" opacity="1" style="display: block;">
      <g opacity="1" transform="matrix(1,0,0,1,16.25,16.25)">
        <path fill="rgb(187,200,236)" fill-opacity="1" d=" M0,-16 C8.836999893188477,-16 16,-8.836999893188477 16,0 C16,8.836999893188477 8.836999893188477,16 0,16 C-8.836000442504883,16 -16,8.836999893188477 -16,0 C-16,-8.836999893188477 -8.836000442504883,-16 0,-16z"></path>
      </g>
    </g>

    <!-- Balance surface -->
    <g transform="matrix(0.9816285967826843,0.1908016949892044,-0.1908016949892044,0.9816285967826843,15.9342041015625,158.36672973632812)" opacity="1" style="display: block;">
      <g opacity="1" transform="matrix(1,0,0,1,115.25,3.25)">
        <path class="surface" fill="rgb(155,171,217)" fill-opacity="1" d=" M112,-3 C112,-3 -112,-3 -112,-3 C-113.65699768066406,-3 -115,-1.656999945640564 -115,0 C-115,1.656999945640564 -113.65699768066406,3 -112,3 C-112,3 112,3 112,3 C113.65599822998047,3 115,1.656999945640564 115,0 C115,-1.656999945640564 113.65599822998047,-3 112,-3z"></path>
      </g>
    </g>

    <!-- Heart -->
    <g transform="matrix(1,0,0,1,141.75,102.75)" opacity="1" style="display: block;">
      <g opacity="1" transform="matrix(1,0,0,1,47.75,43.25)">
        <path class="heart" fill="rgb(222,228,248)" fill-opacity="1" d=" M-22.11199951171875,-43 C-12.944999694824219,-42.999000549316406 -4.491000175476074,-38.0989990234375 0,-30.180999755859375 C4.492000102996826,-38.0989990234375 12.946000099182129,-42.999000549316406 22.113000869750977,-43 C36.132999420166016,-43 47.5,-30.115999221801758 47.5,-16.22599983215332 C47.5,18.65999984741211 0,43 0,43 C0,43 -47.5,18.65999984741211 -47.5,-16.22599983215332 C-47.5,-30.115999221801758 -36.132999420166016,-43 -22.11199951171875,-43z"></path>
      </g>
    </g>

    <!-- Large star -->
    <g transform="matrix(0.8018019795417786,0,0,0.8018019795417786,138.45965576171875,45.46064758300781)" opacity="1" style="display: block;">
      <g opacity="1" transform="matrix(1,0,0,1,8.630000114440918,8.630999565124512)">
        <path class="large-star" fill="rgb(155,171,217)" fill-opacity="1" d=" M7.61899995803833,-0.7620000243186951 C3.825000047683716,-0.7620000243186951 0.7620000243186951,-3.825000047683716 0.7620000243186951,-7.61899995803833 C0.7620000243186951,-8.045999526977539 0.4269999861717224,-8.380999565124512 0.0010000000474974513,-8.380999565124512 C-0.4259999990463257,-8.380999565124512 -0.7620000243186951,-8.045999526977539 -0.7620000243186951,-7.61899995803833 C-0.7620000243186951,-3.825000047683716 -3.825000047683716,-0.7620000243186951 -7.61899995803833,-0.7620000243186951 C-8.045999526977539,-0.7620000243186951 -8.380999565124512,-0.4269999861717224 -8.380999565124512,0 C-8.380999565124512,0.4259999990463257 -8.045999526977539,0.7620000243186951 -7.61899995803833,0.7620000243186951 C-3.825000047683716,0.7620000243186951 -0.7620000243186951,3.8239998817443848 -0.7620000243186951,7.618000030517578 C-0.7620000243186951,8.045000076293945 -0.4259999990463257,8.380999565124512 0.0010000000474974513,8.380999565124512 C0.4269999861717224,8.380999565124512 0.7620000243186951,8.045000076293945 0.7620000243186951,7.618000030517578 C0.7620000243186951,3.8239998817443848 3.825000047683716,0.7620000243186951 7.61899995803833,0.7620000243186951 C8.045999526977539,0.7620000243186951 8.380999565124512,0.4259999990463257 8.380999565124512,0 C8.380999565124512,-0.4269999861717224 8.045999526977539,-0.7620000243186951 7.61899995803833,-0.7620000243186951z"></path>
      </g>
    </g>

    <!-- Small star -->
    <g transform="matrix(0.575268566608429,0,0,0.575268566608429,101.16532897949219,32.95296096801758)" opacity="1" style="display: block;">
      <g opacity="1" transform="matrix(1,0,0,1,12.75,12.25)">
        <path class="small-star" fill="rgb(222,228,248)" fill-opacity="1" d=" M0.3199999928474426,-12 C0.3199999928474426,-12 -0.39100000262260437,-12 -0.39100000262260437,-12 C-0.8169999718666077,-12 -1.1720000505447388,-11.692999839782715 -1.1720000505447388,-11.282999992370605 C-1.5269999504089355,-6.468999862670898 -6.7829999923706055,-1.5529999732971191 -11.789999961853027,-1.1089999675750732 C-12.180000305175781,-1.0750000476837158 -12.5,-0.734000027179718 -12.5,-0.3580000102519989 C-12.5,-0.3580000102519989 -12.5,0.3580000102519989 -12.5,0.3580000102519989 C-12.5,0.7680000066757202 -12.180000305175781,1.0750000476837158 -11.753999710083008,1.1089999675750732 C-6.7829999923706055,1.4509999752044678 -1.7050000429153442,6.401000022888184 -1.1720000505447388,11.21500015258789 C-1.1360000371932983,11.659000396728516 -0.7459999918937683,12 -0.24899999797344208,12 C-0.24899999797344208,12 0.24899999797344208,12 0.24899999797344208,12 C0.7459999918937683,12 1.1360000371932983,11.659000396728516 1.1720000505447388,11.180999755859375 C1.5980000495910645,5.7870001792907715 6.107999801635742,1.3489999771118164 11.718999862670898,1.0750000476837158 C12.180000305175781,1.0420000553131104 12.5,0.699999988079071 12.5,0.25600001215934753 C12.5,0.25600001215934753 12.5,-0.3580000102519989 12.5,-0.3580000102519989 C12.5,-0.8019999861717224 12.145000457763672,-1.1440000534057617 11.718999862670898,-1.1779999732971191 C6.072000026702881,-1.4509999752044678 1.5269999504089355,-5.922999858856201 1.1720000505447388,-11.38599967956543 C1.1009999513626099,-11.692999839782715 0.7459999918937683,-12 0.3199999928474426,-12z"></path>
      </g>
    </g>

    <!--  -->
    <g transform="matrix(1,0,0,1,14.260002136230469,69.75)" opacity="1" style="display: block;">

      <!-- Left brain -->
      <g opacity="1" transform="matrix(1,0,0,1,22.292999267578125,45.856998443603516)">
        <path class="brain" fill="rgb(222,228,248)" fill-opacity="1" d=" M13.413000106811523,-45.606998443603516 C8.647000312805176,-45.606998443603516 4.7829999923706055,-41.73899841308594 4.7829999923706055,-36.96799850463867 C4.7829999923706055,-36.71900177001953 4.796000003814697,-36.4739990234375 4.816999912261963,-36.23099899291992 C3.9630000591278076,-36.417999267578125 3.078000068664551,-36.518001556396484 2.1679999828338623,-36.518001556396484 C-4.670000076293945,-36.518001556396484 -10.211999893188477,-30.9689998626709 -10.211999893188477,-24.125 C-10.211999893188477,-22.591999053955078 -9.932000160217285,-21.125 -9.423999786376953,-19.768999099731445 C-15.741999626159668,-19.20800018310547 -20.695999145507812,-13.89799976348877 -20.695999145507812,-7.427999973297119 C-20.695999145507812,-3.321000099182129 -18.698999404907227,0.31700000166893005 -15.62600040435791,2.572999954223633 C-18.701000213623047,3.5899999141693115 -21.073999404907227,6.304999828338623 -21.489999771118164,9.737000465393066 C-22.042999267578125,14.29800033569336 -18.937000274658203,18.458999633789062 -14.479999542236328,19.27400016784668 C-15.864999771118164,21.33300018310547 -16.67300033569336,23.812999725341797 -16.67300033569336,26.48200035095215 C-16.67300033569336,33.619998931884766 -10.892999649047852,39.40700149536133 -3.76200008392334,39.40700149536133 C-1.4429999589920044,39.40700149536133 0.7310000061988831,38.79100036621094 2.61299991607666,37.71900177001953 C3.509999990463257,42.21699905395508 7.47599983215332,45.606998443603516 12.232000350952148,45.606998443603516 C17.649999618530273,45.606998443603516 22.042999267578125,41.209999084472656 22.042999267578125,35.7859992980957 C22.042999267578125,35.7859992980957 22.042999267578125,-36.96799850463867 22.042999267578125,-36.96799850463867 C22.042999267578125,-41.73899841308594 18.179000854492188,-45.606998443603516 13.413000106811523,-45.606998443603516z"></path>
      </g>

      <!-- Left brain bottom circum -->
      <g opacity="1" transform="matrix(1,0,0,1,27.79400062561035,66.31199645996094)">
        <path class="brain" fill="rgb(192,204,238)" fill-opacity="1" d=" M6.118000030517578,-5.75600004196167 C5.836999893188477,-6.4120001792907715 5.076000213623047,-6.7179999351501465 4.419000148773193,-6.436999797821045 C2.438999891281128,-5.5920000076293945 0.8050000071525574,-4.086999893188477 -0.20200000703334808,-2.190999984741211 C-2.1459999084472656,-2.6500000953674316 -4.178999900817871,-2.4779999256134033 -6.051000118255615,-1.6779999732971191 C-6.709000110626221,-1.3969999551773071 -7.013999938964844,-0.6359999775886536 -6.734000205993652,0.020999999716877937 C-6.452000141143799,0.6790000200271606 -5.690999984741211,0.9829999804496765 -5.033999919891357,0.7020000219345093 C-3.3559999465942383,-0.014999999664723873 -1.5,-0.03500000014901161 0.19200000166893005,0.6430000066757202 C1.8849999904632568,1.3209999799728394 3.2100000381469727,2.617000102996826 3.9260001182556152,4.294000148773193 C4.104000091552734,4.711999893188477 4.242000102996826,5.144999980926514 4.333000183105469,5.585999965667725 C4.47599983215332,6.271999835968018 5.138000011444092,6.7179999351501465 5.823999881744385,6.5970001220703125 C5.836999893188477,6.593999862670898 5.85099983215332,6.5920000076293945 5.864999771118164,6.589000225067139 C6.565000057220459,6.441999912261963 7.013999938964844,5.757999897003174 6.868000030517578,5.058000087738037 C6.742000102996826,4.449999809265137 6.552999973297119,3.8510000705718994 6.307000160217285,3.2760000228881836 C5.479000091552734,1.3350000381469727 4.053999900817871,-0.23499999940395355 2.2360000610351562,-1.2430000305175781 C2.9730000495910645,-2.490999937057495 4.09499979019165,-3.4830000400543213 5.435999870300293,-4.057000160217285 C6.0929999351501465,-4.336999893188477 6.39900016784668,-5.0980000495910645 6.118000030517578,-5.75600004196167z"></path>
      </g>

      <!-- Left brain top circum -->
      <g opacity="1" transform="matrix(1,0,0,1,28.18899917602539,36.54499816894531)">
        <path class="brain" fill="rgb(192,204,238)" fill-opacity="1" d=" M-0.8930000066757202,-0.8930000066757202 C-0.9049999713897705,-0.8679999709129333 -0.9169999957084656,-0.8429999947547913 -0.9300000071525574,-0.8199999928474426 C-1.590999960899353,0.49399998784065247 -1.9780000448226929,1.9609999656677246 -2.0290000438690186,3.506999969482422 C-2.0969998836517334,5.579999923706055 -1.5509999990463257,7.599999904632568 -0.45100000500679016,9.347999572753906 C-0.07000000029802322,9.95300006866455 -0.25,10.75100040435791 -0.8550000190734863,11.131999969482422 C-1.0700000524520874,11.267999649047852 -1.3079999685287476,11.331000328063965 -1.5440000295639038,11.331000328063965 C-1.9739999771118164,11.331000328063965 -2.3940000534057617,11.116999626159668 -2.6410000324249268,10.72700023651123 C-4.017000198364258,8.538999557495117 -4.701000213623047,6.014999866485596 -4.616000175476074,3.4230000972747803 C-4.561999797821045,1.7730000019073486 -4.198999881744385,0.19300000369548798 -3.5810000896453857,-1.2549999952316284 C-5.568999767303467,-3.7300000190734863 -6.603000164031982,-6.89300012588501 -6.432000160217285,-10.069999694824219 C-6.394000053405762,-10.784000396728516 -5.7789998054504395,-11.331000328063965 -5.070000171661377,-11.293000221252441 C-4.355999946594238,-11.255000114440918 -3.806999921798706,-10.645000457763672 -3.8459999561309814,-9.930999755859375 C-3.9639999866485596,-7.742000102996826 -3.367000102996826,-5.561999797821045 -2.184000015258789,-3.7330000400543213 C-0.5170000195503235,-6.043000221252441 1.9129999876022339,-7.791999816894531 4.811999797821045,-8.607999801635742 C5.5,-8.802000045776367 6.215000152587891,-8.402000427246094 6.408999919891357,-7.714000225067139 C6.603000164031982,-7.026000022888184 6.202000141143799,-6.310999870300293 5.513999938964844,-6.117000102996826 C2.6679999828338623,-5.315999984741211 0.3889999985694885,-3.3910000324249268 -0.8930000066757202,-0.8930000066757202z"></path>
      </g>

      <!-- Right brain -->
      <g opacity="1" transform="matrix(1,0,0,1,67.78199768066406,45.856998443603516)">
        <path class="brain" fill="rgb(222,228,248)" fill-opacity="1" d=" M-13.413000106811523,-45.606998443603516 C-8.647000312805176,-45.606998443603516 -4.7829999923706055,-41.73899841308594 -4.7829999923706055,-36.96799850463867 C-4.7829999923706055,-36.71900177001953 -4.796000003814697,-36.4739990234375 -4.816999912261963,-36.23099899291992 C-3.9630000591278076,-36.417999267578125 -3.078000068664551,-36.518001556396484 -2.1679999828338623,-36.518001556396484 C4.669000148773193,-36.518001556396484 10.211999893188477,-30.9689998626709 10.211999893188477,-24.125 C10.211999893188477,-22.591999053955078 9.932000160217285,-21.125 9.423999786376953,-19.768999099731445 C15.741000175476074,-19.20800018310547 20.695999145507812,-13.89799976348877 20.695999145507812,-7.427999973297119 C20.695999145507812,-3.321000099182129 18.698999404907227,0.31700000166893005 15.62600040435791,2.572999954223633 C18.701000213623047,3.5899999141693115 21.073999404907227,6.304999828338623 21.489999771118164,9.737000465393066 C22.042999267578125,14.29800033569336 18.937000274658203,18.458999633789062 14.479999542236328,19.27400016784668 C15.864999771118164,21.33300018310547 16.67300033569336,23.812999725341797 16.67300033569336,26.48200035095215 C16.67300033569336,33.619998931884766 10.892999649047852,39.40700149536133 3.76200008392334,39.40700149536133 C1.4429999589920044,39.40700149536133 -0.7310000061988831,38.79100036621094 -2.61299991607666,37.71900177001953 C-3.510999917984009,42.21699905395508 -7.47599983215332,45.606998443603516 -12.232000350952148,45.606998443603516 C-17.649999618530273,45.606998443603516 -22.042999267578125,41.209999084472656 -22.042999267578125,35.7859992980957 C-22.042999267578125,35.7859992980957 -22.042999267578125,-36.96799850463867 -22.042999267578125,-36.96799850463867 C-22.042999267578125,-41.73899841308594 -18.179000854492188,-45.606998443603516 -13.413000106811523,-45.606998443603516z"></path>
      </g>

      <!-- Right brain bottom circum -->
      <g opacity="1" transform="matrix(1,0,0,1,62.28099822998047,66.31199645996094)">
        <path class="brain" fill="rgb(192,204,238)" fill-opacity="1" d=" M-6.117000102996826,-5.75600004196167 C-5.835999965667725,-6.4120001792907715 -5.076000213623047,-6.7179999351501465 -4.419000148773193,-6.436999797821045 C-2.438999891281128,-5.5920000076293945 -0.8059999942779541,-4.086999893188477 0.20100000500679016,-2.190999984741211 C2.1449999809265137,-2.6500000953674316 4.178999900817871,-2.4779999256134033 6.051000118255615,-1.6779999732971191 C6.709000110626221,-1.3969999551773071 7.013999938964844,-0.6359999775886536 6.734000205993652,0.020999999716877937 C6.453000068664551,0.6790000200271606 5.690000057220459,0.9829999804496765 5.0329999923706055,0.7020000219345093 C3.3550000190734863,-0.014999999664723873 1.4989999532699585,-0.03500000014901161 -0.19300000369548798,0.6430000066757202 C-1.8860000371932983,1.3209999799728394 -3.2100000381469727,2.617000102996826 -3.9260001182556152,4.294000148773193 C-4.104000091552734,4.711999893188477 -4.242000102996826,5.144999980926514 -4.333000183105469,5.585999965667725 C-4.47599983215332,6.271999835968018 -5.138000011444092,6.7179999351501465 -5.823999881744385,6.5970001220703125 C-5.836999893188477,6.593999862670898 -5.85099983215332,6.5920000076293945 -5.864999771118164,6.589000225067139 C-6.565000057220459,6.441999912261963 -7.013000011444092,5.757999897003174 -6.867000102996826,5.058000087738037 C-6.741000175476074,4.449999809265137 -6.552999973297119,3.8510000705718994 -6.307000160217285,3.2760000228881836 C-5.479000091552734,1.3350000381469727 -4.053999900817871,-0.23499999940395355 -2.2360000610351562,-1.2430000305175781 C-2.9730000495910645,-2.490999937057495 -4.09499979019165,-3.4830000400543213 -5.435999870300293,-4.057000160217285 C-6.093999862670898,-4.336999893188477 -6.3979997634887695,-5.0980000495910645 -6.117000102996826,-5.75600004196167z"></path>
      </g>

      <!-- Right brain top circum -->
      <g opacity="1" transform="matrix(1,0,0,1,61.88600158691406,36.54499816894531)">
        <path class="brain" fill="rgb(192,204,238)" fill-opacity="1" d=" M0.8930000066757202,-0.8930000066757202 C0.9049999713897705,-0.8679999709129333 0.9169999957084656,-0.8429999947547913 0.9300000071525574,-0.8199999928474426 C1.590999960899353,0.49399998784065247 1.9780000448226929,1.9609999656677246 2.0290000438690186,3.506999969482422 C2.0969998836517334,5.579999923706055 1.5509999990463257,7.599999904632568 0.45100000500679016,9.347999572753906 C0.07000000029802322,9.95300006866455 0.25,10.75100040435791 0.8550000190734863,11.131999969482422 C1.0700000524520874,11.267999649047852 1.3079999685287476,11.331000328063965 1.5440000295639038,11.331000328063965 C1.9739999771118164,11.331000328063965 2.3940000534057617,11.116999626159668 2.6410000324249268,10.72700023651123 C4.017000198364258,8.538999557495117 4.701000213623047,6.014999866485596 4.616000175476074,3.4230000972747803 C4.561999797821045,1.7730000019073486 4.198999881744385,0.19300000369548798 3.5810000896453857,-1.2549999952316284 C5.568999767303467,-3.7300000190734863 6.603000164031982,-6.89300012588501 6.432000160217285,-10.069999694824219 C6.394000053405762,-10.784000396728516 5.7789998054504395,-11.331000328063965 5.070000171661377,-11.293000221252441 C4.355999946594238,-11.255000114440918 3.806999921798706,-10.645000457763672 3.8459999561309814,-9.930999755859375 C3.9639999866485596,-7.742000102996826 3.367000102996826,-5.561999797821045 2.184000015258789,-3.7330000400543213 C0.5170000195503235,-6.043000221252441 -1.9129999876022339,-7.791999816894531 -4.811999797821045,-8.607999801635742 C-5.5,-8.802000045776367 -6.215000152587891,-8.402000427246094 -6.408999919891357,-7.714000225067139 C-6.603000164031982,-7.026000022888184 -6.202000141143799,-6.310999870300293 -5.513999938964844,-6.117000102996826 C-2.6679999828338623,-5.315999984741211 -0.3889999985694885,-3.3910000324249268 0.8930000066757202,-0.8930000066757202z"></path>
      </g>
    </g>
  </g>
</svg>