<svg xmlns="http://www.w3.org/2000/svg" width="40" height="41" viewBox="0 0 40 41" fill="none">
    <rect y="0.832031" width="40" height="40" rx="20" fill="#FFEEDE"/>
    <g clip-path="url(#clip0_7963_10232)">
        <path d="M29.0843 10.2905C28.8093 9.44506 28.0141 8.83203 27.0781 8.83203C26.1615 8.83203 25.3799 9.41994 25.0897 10.2383H21.9884C21.6982 9.41994 20.9166 8.83203 20 8.83203C19.0834 8.83203 18.3018 9.41994 18.0116 10.2383H14.9103C14.6201 9.41994 13.8385 8.83203 12.9219 8.83203C11.9859 8.83203 11.1907 9.44506 10.9157 10.2905C9.26216 10.5762 8 12.02 8 13.7539V30.7227C8 31.8858 8.94627 32.832 10.1094 32.832H29.8906C31.0537 32.832 32 31.8858 32 30.7227V13.7539C32 12.02 30.7378 10.5762 29.0843 10.2905ZM26.375 10.9414C26.375 10.5537 26.6904 10.2383 27.0781 10.2383C27.4658 10.2383 27.7812 10.5537 27.7812 10.9414V12.3477C27.7812 12.7354 27.4658 13.0508 27.0781 13.0508C26.6904 13.0508 26.375 12.7354 26.375 12.3477V10.9414ZM19.2969 10.9414C19.2969 10.5537 19.6123 10.2383 20 10.2383C20.3877 10.2383 20.7031 10.5537 20.7031 10.9414V12.3477C20.7031 12.7354 20.3877 13.0508 20 13.0508C19.6123 13.0508 19.2969 12.7354 19.2969 12.3477V10.9414ZM12.2188 10.9414C12.2188 10.5537 12.5342 10.2383 12.9219 10.2383C13.3096 10.2383 13.625 10.5537 13.625 10.9414V12.3477C13.625 12.7354 13.3096 13.0508 12.9219 13.0508C12.5342 13.0508 12.2188 12.7354 12.2188 12.3477V10.9414ZM30.5938 30.7227C30.5938 31.1104 30.2783 31.4258 29.8906 31.4258H10.1094C9.72167 31.4258 9.40625 31.1104 9.40625 30.7227V17.3164H30.5938V30.7227ZM30.5938 15.9102H9.40625V13.7539C9.40625 12.8373 9.99411 12.0557 10.8125 11.7655V12.3477C10.8125 13.5108 11.7588 14.457 12.9219 14.457C14.085 14.457 15.0312 13.5108 15.0312 12.3477V11.6445H17.8906V12.3477C17.8906 13.5108 18.8369 14.457 20 14.457C21.1631 14.457 22.1094 13.5108 22.1094 12.3477V11.6445H24.9688V12.3477C24.9688 13.5108 25.915 14.457 27.0781 14.457C28.2412 14.457 29.1875 13.5108 29.1875 12.3477V11.7655C30.0059 12.0557 30.5938 12.8373 30.5938 13.7539V15.9102Z" fill="#FF9649"/>
        <path d="M17.3444 23.0758L19.091 21.3292C19.5319 20.8882 19.2198 20.1289 18.5938 20.1289H14.375C13.9867 20.1289 13.6719 20.4437 13.6719 20.832C13.6719 21.2203 13.9867 21.5352 14.375 21.5352H16.8963L15.2841 23.1474C14.8431 23.5883 15.1552 24.3477 15.7813 24.3477H16.4844C17.2598 24.3477 17.8906 24.9785 17.8906 25.7539C17.8906 26.5293 17.2598 27.1602 16.4844 27.1602C15.709 27.1602 15.0781 26.5293 15.0781 25.7539C15.0781 25.3656 14.7633 25.0508 14.375 25.0508C13.9867 25.0508 13.6719 25.3656 13.6719 25.7539C13.6719 27.3047 14.9336 28.5664 16.4844 28.5664C18.0352 28.5664 19.2969 27.3047 19.2969 25.7539C19.2969 24.5029 18.4759 23.44 17.3444 23.0758Z" fill="#FF9649"/>
        <path d="M27.0312 27.1602H24.9219V20.8321C24.9219 20.2086 24.1641 19.8922 23.7216 20.3349L20.9091 23.1474C20.6345 23.422 20.6345 23.8672 20.9091 24.1418C21.1836 24.4164 21.6289 24.4164 21.9035 24.1418L23.5156 22.5296V27.1602H21.4062C21.0179 27.1602 20.7031 27.475 20.7031 27.8634C20.7031 28.2517 21.0179 28.5665 21.4062 28.5665H27.0312C27.4196 28.5665 27.7344 28.2517 27.7344 27.8634C27.7344 27.475 27.4196 27.1602 27.0312 27.1602Z" fill="#FF9649"/>
    </g>
    <defs>
        <clipPath id="clip0_7963_10232">
            <rect width="24" height="24" fill="white" transform="translate(8 8.83203)"/>
        </clipPath>
    </defs>
</svg>