<svg width="18" height="13" viewBox="0 0 18 13" fill="none" xmlns="http://www.w3.org/2000/svg">
<path fill-rule="evenodd" clip-rule="evenodd" d="M17.4286 3.17699C18.1903 2.45021 18.1903 1.27187 17.4286 0.545086C16.6669 -0.181695 15.4319 -0.181695 14.6702 0.545085L6.31806 8.51401L3.31791 5.65149C2.55889 4.9273 1.32828 4.9273 0.569263 5.65149C-0.189754 6.37569 -0.189755 7.54984 0.569262 8.27404L4.86455 12.3723C4.89069 12.4004 4.91789 12.428 4.94613 12.4549C5.27955 12.773 5.70365 12.9519 6.13905 12.9915C6.67505 13.0411 7.22853 12.8789 7.65025 12.5048C7.66861 12.4886 7.68673 12.472 7.70458 12.4549L17.4286 3.17699Z" fill="#066FDE"/>
</svg>
