<svg xmlns="http://www.w3.org/2000/svg" viewBox="0 0 250 250" width="250" height="250" preserveAspectRatio="xMidYMid meet" style="width: 100%; height: 100%; transform: translate3d(0px, 0px, 0px);">
  <style>
    @keyframes flicker {
      0% { 
        transform: scale(1);
      }
      50% { 
        transform: scale(1.5);
      }
      100% { 
        transform: scale(1);
      }
    }

    @keyframes rotateClock {
      0% {
        transform: rotate(0deg)
      }

      100% {
        transform: rotate(360deg)
      }
    }

    .small-star {
      animation: flicker 2s infinite;
    }

    .medium-star {
      animation: flicker 3s infinite;
    }

    .large-star {
      animation: flicker 2.5s infinite;
    }

    .minute-arrow {
      transform-box: fill-box;
      transform-origin: 50% 95%;
      animation: rotateClock 5s infinite;
    }

    .hour-arrow {
      transform-box: fill-box;
      transform-origin: 15% 90%;
      animation: rotateClock 10s infinite;
    }
  </style>
  <defs>
    <clipPath id="__lottie_element_2">
      <rect width="250" height="250" x="0" y="0"></rect>
    </clipPath>
  </defs>
  <g clip-path="url(#__lottie_element_2)">
    <g transform="matrix(1,0,0,1,45.17900085449219,44.67900085449219)" opacity="1" style="display: block;">
      <!-- ???? -->
      <g opacity="0.25" transform="matrix(1,0,0,1,80.32099914550781,80.32099914550781)">
        <path fill="rgb(204,213,244)" fill-opacity="1" d=" M-47.87900161743164,-47.87900161743164 C-21.43600082397461,-74.32099914550781 21.434999465942383,-74.32099914550781 47.87900161743164,-47.87900161743164 C74.32099914550781,-21.43600082397461 74.32099914550781,21.434999465942383 47.87900161743164,47.87900161743164 C21.434999465942383,74.32099914550781 -21.43600082397461,74.32099914550781 -47.87900161743164,47.87900161743164 C-74.32099914550781,21.434999465942383 -74.32099914550781,-21.43600082397461 -47.87900161743164,-47.87900161743164z"></path>
        <g opacity="1" transform="matrix(1,0,0,1,0,0)"></g>
      </g>

      <!-- Clock margin -->
      <g opacity="1" transform="matrix(1,0,0,1,80.32099914550781,80.32099914550781)">
        <path stroke-linecap="butt" stroke-linejoin="miter" fill-opacity="0" stroke-miterlimit="4" stroke="rgb(222,228,248)" stroke-opacity="1" stroke-width="6" d=" M-47.87900161743164,-47.87900161743164 C-21.43600082397461,-74.32099914550781 21.434999465942383,-74.32099914550781 47.87900161743164,-47.87900161743164 C74.32099914550781,-21.43600082397461 74.32099914550781,21.434999465942383 47.87900161743164,47.87900161743164 C21.434999465942383,74.32099914550781 -21.43600082397461,74.32099914550781 -47.87900161743164,47.87900161743164 C-74.32099914550781,21.434999465942383 -74.32099914550781,-21.43600082397461 -47.87900161743164,-47.87900161743164z"></path>
      </g>

      <!-- Clock time divisions -->
      <g opacity="1" transform="matrix(1,0,0,1,132.3800048828125,81.82099914550781)">
        <path fill="rgb(155,171,217)" fill-opacity="1" d=" M-3,2 C-3,2 1,2 1,2 C2.1010000705718994,2 3,1.100000023841858 3,0 C3,-1.100000023841858 2.1010000705718994,-2 1,-2 C1,-2 -3,-2 -3,-2 C-3,-2 -3,2 -3,2z"></path>
        <g opacity="1" transform="matrix(1,0,0,1,0,0)"></g>
      </g>
      <g opacity="1" transform="matrix(1,0,0,1,28.388999938964844,81.82099914550781)">
        <path fill="rgb(155,171,217)" fill-opacity="1" d=" M-1,2 C-1,2 3,2 3,2 C3,2 3,-2 3,-2 C3,-2 -1,-2 -1,-2 C-2.0999999046325684,-2 -3,-1.100000023841858 -3,0 C-3,1.100000023841858 -2.0999999046325684,2 -1,2z"></path>
        <g opacity="1" transform="matrix(1,0,0,1,0,0)"></g>
      </g>
      <g opacity="1" transform="matrix(1,0,0,1,80.32099914550781,29.12700080871582)">
        <path fill="rgb(155,171,217)" fill-opacity="1" d=" M2,3 C2,3 2,-1 2,-1 C2,-2.0999999046325684 1.100000023841858,-3 0,-3 C-1.100000023841858,-3 -2,-2.0999999046325684 -2,-1 C-2,-1 -2,3 -2,3 C-2,3 2,3 2,3z"></path>
        <g opacity="1" transform="matrix(1,0,0,1,0,0)"></g>
      </g>
      <g opacity="1" transform="matrix(1,0,0,1,80.32099914550781,133.11900329589844)">
        <path fill="rgb(155,171,217)" fill-opacity="1" d=" M2,1 C2,1 2,-3 2,-3 C2,-3 -2,-3 -2,-3 C-2,-3 -2,1 -2,1 C-2,2.1010000705718994 -1.100000023841858,3 0,3 C1.100000023841858,3 2,2.1010000705718994 2,1z"></path>
        <g opacity="1" transform="matrix(1,0,0,1,0,0)"></g>
      </g>
    </g>

    <!-- Big star -->
    <g transform="matrix(1,0,0,1,157.75,18.75)" opacity="1" style="display: block;">
      <g opacity="1" transform="matrix(1,0,0,1,16.618000030517578,16.618000030517578)">
        <path class="large-star" fill="rgb(222,228,248)" fill-opacity="1" d=" M14.880000114440918,-1.4880000352859497 C7.46999979019165,-1.4880000352859497 1.4880000352859497,-7.46999979019165 1.4880000352859497,-14.880999565124512 C1.4880000352859497,-15.71399974822998 0.8330000042915344,-16.368000030517578 0,-16.368000030517578 C-0.8330000042915344,-16.368000030517578 -1.4880000352859497,-15.71399974822998 -1.4880000352859497,-14.880999565124512 C-1.4880000352859497,-7.46999979019165 -7.46999979019165,-1.4880000352859497 -14.880000114440918,-1.4880000352859497 C-15.713000297546387,-1.4880000352859497 -16.368000030517578,-0.8339999914169312 -16.368000030517578,0 C-16.368000030517578,0.8330000042915344 -15.713000297546387,1.4880000352859497 -14.880000114440918,1.4880000352859497 C-7.46999979019165,1.4880000352859497 -1.4880000352859497,7.46999979019165 -1.4880000352859497,14.880000114440918 C-1.4880000352859497,15.713000297546387 -0.8330000042915344,16.368000030517578 0,16.368000030517578 C0.8330000042915344,16.368000030517578 1.4880000352859497,15.713000297546387 1.4880000352859497,14.880000114440918 C1.4880000352859497,7.46999979019165 7.46999979019165,1.4880000352859497 14.880000114440918,1.4880000352859497 C15.71399974822998,1.4880000352859497 16.368000030517578,0.8330000042915344 16.368000030517578,0 C16.368000030517578,-0.8339999914169312 15.71399974822998,-1.4880000352859497 14.880000114440918,-1.4880000352859497z"></path>
        <g opacity="1" transform="matrix(1,0,0,1,0,0)"></g>
      </g>
    </g>

    <!-- Medium star -->
    <g transform="matrix(1,0,0,1,15.74899959564209,178.75100708007812)" opacity="1" style="display: block;">
      <g opacity="1" transform="matrix(1,0,0,1,13.345000267028809,13.343999862670898)">
        <path class="medium-star" fill="rgb(222,228,248)" fill-opacity="1" d=" M11.904000282287598,-1.190999984741211 C5.97599983215332,-1.190999984741211 1.190999984741211,-5.974999904632568 1.190999984741211,-11.904000282287598 C1.190999984741211,-12.569999694824219 0.6679999828338623,-13.093999862670898 0.0010000000474974513,-13.093999862670898 C-0.6660000085830688,-13.093999862670898 -1.1890000104904175,-12.569999694824219 -1.1890000104904175,-11.904000282287598 C-1.1890000104904175,-5.974999904632568 -5.97599983215332,-1.190999984741211 -11.904000282287598,-1.190999984741211 C-12.571000099182129,-1.190999984741211 -13.093999862670898,-0.6679999828338623 -13.093999862670898,-0.0010000000474974513 C-13.093999862670898,0.6650000214576721 -12.571000099182129,1.190999984741211 -11.904000282287598,1.190999984741211 C-5.97599983215332,1.190999984741211 -1.1890000104904175,5.974999904632568 -1.1890000104904175,11.904000282287598 C-1.1890000104904175,12.569999694824219 -0.6660000085830688,13.093999862670898 0.0010000000474974513,13.093999862670898 C0.6679999828338623,13.093999862670898 1.190999984741211,12.569999694824219 1.190999984741211,11.904000282287598 C1.190999984741211,5.974999904632568 5.97599983215332,1.190999984741211 11.904000282287598,1.190999984741211 C12.571000099182129,1.190999984741211 13.093999862670898,0.6650000214576721 13.093999862670898,-0.0010000000474974513 C13.093999862670898,-0.6679999828338623 12.571000099182129,-1.190999984741211 11.904000282287598,-1.190999984741211z"></path>
        <g opacity="1" transform="matrix(1,0,0,1,0,0)"></g>
      </g>
    </g>

    <!-- Small star -->
    <g transform="matrix(0.5780897736549377,0,0,0.5780897736549377,45.39051055908203,218.39151000976562)" opacity="1" style="display: block;">
      <g opacity="1" transform="matrix(1,0,0,1,8.630000114440918,8.630999565124512)">
        <path class="small-star" fill="rgb(155,171,217)" fill-opacity="1" d=" M7.618000030517578,-0.7620000243186951 C3.8239998817443848,-0.7620000243186951 0.7620000243186951,-3.8239998817443848 0.7620000243186951,-7.618000030517578 C0.7620000243186951,-8.045000076293945 0.4259999990463257,-8.380000114440918 -0.0010000000474974513,-8.380000114440918 C-0.4269999861717224,-8.380000114440918 -0.7620000243186951,-8.045000076293945 -0.7620000243186951,-7.618000030517578 C-0.7620000243186951,-3.8239998817443848 -3.8239998817443848,-0.7620000243186951 -7.618000030517578,-0.7620000243186951 C-8.045000076293945,-0.7620000243186951 -8.380000114440918,-0.4259999990463257 -8.380000114440918,0.0010000000474974513 C-8.380000114440918,0.4259999990463257 -8.045000076293945,0.7599999904632568 -7.618000030517578,0.7599999904632568 C-3.8239998817443848,0.7599999904632568 -0.7620000243186951,3.8239998817443848 -0.7620000243186951,7.618000030517578 C-0.7620000243186951,8.045000076293945 -0.4269999861717224,8.380000114440918 -0.0010000000474974513,8.380000114440918 C0.4259999990463257,8.380000114440918 0.7620000243186951,8.045000076293945 0.7620000243186951,7.618000030517578 C0.7620000243186951,3.8239998817443848 3.8239998817443848,0.7599999904632568 7.618000030517578,0.7599999904632568 C8.045000076293945,0.7599999904632568 8.380000114440918,0.4259999990463257 8.380000114440918,0.0010000000474974513 C8.380000114440918,-0.4259999990463257 8.045000076293945,-0.7620000243186951 7.618000030517578,-0.7620000243186951z"></path>
        <g opacity="1" transform="matrix(1,0,0,1,0,0)"></g>
      </g>
    </g>

    <!-- Minute arrow -->
    <g transform="matrix(1,0,0,1,122.25,80.09100341796875)" opacity="1" style="display: block;">
      <g opacity="1" transform="matrix(1,0,0,1,3.3519999980926514,25.680999755859375)">
        <path class="minute-arrow" fill="rgb(155,171,217)" fill-opacity="1" d=" M0,-25.430999755859375 C0,-25.430999755859375 0,-25.430999755859375 0,-25.430999755859375 C1.7130000591278076,-25.430999755859375 3.1019999980926514,-24.04199981689453 3.1019999980926514,-22.32900047302246 C3.1019999980926514,-22.32900047302246 3.1019999980926514,22.329999923706055 3.1019999980926514,22.329999923706055 C3.1019999980926514,24.042999267578125 1.7130000591278076,25.430999755859375 0,25.430999755859375 C-1.7130000591278076,25.430999755859375 -3.1019999980926514,24.042999267578125 -3.1019999980926514,22.329999923706055 C-3.1019999980926514,22.329999923706055 -3.1019999980926514,-22.32900047302246 -3.1019999980926514,-22.32900047302246 C-3.1019999980926514,-24.04199981689453 -1.7130000591278076,-25.430999755859375 0,-25.430999755859375z"></path>
        <g opacity="1" transform="matrix(1,0,0,1,0,0)"></g>
      </g>
    </g>

    <!-- Hour arrow -->
    <g transform="matrix(0.7071067690849304,-0.7071067690849304,0.7071067690849304,0.7071067690849304,107.91448211669922,116.72413635253906)" opacity="1" style="display: block;">
      <g opacity="1" transform="matrix(1,0,0,1,12.418000221252441,12.418000221252441)">
        <path class="hour-arrow" fill="rgb(107,122,170)" fill-opacity="1" d=" M10.607000350952148,-10.607000350952148 C10.607000350952148,-10.607000350952148 10.607000350952148,-10.607000350952148 10.607000350952148,-10.607000350952148 C12.168999671936035,-9.045000076293945 12.168999671936035,-6.511000156402588 10.607000350952148,-4.948999881744385 C10.607000350952148,-4.948999881744385 -4.948999881744385,10.607000350952148 -4.948999881744385,10.607000350952148 C-6.511000156402588,12.168999671936035 -9.045000076293945,12.168999671936035 -10.607000350952148,10.607000350952148 C-12.168999671936035,9.045000076293945 -12.168999671936035,6.511000156402588 -10.607000350952148,4.948999881744385 C-10.607000350952148,4.948999881744385 4.951000213623047,-10.607000350952148 4.951000213623047,-10.607000350952148 C6.51200008392334,-12.168999671936035 9.045000076293945,-12.168999671936035 10.607000350952148,-10.607000350952148z"></path>
        <g opacity="1" transform="matrix(1,0,0,1,0,0)"></g>
      </g>
    </g>
  </g>
</svg>