<svg xmlns="http://www.w3.org/2000/svg" viewBox="0 0 250 250" width="250" height="250" preserveAspectRatio="xMidYMid meet" style="width: 100%; height: 100%; transform: translate3d(0px, 0px, 0px);">
  <style>
    @keyframes flicker {
      0% { 
        transform: scale(1);
      }
      50% { 
        transform: scale(1.5);
      }
      100% { 
        transform: scale(1);
      }
    }

    @keyframes floating {
      0% {
        transform: translateY(0);
      }
      50% {
        transform: translateY(25px);
      }
      100% {
        transform: translateY(0);
      }
    }

    .small-star {
      animation: flicker 2s infinite;
    }

    .medium-star {
      animation: flicker 3s infinite;
    }

    .large-star {
      animation: flicker 2.5s infinite;
    }

    .small-cloud {
      animation: floating 2s ease-in-out 0.5s infinite;
    }

    .large-cloud {
      animation: floating 2s ease-in-out infinite;
    }
  </style>
  <defs>
    <clipPath id="__lottie_element_2">
      <rect width="250" height="250" x="0" y="0"></rect>
    </clipPath>
  </defs>
  <g clip-path="url(#__lottie_element_2)">
    <g transform="matrix(1,0,0,1,21.75,50.97431182861328)" opacity="1" style="display: block;">

      <!-- Large cloud -->
      <g opacity="1" transform="matrix(1,0,0,1,103.25,56.25)">
        <path class="large-cloud" fill="rgb(222,228,248)" fill-opacity="1" d=" M47.29100036621094,-41.7140007019043 C39.055999755859375,-50.505001068115234 27.332000732421875,-56 14.321999549865723,-56 C-7.165999889373779,-56 -25.134000778198242,-41.005001068115234 -29.679000854492188,-20.929000854492188 C-32.375999450683594,-21.82699966430664 -35.257999420166016,-22.320999145507812 -38.25600051879883,-22.320999145507812 C-47.48899841308594,-22.320999145507812 -55.63600158691406,-17.707000732421875 -60.52199935913086,-10.666999816894531 C-63.25,-11.369999885559082 -66.11000061035156,-11.748000144958496 -69.05899810791016,-11.748000144958496 C-87.80400085449219,-11.748000144958496 -103,3.4170000553131104 -103,22.125 C-103,40.832000732421875 -87.80400085449219,56 -69.05899810791016,56 C-69.05899810791016,56 -31.63599967956543,56 -31.63599967956543,56 C-31.63599967956543,56 86.8270034790039,54.97999954223633 86.8270034790039,54.97999954223633 C86.8270034790039,54.97999954223633 104,41 103,22.517000198364258 C102.0009994506836,4.051000118255615 87.9800033569336,-10.96399974822998 69.45099639892578,-10.96399974822998 C65.9520034790039,-10.96399974822998 62.57899856567383,-10.428999900817871 59.40700149536133,-9.437000274658203 C59.42300033569336,-9.944000244140625 59.44599914550781,-10.45300006866455 59.44599914550781,-10.96399974822998 C59.44599914550781,-18.527000427246094 57.577999114990234,-25.652000427246094 54.277000427246094,-31.90999984741211"></path>
      </g>
    </g>

    <!-- Medium star -->
    <g transform="matrix(0.6352298855781555,0,0,0.6352298855781555,193.31175231933594,24.811748504638672)" opacity="1" style="display: block;">
      <g opacity="1" transform="matrix(1,0,0,1,16.618000030517578,16.618000030517578)">
        <path class="medium-star" fill="rgb(222,228,248)" fill-opacity="1" d=" M14.880000114440918,-1.4880000352859497 C7.46999979019165,-1.4880000352859497 1.4880000352859497,-7.46999979019165 1.4880000352859497,-14.880999565124512 C1.4880000352859497,-15.71399974822998 0.8330000042915344,-16.368000030517578 0,-16.368000030517578 C-0.8330000042915344,-16.368000030517578 -1.4880000352859497,-15.71399974822998 -1.4880000352859497,-14.880999565124512 C-1.4880000352859497,-7.46999979019165 -7.46999979019165,-1.4880000352859497 -14.880000114440918,-1.4880000352859497 C-15.713000297546387,-1.4880000352859497 -16.368000030517578,-0.8339999914169312 -16.368000030517578,0 C-16.368000030517578,0.8330000042915344 -15.713000297546387,1.4880000352859497 -14.880000114440918,1.4880000352859497 C-7.46999979019165,1.4880000352859497 -1.4880000352859497,7.46999979019165 -1.4880000352859497,14.880000114440918 C-1.4880000352859497,15.713000297546387 -0.8330000042915344,16.368000030517578 0,16.368000030517578 C0.8330000042915344,16.368000030517578 1.4880000352859497,15.713000297546387 1.4880000352859497,14.880000114440918 C1.4880000352859497,7.46999979019165 7.46999979019165,1.4880000352859497 14.880000114440918,1.4880000352859497 C15.71399974822998,1.4880000352859497 16.368000030517578,0.8330000042915344 16.368000030517578,0 C16.368000030517578,-0.8339999914169312 15.71399974822998,-1.4880000352859497 14.880000114440918,-1.4880000352859497z"></path>
      </g>
    </g>
    <g transform="matrix(0.9440184831619263,0,0,0.9440184831619263,146.232177734375,19.233177185058594)" opacity="1" style="display: block;">
      <g opacity="1" transform="matrix(1,0,0,1,8.630000114440918,8.630999565124512)">
        <path class="small-star" fill="rgb(155,171,217)" fill-opacity="1" d=" M7.61899995803833,-0.7620000243186951 C3.825000047683716,-0.7620000243186951 0.7620000243186951,-3.825000047683716 0.7620000243186951,-7.61899995803833 C0.7620000243186951,-8.045999526977539 0.4269999861717224,-8.380999565124512 0.0010000000474974513,-8.380999565124512 C-0.4259999990463257,-8.380999565124512 -0.7620000243186951,-8.045999526977539 -0.7620000243186951,-7.61899995803833 C-0.7620000243186951,-3.825000047683716 -3.825000047683716,-0.7620000243186951 -7.61899995803833,-0.7620000243186951 C-8.045999526977539,-0.7620000243186951 -8.380999565124512,-0.4269999861717224 -8.380999565124512,0 C-8.380999565124512,0.4259999990463257 -8.045999526977539,0.7620000243186951 -7.61899995803833,0.7620000243186951 C-3.825000047683716,0.7620000243186951 -0.7620000243186951,3.8239998817443848 -0.7620000243186951,7.618000030517578 C-0.7620000243186951,8.045000076293945 -0.4259999990463257,8.380999565124512 0.0010000000474974513,8.380999565124512 C0.4269999861717224,8.380999565124512 0.7620000243186951,8.045000076293945 0.7620000243186951,7.618000030517578 C0.7620000243186951,3.8239998817443848 3.825000047683716,0.7620000243186951 7.61899995803833,0.7620000243186951 C8.045999526977539,0.7620000243186951 8.380999565124512,0.4259999990463257 8.380999565124512,0 C8.380999565124512,-0.4269999861717224 8.045999526977539,-0.7620000243186951 7.61899995803833,-0.7620000243186951z"></path>
      </g>
    </g>
    <g transform="matrix(1,0,0,1,21.749000549316406,58.750999450683594)" opacity="1" style="display: block;">
      <g opacity="1" transform="matrix(1,0,0,1,13.345000267028809,13.343999862670898)">
        <path class="large-star" fill="rgb(222,228,248)" fill-opacity="1" d=" M11.904000282287598,-1.190999984741211 C5.97599983215332,-1.190999984741211 1.190999984741211,-5.97599983215332 1.190999984741211,-11.904000282287598 C1.190999984741211,-12.569999694824219 0.6679999828338623,-13.093999862670898 0.0010000000474974513,-13.093999862670898 C-0.6660000085830688,-13.093999862670898 -1.1890000104904175,-12.569999694824219 -1.1890000104904175,-11.904000282287598 C-1.1890000104904175,-5.97599983215332 -5.97599983215332,-1.190999984741211 -11.904000282287598,-1.190999984741211 C-12.571000099182129,-1.190999984741211 -13.093999862670898,-0.6679999828338623 -13.093999862670898,-0.0010000000474974513 C-13.093999862670898,0.6660000085830688 -12.571000099182129,1.190999984741211 -11.904000282287598,1.190999984741211 C-5.97599983215332,1.190999984741211 -1.1890000104904175,5.97599983215332 -1.1890000104904175,11.904000282287598 C-1.1890000104904175,12.571000099182129 -0.6660000085830688,13.093999862670898 0.0010000000474974513,13.093999862670898 C0.6679999828338623,13.093999862670898 1.190999984741211,12.571000099182129 1.190999984741211,11.904000282287598 C1.190999984741211,5.97599983215332 5.97599983215332,1.190999984741211 11.904000282287598,1.190999984741211 C12.571000099182129,1.190999984741211 13.093999862670898,0.6660000085830688 13.093999862670898,-0.0010000000474974513 C13.093999862670898,-0.6679999828338623 12.571000099182129,-1.190999984741211 11.904000282287598,-1.190999984741211z"></path>
      </g>
    </g>

    <!-- Small cloud -->
    <g transform="matrix(1,0,0,1,93.75,116.9498291015625)" opacity="1" style="display: block;">
      <g opacity="1" transform="matrix(1,0,0,1,64.25,35.25)">
        <path class="small-cloud" fill="rgb(245,247,252)" fill-opacity="1" d=" M42.909000396728516,-7.3420000076293945 C41.07699966430664,-7.3420000076293945 39.29899978637695,-7.107999801635742 37.60499954223633,-6.665999889373779 C34.569000244140625,-11.067999839782715 29.506000518798828,-13.949999809265137 23.768999099731445,-13.949999809265137 C21.9060001373291,-13.949999809265137 20.117000579833984,-13.642000198364258 18.44099998474121,-13.081000328063965 C15.616999626159668,-25.62700080871582 4.452000141143799,-35 -8.901000022888184,-35 C-24.384000778198242,-35 -36.9370002746582,-22.39900016784668 -36.9370002746582,-6.853000164031982 C-36.9370002746582,-6.5320000648498535 -36.92300033569336,-6.215000152587891 -36.91400146484375,-5.89900016784668 C-38.88399887084961,-6.51800012588501 -40.98099899291992,-6.853000164031982 -43.154998779296875,-6.853000164031982 C-54.66699981689453,-6.853000164031982 -64,2.5139999389648438 -64,14.074999809265137 C-64,25.631999969482422 -54.66699981689453,35 -43.154998779296875,35 C-43.154998779296875,35 19.256999969482422,35 19.256999969482422,35 C19.256999969482422,35 30.840999603271484,35 30.840999603271484,35 C30.840999603271484,35 42.909000396728516,35 42.909000396728516,35 C54.555999755859375,35 64,25.520999908447266 64,13.829000473022461 C63.999000549316406,2.135999917984009 54.55500030517578,-7.3420000076293945 42.909000396728516,-7.3420000076293945z"></path>
      </g>
    </g>
  </g>
</svg>