<svg xmlns="http://www.w3.org/2000/svg" viewBox="0 0 250 250" width="250" height="250" preserveAspectRatio="xMidYMid meet" style="width: 100%; height: 100%; transform: translate3d(0px, 0px, 0px);"><defs><clipPath id="__lottie_element_2"><rect width="250" height="250" x="0" y="0"></rect></clipPath><linearGradient id="__lottie_element_15" spreadMethod="pad" gradientUnits="userSpaceOnUse" x1="0" y1="0" x2="100" y2="0"><stop offset="0%" stop-color="rgb(226,232,254)"></stop><stop offset="23%" stop-color="rgb(187,199,235)"></stop><stop offset="100%" stop-color="rgb(149,166,215)"></stop></linearGradient><linearGradient id="__lottie_element_19" spreadMethod="pad" gradientUnits="userSpaceOnUse" x1="0" y1="0" x2="100" y2="0"><stop offset="0%" stop-color="rgb(226,232,254)"></stop><stop offset="23%" stop-color="rgb(187,199,235)"></stop><stop offset="100%" stop-color="rgb(149,166,215)"></stop></linearGradient></defs><g clip-path="url(#__lottie_element_2)"><g transform="matrix(0.6346853375434875,0,0,0.6346853375434875,119.90203094482422,47.90303039550781)" opacity="1" style="display: block;"><g opacity="1" transform="matrix(1,0,0,1,8.630000114440918,8.630999565124512)"><path fill="rgb(222,228,248)" fill-opacity="1" d=" M7.618000030517578,-0.7620000243186951 C3.8239998817443848,-0.7620000243186951 0.7620000243186951,-3.825000047683716 0.7620000243186951,-7.61899995803833 C0.7620000243186951,-8.045999526977539 0.4269999861717224,-8.380999565124512 0.0010000000474974513,-8.380999565124512 C-0.4259999990463257,-8.380999565124512 -0.7620000243186951,-8.045999526977539 -0.7620000243186951,-7.61899995803833 C-0.7620000243186951,-3.825000047683716 -3.8239998817443848,-0.7620000243186951 -7.618000030517578,-0.7620000243186951 C-8.045000076293945,-0.7620000243186951 -8.380000114440918,-0.4269999861717224 -8.380000114440918,0 C-8.380000114440918,0.4259999990463257 -8.045000076293945,0.7620000243186951 -7.618000030517578,0.7620000243186951 C-3.8239998817443848,0.7620000243186951 -0.7620000243186951,3.8239998817443848 -0.7620000243186951,7.618000030517578 C-0.7620000243186951,8.045000076293945 -0.4259999990463257,8.380999565124512 0.0010000000474974513,8.380999565124512 C0.4269999861717224,8.380999565124512 0.7620000243186951,8.045000076293945 0.7620000243186951,7.618000030517578 C0.7620000243186951,3.8239998817443848 3.8239998817443848,0.7620000243186951 7.618000030517578,0.7620000243186951 C8.045000076293945,0.7620000243186951 8.380000114440918,0.4259999990463257 8.380000114440918,0 C8.380000114440918,-0.4269999861717224 8.045000076293945,-0.7620000243186951 7.618000030517578,-0.7620000243186951z"></path></g></g><g transform="matrix(0.6672196388244629,0,0,0.6672196388244629,41.992950439453125,87.8265609741211)" opacity="1" style="display: block;"><g opacity="1" transform="matrix(1,0,0,1,12.75,12.25)"><path fill="rgb(155,172,214)" fill-opacity="1" d=" M0.3199999928474426,-12 C0.3199999928474426,-12 -0.38999998569488525,-12 -0.38999998569488525,-12 C-0.8169999718666077,-12 -1.1720000505447388,-11.692999839782715 -1.1720000505447388,-11.282999992370605 C-1.5269999504089355,-6.468999862670898 -6.7829999923706055,-1.5529999732971191 -11.789999961853027,-1.1089999675750732 C-12.180000305175781,-1.0750000476837158 -12.5,-0.734000027179718 -12.5,-0.3580000102519989 C-12.5,-0.3580000102519989 -12.5,0.3580000102519989 -12.5,0.3580000102519989 C-12.5,0.7680000066757202 -12.180000305175781,1.0750000476837158 -11.753999710083008,1.1089999675750732 C-6.7829999923706055,1.4509999752044678 -1.7039999961853027,6.401000022888184 -1.1720000505447388,11.21500015258789 C-1.1360000371932983,11.659000396728516 -0.7450000047683716,12 -0.24799999594688416,12 C-0.24799999594688416,12 0.24899999797344208,12 0.24899999797344208,12 C0.7459999918937683,12 1.1360000371932983,11.659000396728516 1.1720000505447388,11.180999755859375 C1.5980000495910645,5.7870001792907715 6.107999801635742,1.3489999771118164 11.718999862670898,1.0750000476837158 C12.180000305175781,1.0420000553131104 12.5,0.699999988079071 12.5,0.25600001215934753 C12.5,0.25600001215934753 12.5,-0.3580000102519989 12.5,-0.3580000102519989 C12.5,-0.8019999861717224 12.145000457763672,-1.1440000534057617 11.718999862670898,-1.1779999732971191 C6.072000026702881,-1.4509999752044678 1.5269999504089355,-5.922999858856201 1.1720000505447388,-11.38599967956543 C1.1009999513626099,-11.692999839782715 0.7459999918937683,-12 0.3199999928474426,-12z"></path></g></g><g transform="matrix(0.9939582943916321,0,0,0.9939582943916321,166.85040283203125,147.85040283203125)" opacity="1" style="display: block;"><g opacity="1" transform="matrix(1,0,0,1,16.618000030517578,16.618000030517578)"><path fill="rgb(222,228,248)" fill-opacity="1" d=" M14.880000114440918,-1.4880000352859497 C7.46999979019165,-1.4880000352859497 1.4880000352859497,-7.468999862670898 1.4880000352859497,-14.880000114440918 C1.4880000352859497,-15.713000297546387 0.8330000042915344,-16.368000030517578 0,-16.368000030517578 C-0.8330000042915344,-16.368000030517578 -1.4880000352859497,-15.713000297546387 -1.4880000352859497,-14.880000114440918 C-1.4880000352859497,-7.468999862670898 -7.46999979019165,-1.4880000352859497 -14.880000114440918,-1.4880000352859497 C-15.713000297546387,-1.4880000352859497 -16.368000030517578,-0.8330000042915344 -16.368000030517578,0 C-16.368000030517578,0.8330000042915344 -15.713000297546387,1.4889999628067017 -14.880000114440918,1.4889999628067017 C-7.46999979019165,1.4889999628067017 -1.4880000352859497,7.46999979019165 -1.4880000352859497,14.880000114440918 C-1.4880000352859497,15.71399974822998 -0.8330000042915344,16.368000030517578 0,16.368000030517578 C0.8330000042915344,16.368000030517578 1.4880000352859497,15.71399974822998 1.4880000352859497,14.880000114440918 C1.4880000352859497,7.46999979019165 7.46999979019165,1.4889999628067017 14.880000114440918,1.4889999628067017 C15.71399974822998,1.4889999628067017 16.368000030517578,0.8330000042915344 16.368000030517578,0 C16.368000030517578,-0.8330000042915344 15.71399974822998,-1.4880000352859497 14.880000114440918,-1.4880000352859497z"></path></g></g><g transform="matrix(1,0,0,1,265.78497314453125,-72.52099609375)" opacity="1" style="display: block;"><g opacity="1" transform="matrix(1,0,0,1,94.72599792480469,57.084999084472656)"><path fill="url(#__lottie_element_15)" fill-opacity="1" d=" M75.1449966430664,-54.959999084472656 C75.1449966430664,-54.959999084472656 -94.47599792480469,56.834999084472656 -94.47599792480469,56.834999084472656 C-94.47599792480469,56.834999084472656 86.54100036621094,-35.37300109863281 86.54100036621094,-35.37300109863281 C92.3489990234375,-38.33100128173828 94.47599792480469,-45.560001373291016 91.19999694824219,-51.19200134277344 C89.08399963378906,-54.827999114990234 85.2750015258789,-56.834999084472656 81.37699890136719,-56.834999084472656 C79.23799896240234,-56.834999084472656 77.072998046875,-56.23099899291992 75.1449966430664,-54.959999084472656z"></path></g></g><g transform="matrix(1,0,0,1,19.785003662109375,77.47899627685547)" opacity="1" style="display: block;"><g opacity="1" transform="matrix(1,0,0,1,94.72599792480469,57.084999084472656)"><path fill="url(#__lottie_element_19)" fill-opacity="1" d=" M75.1449966430664,-54.959999084472656 C75.1449966430664,-54.959999084472656 -94.47599792480469,56.834999084472656 -94.47599792480469,56.834999084472656 C-94.47599792480469,56.834999084472656 86.54100036621094,-35.37300109863281 86.54100036621094,-35.37300109863281 C92.3489990234375,-38.33100128173828 94.47599792480469,-45.560001373291016 91.19999694824219,-51.19200134277344 C89.08399963378906,-54.827999114990234 85.2750015258789,-56.834999084472656 81.37699890136719,-56.834999084472656 C79.23799896240234,-56.834999084472656 77.072998046875,-56.23099899291992 75.1449966430664,-54.959999084472656z"></path></g></g></g></svg>