<svg xmlns="http://www.w3.org/2000/svg" viewBox="0 0 250 250" width="250" height="250" preserveAspectRatio="xMidYMid meet" style="width: 100%; height: 100%; transform: translate3d(0px, 0px, 0px);">
  <style>
    @keyframes flicker {
      0% { 
        transform: scale(1);
      }
      50% { 
        transform: scale(1.5);
      }
      100% { 
        transform: scale(1);
      }
    }

    @keyframes rotate {
      0% {
        transform: rotate(30deg);
      }
      50% {
        transform: rotate(-30deg)
      }
      100% {
        transform: rotate(30deg)
      }
    }

    @keyframes rotateArrow {
      0% {
        transform: rotate(0deg);
      }
      50% {
        transform: rotate(90deg)
      }
      100% {
        transform: rotate(0deg)
      }
    }

    .small-star {
      animation: flicker 2s infinite;
    }

    .medium-star {
      animation: flicker 3s infinite;
    }

    .large-star {
      animation: flicker 2.5s infinite;
    }

    .compass-border, .compass-border-2 {
      transform-box: view-box;
      transform-origin: 0% 0%;
      animation: rotate 2s infinite ease-in-out;
    }

    .compass-ring {
      transform-box: fill-box;
      transform: translate(50%, 50%);
      transform-origin: 50% 350%;
      animation: rotate 2s infinite ease-in-out;
    }

    .compass-arrow {
      transform-box: view-box;
      transform: rotate(30deg);
      transform-origin: 0% 0%;
      animation: rotateArrow 2s ease-in-out infinite;
    }

    .compass-indicator {
      transform-box: fill-box;
      animation: rotate 2s infinite ease-in-out;
    }

    .compass-indicator-top {
      transform-origin: 0% 900%;
    }

    .compass-indicator-bottom {
      transform-origin: 0% -900%;
    }

    .compass-indicator-left {
      transform-origin: 900% 0%;
    }

    .compass-indicator-right {
      transform-origin: -900% 0%;
    }
  </style>
  <defs>
    <clipPath id="__lottie_element_2">
      <rect width="250" height="250" x="0" y="0"></rect>
    </clipPath>
  </defs>
  <g clip-path="url(#__lottie_element_2)">

    <!-- Large star -->
    <g transform="matrix(0.7563556432723999,0,0,0.7563556432723999,191.7988739013672,22.79888153076172)" opacity="1" style="display: block;">
      <g opacity="1" transform="matrix(1,0,0,1,16.618000030517578,16.618000030517578)">
        <path class="large-star" fill="rgb(222,228,248)" fill-opacity="1" d=" M14.880000114440918,-1.4880000352859497 C7.46999979019165,-1.4880000352859497 1.4880000352859497,-7.46999979019165 1.4880000352859497,-14.880999565124512 C1.4880000352859497,-15.71399974822998 0.8330000042915344,-16.368000030517578 0,-16.368000030517578 C-0.8330000042915344,-16.368000030517578 -1.4880000352859497,-15.71399974822998 -1.4880000352859497,-14.880999565124512 C-1.4880000352859497,-7.46999979019165 -7.46999979019165,-1.4880000352859497 -14.880000114440918,-1.4880000352859497 C-15.713000297546387,-1.4880000352859497 -16.368000030517578,-0.8339999914169312 -16.368000030517578,0 C-16.368000030517578,0.8330000042915344 -15.713000297546387,1.4880000352859497 -14.880000114440918,1.4880000352859497 C-7.46999979019165,1.4880000352859497 -1.4880000352859497,7.46999979019165 -1.4880000352859497,14.880000114440918 C-1.4880000352859497,15.713000297546387 -0.8330000042915344,16.368000030517578 0,16.368000030517578 C0.8330000042915344,16.368000030517578 1.4880000352859497,15.713000297546387 1.4880000352859497,14.880000114440918 C1.4880000352859497,7.46999979019165 7.46999979019165,1.4880000352859497 14.880000114440918,1.4880000352859497 C15.71399974822998,1.4880000352859497 16.368000030517578,0.8330000042915344 16.368000030517578,0 C16.368000030517578,-0.8339999914169312 15.71399974822998,-1.4880000352859497 14.880000114440918,-1.4880000352859497z"></path>
      </g>
    </g>
    <g transform="matrix(0.9326798915863037,0,0,0.9326798915863037,52.330039978027344,215.33103942871094)" opacity="1" style="display: block;">
      <g opacity="1" transform="matrix(1,0,0,1,8.630000114440918,8.630999565124512)">
        <path class="small-star" fill="rgb(155,171,217)" fill-opacity="1" d=" M7.618000030517578,-0.7620000243186951 C3.8239998817443848,-0.7620000243186951 0.7620000243186951,-3.8239998817443848 0.7620000243186951,-7.618000030517578 C0.7620000243186951,-8.045000076293945 0.4259999990463257,-8.380000114440918 -0.0010000000474974513,-8.380000114440918 C-0.4269999861717224,-8.380000114440918 -0.7620000243186951,-8.045000076293945 -0.7620000243186951,-7.618000030517578 C-0.7620000243186951,-3.8239998817443848 -3.8239998817443848,-0.7620000243186951 -7.618000030517578,-0.7620000243186951 C-8.045000076293945,-0.7620000243186951 -8.380000114440918,-0.4259999990463257 -8.380000114440918,0.0010000000474974513 C-8.380000114440918,0.4259999990463257 -8.045000076293945,0.7599999904632568 -7.618000030517578,0.7599999904632568 C-3.8239998817443848,0.7599999904632568 -0.7620000243186951,3.8239998817443848 -0.7620000243186951,7.618000030517578 C-0.7620000243186951,8.045000076293945 -0.4269999861717224,8.380000114440918 -0.0010000000474974513,8.380000114440918 C0.4259999990463257,8.380000114440918 0.7620000243186951,8.045000076293945 0.7620000243186951,7.618000030517578 C0.7620000243186951,3.8239998817443848 3.8239998817443848,0.7599999904632568 7.618000030517578,0.7599999904632568 C8.045000076293945,0.7599999904632568 8.380000114440918,0.4259999990463257 8.380000114440918,0.0010000000474974513 C8.380000114440918,-0.4259999990463257 8.045000076293945,-0.7620000243186951 7.618000030517578,-0.7620000243186951z"></path>
      </g>
    </g>
    <g transform="matrix(1,0,0,1,25.749000549316406,178.75100708007812)" opacity="1" style="display: block;">
      <g opacity="1" transform="matrix(1,0,0,1,13.345000267028809,13.343999862670898)">
        <path class="medium-star" fill="rgb(222,228,248)" fill-opacity="1" d=" M11.904000282287598,-1.190999984741211 C5.97599983215332,-1.190999984741211 1.190999984741211,-5.974999904632568 1.190999984741211,-11.904000282287598 C1.190999984741211,-12.569999694824219 0.6679999828338623,-13.093999862670898 0.0010000000474974513,-13.093999862670898 C-0.6660000085830688,-13.093999862670898 -1.1890000104904175,-12.569999694824219 -1.1890000104904175,-11.904000282287598 C-1.1890000104904175,-5.974999904632568 -5.97599983215332,-1.190999984741211 -11.904000282287598,-1.190999984741211 C-12.571000099182129,-1.190999984741211 -13.093999862670898,-0.6679999828338623 -13.093999862670898,-0.0010000000474974513 C-13.093999862670898,0.6650000214576721 -12.571000099182129,1.190999984741211 -11.904000282287598,1.190999984741211 C-5.97599983215332,1.190999984741211 -1.1890000104904175,5.974999904632568 -1.1890000104904175,11.904000282287598 C-1.1890000104904175,12.569999694824219 -0.6660000085830688,13.093999862670898 0.0010000000474974513,13.093999862670898 C0.6679999828338623,13.093999862670898 1.190999984741211,12.569999694824219 1.190999984741211,11.904000282287598 C1.190999984741211,5.974999904632568 5.97599983215332,1.190999984741211 11.904000282287598,1.190999984741211 C12.571000099182129,1.190999984741211 13.093999862670898,0.6650000214576721 13.093999862670898,-0.0010000000474974513 C13.093999862670898,-0.6679999828338623 12.571000099182129,-1.190999984741211 11.904000282287598,-1.190999984741211z"></path>
      </g>
    </g>


    <!-- Whole compass without arrow -->
    <g class="compass" transform="matrix(1,0,0,1,44.67900085449219,32.99999237060547)" opacity="1" style="display: block;">

      <!-- Compass ring -->
      <g opacity="1" transform="matrix(1,0,0,1,80.32099914550781,19)">
        <path class="compass-ring" stroke-linecap="butt" stroke-linejoin="miter" fill-opacity="0" stroke-miterlimit="4" stroke="rgb(222,228,248)" stroke-opacity="1" stroke-width="6" d=" M0,-13 C7.179999828338623,-13 13,-7.179999828338623 13,0 C13,7.179999828338623 7.179999828338623,13 0,13 C-7.179999828338623,13 -13,7.179999828338623 -13,0 C-13,-7.179999828338623 -7.179999828338623,-13 0,-13z"></path>
      </g>

      <!-- Compas border -->
      <g opacity="1" transform="matrix(1,0,0,1,80.32099914550781,98)">
        <path class="compass-border" fill="rgb(245,247,252)" fill-opacity="1" d=" M-47.87900161743164,-47.87900161743164 C-21.43600082397461,-74.32099914550781 21.434999465942383,-74.32099914550781 47.87900161743164,-47.87900161743164 C74.32099914550781,-21.43600082397461 74.32099914550781,21.434999465942383 47.87900161743164,47.87900161743164 C21.434999465942383,74.32099914550781 -21.43600082397461,74.32099914550781 -47.87900161743164,47.87900161743164 C-74.32099914550781,21.434999465942383 -74.32099914550781,-21.43600082397461 -47.87900161743164,-47.87900161743164z"></path>
        <path class="compass-border-2" stroke-linecap="butt" stroke-linejoin="miter" fill-opacity="0" stroke-miterlimit="4" stroke="rgb(222,228,248)" stroke-opacity="1" stroke-width="6" d=" M-47.87900161743164,-47.87900161743164 C-21.43600082397461,-74.32099914550781 21.434999465942383,-74.32099914550781 47.87900161743164,-47.87900161743164 C74.32099914550781,-21.43600082397461 74.32099914550781,21.434999465942383 47.87900161743164,47.87900161743164 C21.434999465942383,74.32099914550781 -21.43600082397461,74.32099914550781 -47.87900161743164,47.87900161743164 C-74.32099914550781,21.434999465942383 -74.32099914550781,-21.43600082397461 -47.87900161743164,-47.87900161743164z"></path>
      </g>

      <!-- Compas indicators -->
      <g opacity="1" transform="matrix(1,0,0,1,132.3800048828125,99.5)">
        <path class="compass-indicator compass-indicator-right" fill="rgb(155,171,217)" fill-opacity="1" d=" M-3,2 C-3,2 1,2 1,2 C2.1010000705718994,2 3,1.100000023841858 3,0 C3,-1.100000023841858 2.1010000705718994,-2 1,-2 C1,-2 -3,-2 -3,-2 C-3,-2 -3,2 -3,2z"></path>
      </g>
      <g opacity="1" transform="matrix(1,0,0,1,28.388999938964844,99.5)">
        <path class="compass-indicator compass-indicator-left" fill="rgb(155,171,217)" fill-opacity="1" d=" M-1,2 C-1,2 3,2 3,2 C3,2 3,-2 3,-2 C3,-2 -1,-2 -1,-2 C-2.0999999046325684,-2 -3,-1.100000023841858 -3,0 C-3,1.100000023841858 -2.0999999046325684,2 -1,2z"></path>
      </g>
      <g opacity="1" transform="matrix(1,0,0,1,80.32099914550781,46.805999755859375)">
        <path class="compass-indicator compass-indicator-top" fill="rgb(155,171,217)" fill-opacity="1" d=" M2,3 C2,3 2,-1 2,-1 C2,-2.0999999046325684 1.100000023841858,-3 0,-3 C-1.100000023841858,-3 -2,-2.0999999046325684 -2,-1 C-2,-1 -2,3 -2,3 C-2,3 2,3 2,3z"></path>
      </g>
      <g opacity="1" transform="matrix(1,0,0,1,80.32099914550781,150.79800415039062)">
        <path class="compass-indicator compass-indicator-bottom" fill="rgb(155,171,217)" fill-opacity="1" d=" M2,1 C2,1 2,-3 2,-3 C2,-3 -2,-3 -2,-3 C-2,-3 -2,1 -2,1 C-2,2.1010000705718994 -1.100000023841858,3 0,3 C1.100000023841858,3 2,2.1010000705718994 2,1z"></path>
      </g>
      <g opacity="1" transform="matrix(1,0,0,1,70.3489990234375,88.27799987792969)">
        <path fill="rgb(187,200,236)" fill-opacity="1" d="M0 0"></path>
      </g>
    </g>

    <!-- Compass arrow -->
    <g transform="matrix(0.994146466255188,0.10804048925638199,-0.10804048925638199,0.994146466255188,97.89921569824219,97.60152435302734)" opacity="1" style="display: block;">
      <g opacity="1" transform="matrix(1,0,0,1,30.302000045776367,30.302000045776367)">
        <path class="compass-arrow" fill="rgb(222,228,248)" fill-opacity="1" d=" M-30.052000045776367,-30.052000045776367 C-30.052000045776367,-30.052000045776367 -10.605999946594238,10.607000350952148 -10.605999946594238,10.607000350952148 C-10.605999946594238,10.607000350952148 30.052000045776367,30.052000045776367 30.052000045776367,30.052000045776367 C30.052000045776367,30.052000045776367 10.607000350952148,-10.605999946594238 10.607000350952148,-10.605999946594238 C10.607000350952148,-10.605999946594238 -30.052000045776367,-30.052000045776367 -30.052000045776367,-30.052000045776367z"></path>
      </g>
      <g opacity="1" transform="matrix(1,0,0,1,30.426000595092773,30.301000595092773)">
        <path fill="rgb(255,255,255)" fill-opacity="1" d=" M6.188000202178955,6.186999797821045 C9.604999542236328,2.7699999809265137 9.604999542236328,-2.7690000534057617 6.188000202178955,-6.186999797821045 C2.7709999084472656,-9.604000091552734 -2.7709999084472656,-9.604000091552734 -6.188000202178955,-6.186999797821045 C-9.604999542236328,-2.7690000534057617 -9.604999542236328,2.7699999809265137 -6.188000202178955,6.186999797821045 C-2.7709999084472656,9.604000091552734 2.7709999084472656,9.604000091552734 6.188000202178955,6.186999797821045z"></path>
      </g>
    </g>
  </g>
</svg>