<svg width="251" height="250" viewBox="0 0 251 250" fill="none" xmlns="http://www.w3.org/2000/svg">
<path d="M125.113 128.1C125.113 119.687 130.2 112.462 137.475 109.35C135.013 108.287 132.3 107.712 129.438 107.712C118.175 107.712 109.038 116.85 109.038 128.112C109.038 139.375 118.175 148.512 129.438 148.512C132.288 148.512 135 147.925 137.475 146.862C130.2 143.725 125.113 136.512 125.113 128.1Z" fill="white"/>
<path d="M144.263 146.963C155.004 146.963 163.713 138.254 163.713 127.513C163.713 116.771 155.004 108.062 144.263 108.062C133.521 108.062 124.812 116.771 124.812 127.513C124.812 138.254 133.521 146.963 144.263 146.963Z" fill="#FF5758"/>
<path d="M128.75 148.475C117.238 148.475 107.863 139.112 107.863 127.587C107.863 116.075 117.225 106.7 128.75 106.7C131.6 106.7 134.375 107.262 136.975 108.387L138.025 108.837L136.975 109.287C129.65 112.437 124.913 119.612 124.913 127.587C124.913 135.562 129.65 142.75 136.975 145.887L138.025 146.337L136.975 146.787C134.375 147.912 131.6 148.475 128.75 148.475ZM128.75 107.687C117.775 107.687 108.838 116.612 108.838 127.6C108.838 138.587 117.775 147.5 128.75 147.5C131.088 147.5 133.375 147.1 135.55 146.312C128.463 142.8 123.938 135.575 123.938 127.6C123.938 119.625 128.463 112.4 135.55 108.887C133.375 108.087 131.1 107.687 128.75 107.687Z" fill="black"/>
<path d="M128.75 148.475C117.238 148.475 107.863 139.112 107.863 127.587C107.863 116.075 117.225 106.7 128.75 106.7C140.275 106.7 149.638 116.062 149.638 127.587C149.638 139.112 140.263 148.475 128.75 148.475ZM128.75 107.687C117.775 107.687 108.838 116.612 108.838 127.6C108.838 138.587 117.775 147.5 128.75 147.5C139.725 147.5 148.663 138.575 148.663 127.587C148.663 116.6 139.725 107.687 128.75 107.687Z" fill="black"/>
<path d="M102.955 100.536L102.26 101.22L112.469 111.588L113.164 110.904L102.955 100.536Z" fill="black"/>
<path d="M145.807 143.566L145.123 144.262L154.545 153.524L155.229 152.828L145.807 143.566Z" fill="black"/>
<path d="M154.559 100.519L144.646 110.244L145.329 110.94L155.241 101.215L154.559 100.519Z" fill="black"/>
<path d="M111.65 143.097L102.253 152.842L102.954 153.519L112.352 143.774L111.65 143.097Z" fill="black"/>
<path d="M105.575 126.537H91.775V127.512H105.575V126.537Z" fill="black"/>
<path d="M165.725 126.537H152.138V127.512H165.725V126.537Z" fill="black"/>
<path d="M129.237 90.0498H128.262V104.175H129.237V90.0498Z" fill="black"/>
<path d="M129.237 150.425H128.262V164.012H129.237V150.425Z" fill="black"/>
<path d="M234.888 43.9999C241.681 43.9999 247.188 38.493 247.188 31.6999C247.188 24.9068 241.681 19.3999 234.888 19.3999C228.094 19.3999 222.588 24.9068 222.588 31.6999C222.588 38.493 228.094 43.9999 234.888 43.9999Z" fill="#DBE7F7"/>
<path d="M17.0625 228.325C24.3803 228.325 30.3125 222.392 30.3125 215.075C30.3125 207.757 24.3803 201.825 17.0625 201.825C9.74473 201.825 3.8125 207.757 3.8125 215.075C3.8125 222.392 9.74473 228.325 17.0625 228.325Z" fill="#DBE7F7"/>
<path d="M130.175 36.1123C80.1 36.1123 39.5 76.7123 39.5 126.787C39.5 176.862 80.1 217.462 130.175 217.462C180.25 217.462 220.85 176.862 220.85 126.787C220.85 76.7123 180.25 36.1123 130.175 36.1123ZM130.175 205.262C86.8375 205.262 51.7 170.125 51.7 126.787C51.7 83.4498 86.8375 48.3123 130.175 48.3123C173.512 48.3123 208.65 83.4498 208.65 126.787C208.65 170.125 173.512 205.262 130.175 205.262Z" fill="#DBE7F7"/>
<path d="M129.875 217.4C117.563 217.4 105.625 214.987 94.3875 210.237C83.5375 205.65 73.7875 199.075 65.4125 190.7C57.0375 182.325 50.4625 172.575 45.875 161.725C41.125 150.487 38.7125 138.55 38.7125 126.237C38.7125 113.925 41.125 101.987 45.875 90.7497C50.4625 79.8997 57.0375 70.1497 65.4125 61.7747C73.7875 53.3997 83.5375 46.8247 94.3875 42.2372C105.625 37.4872 117.563 35.0747 129.875 35.0747C142.188 35.0747 154.125 37.4872 165.363 42.2372C176.213 46.8247 185.963 53.3997 194.338 61.7747C202.713 70.1497 209.288 79.8997 213.875 90.7497C218.625 101.987 221.038 113.925 221.038 126.237C221.038 138.55 218.625 150.487 213.875 161.725C209.288 172.575 202.713 182.325 194.338 190.7C185.963 199.075 176.213 205.65 165.363 210.237C154.125 215 142.175 217.4 129.875 217.4ZM129.875 36.0497C80.15 36.0497 39.6875 76.5122 39.6875 126.237C39.6875 175.962 80.15 216.425 129.875 216.425C179.6 216.425 220.062 175.962 220.062 126.237C220.062 76.5122 179.6 36.0497 129.875 36.0497Z" fill="black"/>
<path d="M129.875 205.2C119.212 205.2 108.875 203.112 99.1375 199C89.7375 195.025 81.2875 189.325 74.0375 182.075C66.7875 174.825 61.0875 166.375 57.1125 156.975C53 147.237 50.9125 136.9 50.9125 126.237C50.9125 115.575 53 105.237 57.1125 95.4999C61.0875 86.0999 66.7875 77.6499 74.0375 70.3999C81.2875 63.1499 89.7375 57.4499 99.1375 53.4749C108.875 49.3624 119.212 47.2749 129.875 47.2749C140.537 47.2749 150.875 49.3624 160.612 53.4749C170.012 57.4499 178.462 63.1499 185.712 70.3999C192.962 77.6499 198.662 86.0999 202.637 95.4999C206.75 105.237 208.837 115.575 208.837 126.237C208.837 136.9 206.75 147.237 202.637 156.975C198.662 166.375 192.962 174.825 185.712 182.075C178.462 189.325 170.012 195.025 160.612 199C150.875 203.112 140.537 205.2 129.875 205.2ZM129.875 48.2499C86.875 48.2499 51.8875 83.2374 51.8875 126.237C51.8875 169.237 86.875 204.225 129.875 204.225C172.875 204.225 207.862 169.237 207.862 126.237C207.862 83.2374 172.875 48.2499 129.875 48.2499Z" fill="black"/>
<path d="M131.575 231.687L131.562 230.987C132.825 230.962 134.1 230.925 135.35 230.862L135.387 231.562C134.125 231.625 132.837 231.662 131.575 231.687ZM127.762 231.675C126.5 231.65 125.212 231.6 123.95 231.537L123.987 230.837C125.237 230.912 126.512 230.95 127.775 230.975L127.762 231.675ZM139.187 231.287L139.125 230.587C140.375 230.475 141.65 230.35 142.887 230.187L142.975 230.875C141.725 231.05 140.45 231.187 139.187 231.287ZM120.15 231.262C118.887 231.15 117.612 231.012 116.362 230.85L116.45 230.162C117.687 230.325 118.962 230.462 120.212 230.575L120.15 231.262ZM146.75 230.35L146.637 229.662C147.875 229.462 149.137 229.237 150.362 228.987L150.5 229.675C149.262 229.925 148 230.15 146.75 230.35ZM112.587 230.287C111.337 230.087 110.075 229.85 108.837 229.6L108.975 228.912C110.212 229.162 111.462 229.387 112.7 229.6L112.587 230.287ZM154.237 228.875L154.075 228.2C155.3 227.912 156.537 227.6 157.75 227.262L157.937 227.937C156.712 228.262 155.462 228.575 154.237 228.875ZM105.112 228.775C103.887 228.475 102.637 228.15 101.425 227.812L101.612 227.137C102.825 227.475 104.062 227.8 105.275 228.087L105.112 228.775ZM161.587 226.85L161.375 226.187C162.575 225.812 163.787 225.4 164.962 224.987L165.2 225.65C164.012 226.062 162.787 226.462 161.587 226.85ZM97.7625 226.725C96.55 226.337 95.3375 225.925 94.1375 225.5L94.375 224.85C95.5625 225.275 96.775 225.687 97.975 226.075L97.7625 226.725ZM168.775 224.3L168.512 223.65C169.675 223.187 170.85 222.7 172 222.187L172.275 222.825C171.125 223.337 169.937 223.825 168.775 224.3ZM90.575 224.137C89.4 223.662 88.2125 223.162 87.05 222.65L87.3375 222.012C88.4875 222.525 89.6625 223.025 90.8375 223.487L90.575 224.137ZM175.725 221.237L175.425 220.612C176.55 220.062 177.687 219.487 178.8 218.9L179.125 219.512C178.012 220.112 176.862 220.687 175.725 221.237ZM83.5875 221.025C82.45 220.462 81.3 219.887 80.1875 219.287L80.5125 218.675C81.625 219.275 82.7625 219.85 83.8875 220.4L83.5875 221.025ZM182.462 217.675L182.112 217.075C183.2 216.45 184.287 215.787 185.35 215.125L185.725 215.712C184.65 216.387 183.55 217.05 182.462 217.675ZM76.85 217.425C75.75 216.787 74.6625 216.125 73.5875 215.437L73.9625 214.85C75.025 215.525 76.1125 216.187 77.2 216.825L76.85 217.425ZM188.912 213.637L188.525 213.062C189.562 212.362 190.6 211.625 191.625 210.887L192.037 211.45C191 212.187 189.962 212.925 188.912 213.637ZM70.4 213.337C69.35 212.625 68.3125 211.875 67.2875 211.125L67.7 210.562C68.7125 211.312 69.75 212.05 70.7875 212.762L70.4 213.337ZM195.062 209.15L194.625 208.6C195.612 207.825 196.6 207.012 197.562 206.2L198.012 206.737C197.05 207.55 196.062 208.362 195.062 209.15ZM64.2625 208.812C63.275 208.025 62.2875 207.212 61.325 206.387L61.775 205.862C62.725 206.675 63.7125 207.487 64.7 208.275L64.2625 208.812ZM200.875 204.212L200.4 203.7C201.325 202.85 202.25 201.975 203.15 201.1L203.637 201.6C202.737 202.487 201.812 203.362 200.875 204.212ZM58.4625 203.85C57.525 202.987 56.6 202.1 55.7 201.212L56.1875 200.712C57.075 201.6 58 202.475 58.925 203.325L58.4625 203.85ZM206.325 198.887L205.825 198.412C206.687 197.5 207.55 196.562 208.387 195.625L208.912 196.087C208.062 197.012 207.2 197.962 206.325 198.887ZM53.05 198.487C52.1875 197.562 51.325 196.612 50.4875 195.662L51.0125 195.2C51.8375 196.15 52.7 197.087 53.5625 198L53.05 198.487ZM211.375 193.175L210.837 192.737C211.637 191.762 212.425 190.762 213.187 189.762L213.737 190.187C212.975 191.187 212.175 192.187 211.375 193.175ZM48.025 192.75C47.225 191.762 46.4375 190.762 45.675 189.75L46.225 189.325C46.975 190.325 47.7625 191.325 48.5625 192.3L48.025 192.75ZM216.012 187.1L215.437 186.7C216.162 185.675 216.887 184.612 217.575 183.562L218.162 183.95C217.462 185.012 216.737 186.075 216.012 187.1ZM43.4375 186.675C42.7125 185.637 42 184.575 41.3125 183.512L41.9 183.137C42.5875 184.187 43.2875 185.25 44.0125 186.275L43.4375 186.675ZM220.187 180.712L219.587 180.35C220.237 179.275 220.875 178.162 221.487 177.062L222.1 177.4C221.487 178.525 220.85 179.637 220.187 180.712ZM39.2875 180.275C38.6375 179.187 38 178.075 37.3875 176.975L38 176.637C38.6 177.737 39.2375 178.837 39.8875 179.912L39.2875 180.275ZM223.9 174.037L223.275 173.725C223.85 172.6 224.4 171.45 224.937 170.312L225.575 170.6C225.037 171.762 224.475 172.912 223.9 174.037ZM35.625 173.612C35.0625 172.487 34.5 171.337 33.975 170.187L34.6125 169.9C35.1375 171.037 35.6875 172.187 36.25 173.3L35.625 173.612ZM227.125 167.112L226.487 166.837C226.975 165.675 227.45 164.487 227.9 163.312L228.55 163.562C228.087 164.75 227.612 165.95 227.125 167.112ZM32.45 166.7C31.9625 165.537 31.5 164.35 31.05 163.162L31.7 162.912C32.1375 164.087 32.6 165.262 33.0875 166.425L32.45 166.7ZM229.825 159.962L229.162 159.737C229.562 158.55 229.95 157.325 230.312 156.125L230.975 156.325C230.612 157.537 230.225 158.762 229.825 159.962ZM29.7875 159.562C29.3875 158.362 29 157.137 28.65 155.925L29.325 155.725C29.675 156.925 30.0625 158.15 30.45 159.337L29.7875 159.562ZM232 152.65L231.325 152.475C231.637 151.262 231.937 150.025 232.2 148.787L232.875 148.937C232.612 150.175 232.312 151.425 232 152.65ZM27.65 152.25C27.3375 151.025 27.05 149.775 26.775 148.537L27.4625 148.387C27.725 149.612 28.0125 150.862 28.325 152.075L27.65 152.25ZM233.637 145.2L232.95 145.075C233.175 143.837 233.375 142.587 233.562 141.337L234.25 141.437C234.062 142.7 233.862 143.962 233.637 145.2ZM26.0375 144.787C25.8125 143.537 25.6125 142.275 25.4375 141.025L26.125 140.925C26.3 142.175 26.5 143.425 26.725 144.662L26.0375 144.787ZM234.725 137.662L234.037 137.587C234.175 136.337 234.287 135.075 234.375 133.812L235.075 133.862C234.975 135.125 234.862 136.4 234.725 137.662ZM24.9875 137.237C24.8625 135.975 24.75 134.7 24.6625 133.437L25.3625 133.387C25.45 134.637 25.55 135.912 25.6875 137.162L24.9875 137.237ZM235.262 130.05L234.562 130.025C234.612 128.775 234.625 127.5 234.625 126.237H235.325C235.337 127.512 235.312 128.787 235.262 130.05ZM24.4625 129.637C24.425 128.512 24.4125 127.375 24.4125 126.237C24.4125 126.1 24.4125 125.962 24.4125 125.825H25.1125C25.1125 125.962 25.1125 126.1 25.1125 126.237C25.1125 127.362 25.125 128.487 25.1625 129.612L24.4625 129.637ZM234.6 123.3C234.562 122.037 234.512 120.775 234.425 119.512L235.125 119.462C235.2 120.725 235.262 122 235.3 123.275L234.6 123.3ZM25.2 122.037L24.5 122.012C24.55 120.75 24.625 119.462 24.7125 118.2L25.4125 118.25C25.3125 119.512 25.25 120.787 25.2 122.037ZM234.112 115.737C233.987 114.487 233.837 113.225 233.675 111.975L234.362 111.875C234.537 113.125 234.687 114.4 234.812 115.662L234.112 115.737ZM25.7625 114.487L25.075 114.412C25.2125 113.15 25.375 111.887 25.5625 110.637L26.25 110.737C26.0625 111.975 25.9 113.237 25.7625 114.487ZM233.1 108.237C232.887 107 232.65 105.75 232.387 104.512L233.075 104.362C233.337 105.6 233.575 106.862 233.787 108.112L233.1 108.237ZM26.875 106.987L26.1875 106.862C26.4125 105.612 26.675 104.362 26.95 103.125L27.625 103.275C27.3625 104.512 27.1 105.75 26.875 106.987ZM231.537 100.825C231.237 99.5998 230.9 98.3748 230.55 97.1623L231.225 96.9748C231.575 98.1873 231.912 99.4248 232.212 100.662L231.537 100.825ZM28.525 99.5998L27.85 99.4248C28.175 98.1998 28.525 96.9623 28.8875 95.7498L29.55 95.9498C29.1875 97.1623 28.85 98.3873 28.525 99.5998ZM229.437 93.5498C229.05 92.3623 228.625 91.1498 228.187 89.9748L228.837 89.7373C229.275 90.9248 229.7 92.1373 230.087 93.3373L229.437 93.5498ZM30.725 92.3373L30.0625 92.1123C30.475 90.9123 30.9125 89.6998 31.3625 88.5123L32.0125 88.7623C31.5625 89.9373 31.125 91.1498 30.725 92.3373ZM226.812 86.4373C226.337 85.2748 225.825 84.1123 225.312 82.9748L225.95 82.6873C226.475 83.8373 226.975 85.0123 227.462 86.1748L226.812 86.4373ZM33.4375 85.2498L32.8 84.9748C33.3 83.8123 33.825 82.6373 34.3625 81.4873L34.9875 81.7873C34.45 82.9248 33.925 84.0873 33.4375 85.2498ZM223.687 79.5623C223.125 78.4373 222.537 77.3123 221.937 76.2123L222.55 75.8748C223.15 76.9873 223.75 78.1123 224.312 79.2498L223.687 79.5623ZM36.6625 78.3748L36.0375 78.0498C36.6125 76.9248 37.225 75.7873 37.85 74.6873L38.4625 75.0248C37.8375 76.1248 37.2375 77.2498 36.6625 78.3748ZM220.075 72.9248C219.437 71.8498 218.762 70.7623 218.087 69.6998L218.675 69.3248C219.362 70.3873 220.025 71.4748 220.675 72.5623L220.075 72.9248ZM40.375 71.7623L39.775 71.3998C40.4375 70.3248 41.125 69.2373 41.825 68.1748L42.4125 68.5623C41.7125 69.6123 41.025 70.6873 40.375 71.7623ZM215.987 66.5623C215.275 65.5373 214.525 64.4998 213.775 63.4873L214.337 63.0748C215.1 64.0873 215.85 65.1248 216.562 66.1623L215.987 66.5623ZM44.55 65.4373L43.9875 65.0373C44.725 64.0123 45.4875 62.9748 46.2625 61.9748L46.8125 62.3998C46.05 63.3873 45.2875 64.4123 44.55 65.4373ZM211.45 60.4998C210.662 59.5248 209.837 58.5498 209.025 57.5998L209.55 57.1373C210.375 58.0873 211.2 59.0748 212 60.0623L211.45 60.4998ZM49.175 59.4248L48.6375 58.9748C49.45 57.9998 50.2875 57.0248 51.125 56.0873L51.65 56.5498C50.8125 57.4873 49.9875 58.4623 49.175 59.4248ZM206.487 54.7873C205.625 53.8623 204.737 52.9498 203.85 52.0623L204.337 51.5748C205.237 52.4623 206.125 53.3873 206.987 54.3123L206.487 54.7873ZM54.225 53.7748L53.725 53.2873C54.6 52.3748 55.5 51.4623 56.4125 50.5873L56.9 51.0873C55.9875 51.9623 55.0875 52.8623 54.225 53.7748ZM201.125 49.4373C200.2 48.5873 199.25 47.7373 198.3 46.9123L198.75 46.3873C199.712 47.2123 200.662 48.0748 201.587 48.9373L201.125 49.4373ZM59.65 48.4873L59.1875 47.9748C60.125 47.1248 61.0875 46.2873 62.0625 45.4748L62.5125 46.0123C61.55 46.8123 60.5875 47.6498 59.65 48.4873ZM195.387 44.4873C194.412 43.6998 193.4 42.9248 192.387 42.1748L192.8 41.6123C193.812 42.3748 194.837 43.1498 195.825 43.9498L195.387 44.4873ZM65.45 43.6248L65.025 43.0748C66.025 42.2998 67.05 41.5248 68.075 40.7873L68.4875 41.3498C67.4625 42.0873 66.4375 42.8498 65.45 43.6248ZM189.3 39.9498C188.262 39.2373 187.2 38.5248 186.137 37.8498L186.512 37.2623C187.575 37.9373 188.65 38.6498 189.687 39.3748L189.3 39.9498ZM71.575 39.1873L71.1875 38.6123C72.2375 37.9123 73.3125 37.2123 74.3875 36.5498L74.75 37.1373C73.6875 37.7873 72.625 38.4873 71.575 39.1873ZM182.912 35.8748C181.825 35.2373 180.712 34.6123 179.612 34.0123L179.95 33.3998C181.062 33.9998 182.187 34.6373 183.275 35.2748L182.912 35.8748ZM78.0125 35.1998L77.6625 34.5998C78.7625 33.9748 79.8875 33.3623 81 32.7748L81.325 33.3873C80.2125 33.9623 79.1 34.5748 78.0125 35.1998ZM176.237 32.2748C175.112 31.7123 173.95 31.1748 172.8 30.6498L173.087 30.0123C174.25 30.5373 175.412 31.0748 176.537 31.6373L176.237 32.2748ZM84.7 31.6873L84.4 31.0623C85.5375 30.5123 86.7 29.9873 87.8625 29.4873L88.1375 30.1248C86.9875 30.6248 85.8375 31.1498 84.7 31.6873ZM169.312 29.1498C168.15 28.6748 166.95 28.2123 165.762 27.7873L166 27.1373C167.187 27.5748 168.387 28.0373 169.562 28.5123L169.312 29.1498ZM91.625 28.6748L91.375 28.0248C92.55 27.5623 93.75 27.1123 94.95 26.6998L95.175 27.3623C94 27.7748 92.8 28.2248 91.625 28.6748ZM162.175 26.5498C160.975 26.1623 159.762 25.7873 158.55 25.4498L158.737 24.7748C159.95 25.1248 161.187 25.4998 162.387 25.8873L162.175 26.5498ZM98.775 26.1748L98.5625 25.5123C99.775 25.1373 101 24.7748 102.225 24.4498L102.412 25.1248C101.2 25.4373 99.975 25.7998 98.775 26.1748ZM154.887 24.4873C153.662 24.1873 152.425 23.9123 151.187 23.6498L151.325 22.9623C152.562 23.2248 153.812 23.4998 155.05 23.7998L154.887 24.4873ZM106.087 24.1873L105.925 23.5123C107.162 23.2248 108.412 22.9623 109.65 22.7123L109.787 23.3998C108.562 23.6373 107.312 23.8998 106.087 24.1873ZM147.475 22.9498C146.237 22.7373 144.975 22.5498 143.725 22.3873L143.812 21.6998C145.062 21.8623 146.337 22.0623 147.587 22.2623L147.475 22.9498ZM113.525 22.7498L113.412 22.0623C114.662 21.8623 115.937 21.6873 117.187 21.5373L117.275 22.2248C116.025 22.3748 114.762 22.5498 113.525 22.7498ZM139.962 21.9623C138.712 21.8373 137.437 21.7498 136.187 21.6748L136.225 20.9748C137.487 21.0498 138.762 21.1498 140.025 21.2748L139.962 21.9623ZM121.05 21.8498L120.987 21.1498C122.25 21.0498 123.525 20.9623 124.787 20.8998L124.825 21.5998C123.575 21.6623 122.3 21.7373 121.05 21.8498ZM132.4 21.5123C131.137 21.4873 129.875 21.4748 128.612 21.4873L128.6 20.7873C129.862 20.7748 131.15 20.7748 132.412 20.8123L132.4 21.5123Z" fill="black"/>
<path d="M129.5 175.475C116.812 175.475 104.85 170.563 95.825 161.65C86.8 152.738 81.75 140.862 81.575 128.188C81.575 127.975 81.575 127.762 81.575 127.55C81.575 119.125 83.7875 110.85 87.975 103.6C92.1125 96.4375 98.0625 90.4375 105.187 86.2375C112.525 81.9125 120.925 79.625 129.5 79.625C142.3 79.625 154.337 84.6125 163.387 93.6625C172.437 102.712 177.425 114.75 177.425 127.55C177.425 135.887 175.25 144.1 171.137 151.287C167.15 158.262 161.425 164.188 154.575 168.4C147.062 173.025 138.387 175.475 129.5 175.475ZM129.5 80.5875C112.787 80.5875 97.2 89.5875 88.825 104.075C84.725 111.175 82.5499 119.287 82.5499 127.537C82.5499 127.75 82.5499 127.962 82.5499 128.162C82.8874 153.7 103.95 174.487 129.5 174.487C138.2 174.487 146.7 172.087 154.075 167.55C168.087 158.925 176.45 143.962 176.45 127.537C176.45 101.65 155.387 80.5875 129.5 80.5875Z" fill="black"/>
<path d="M128.817 174.321L127.842 174.337L128.529 216.458L129.504 216.442L128.817 174.321Z" fill="black"/>
<path d="M128.745 35.9121L127.771 35.9268L128.429 79.8474L129.404 79.8327L128.745 35.9121Z" fill="black"/>
<path d="M82.3483 126.513L39.2651 127.035L39.2769 128.01L82.3601 127.488L82.3483 126.513Z" fill="black"/>
<path d="M219.821 126.523L176.726 127.027L176.737 128.002L219.833 127.497L219.821 126.523Z" fill="black"/>
<path d="M154.741 167.736L153.906 168.239L175.638 204.298L176.473 203.795L154.741 167.736Z" fill="black"/>
<path d="M84.1041 48.3312L83.2655 48.8286L105.529 86.3612L106.368 85.8638L84.1041 48.3312Z" fill="black"/>
<path d="M105.745 168.915L85.7375 205.273L86.5917 205.743L106.599 169.385L105.745 168.915Z" fill="black"/>
<path d="M153.463 86.8251L152.613 86.3501L152.825 85.9626L174.138 47.1001L175 47.5751L153.675 86.4376L153.463 86.8251Z" fill="black"/>
<path d="M170.922 150.209L170.433 151.053L207.686 172.649L208.175 171.805L170.922 150.209Z" fill="black"/>
<path d="M51.0055 82.4787L50.5234 83.3262L88.0946 104.697L88.5767 103.849L51.0055 82.4787Z" fill="black"/>
<path d="M88.7512 151.982L51.8066 173.494L52.2973 174.336L89.2418 152.824L88.7512 151.982Z" fill="black"/>
<path d="M208.079 80.6895L170.079 103.625L170.583 104.459L208.583 81.5242L208.079 80.6895Z" fill="black"/>
<path d="M25.85 239.888C24.425 239.888 22.9875 239.725 21.5625 239.413C17.45 238.5 13.95 236.038 11.6875 232.488C9.42504 228.938 8.68754 224.725 9.60004 220.613C10.3375 217.3 12.3125 214.475 15.175 212.65C18.0375 210.825 21.4375 210.238 24.75 210.963C27.425 211.563 29.7125 213.163 31.175 215.475C32.65 217.788 33.125 220.538 32.5375 223.213C31.5375 227.688 27.1 230.513 22.625 229.513C19 228.7 16.7 225.1 17.5125 221.475C18.175 218.525 21.1125 216.65 24.0625 217.313C25.2375 217.575 26.2375 218.275 26.875 219.288C27.5125 220.3 27.725 221.5 27.475 222.675C27.2625 223.638 26.6875 224.463 25.85 224.988C25.0125 225.513 24.025 225.688 23.075 225.475C21.4375 225.113 20.4 223.475 20.7625 221.838L21.7125 222.05C21.4625 223.163 22.175 224.275 23.2875 224.525C24 224.688 24.725 224.55 25.3375 224.163C25.95 223.775 26.375 223.175 26.525 222.463C26.725 221.55 26.5625 220.6 26.0625 219.813C25.5625 219.025 24.775 218.475 23.8625 218.263C21.4375 217.725 19.0125 219.263 18.475 221.688C17.7875 224.788 19.75 227.875 22.85 228.563C26.7875 229.438 30.7125 226.95 31.5875 223C32.125 220.575 31.6875 218.1 30.3625 216C29.0375 213.913 26.9625 212.463 24.55 211.925C21.4875 211.25 18.35 211.8 15.7125 213.475C13.075 215.15 11.2375 217.763 10.5625 220.825C8.80004 228.775 13.825 236.688 21.775 238.463C26.625 239.538 31.6 238.663 35.7875 236C39.975 233.338 42.875 229.2 43.9625 224.35L44.9125 224.563C43.775 229.663 40.725 234.025 36.3125 236.825C33.1375 238.85 29.525 239.888 25.85 239.888Z" fill="black"/>
<path d="M230.975 36.5124C228.625 36.5124 226.362 35.7499 224.462 34.3124C220.625 31.3999 219.875 25.8999 222.787 22.0624C225.15 18.9499 229.612 18.3374 232.725 20.7124C235.262 22.6374 235.75 26.2624 233.825 28.7999C232.25 30.8749 229.287 31.2749 227.212 29.6999C226.387 29.0749 225.862 28.1624 225.725 27.1374C225.587 26.1124 225.85 25.0999 226.475 24.2749C226.987 23.5999 227.737 23.1624 228.587 23.0374C229.437 22.9249 230.275 23.1374 230.95 23.6624C231.512 24.0874 231.875 24.7124 231.975 25.4124C232.075 26.1124 231.887 26.8124 231.462 27.3749L230.687 26.7874C230.962 26.4249 231.075 25.9874 231.012 25.5499C230.95 25.1124 230.725 24.7124 230.362 24.4374C229.887 24.0749 229.312 23.9249 228.725 23.9999C228.137 24.0749 227.612 24.3874 227.262 24.8499C226.8 25.4624 226.6 26.2249 226.7 26.9874C226.8 27.7499 227.2 28.4374 227.812 28.8999C229.45 30.1499 231.8 29.8249 233.05 28.1874C234.65 26.0874 234.237 23.0624 232.137 21.4624C229.45 19.4249 225.612 19.9499 223.562 22.6249C220.975 26.0374 221.637 30.9124 225.05 33.5124C227.137 35.0999 229.725 35.7874 232.325 35.4249C234.925 35.0749 237.237 33.7249 238.825 31.6374C240.825 28.9999 241.687 25.7374 241.237 22.4499C240.787 19.1624 239.087 16.2499 236.45 14.2499C229.587 9.03739 219.762 10.3749 214.537 17.2374L213.762 16.6499C219.3 9.36239 229.75 7.93739 237.037 13.4749C239.887 15.6374 241.712 18.7874 242.2 22.3249C242.687 25.8624 241.762 29.3874 239.587 32.2374C237.837 34.5374 235.3 36.0124 232.437 36.3999C231.95 36.4874 231.462 36.5124 230.975 36.5124Z" fill="black"/>
</svg>
