<svg xmlns="http://www.w3.org/2000/svg" viewBox="0 0 250 250" width="250" height="250" preserveAspectRatio="xMidYMid meet" style="width: 100%; height: 100%; transform: translate3d(0px, 0px, 0px);">
  <style>
    @keyframes flicker {
      0% { 
        transform: scale(1);
      }
      50% { 
        transform: scale(1.5);
      }
      100% { 
        transform: scale(1);
      }
    }

    @keyframes moveKey {
      0% {
        transform: translate(0, 0);
      }
      75% {
        transform: translate(70px, 0);
      }
      100% {
        transform: translate(70px, 0);
      }
    }

    @keyframes rotateKey {
      0% {
        transform: translate(0, 0);
      }
      35% {
        transform: translate(70px, 0);
      }
      50% {
        transform: translate(70px, 0) rotateX(60deg);
      }
      65% {
        transform: translate(70px, 0) rotateX(0deg);
      }
      100% {
        transform: translate(0, 0);
      }
    }

    .small-star {
      animation: flicker 2s infinite;
    }

    .medium-star {
      animation: flicker 3s infinite;
    }

    .large-star {
      animation: flicker 2.5s infinite;
    }

    .key-body, .key-middle, .key-end {
      animation: rotateKey 2.5s;
      <!-- animation: rotateKey 2.5s infinite; -->
    } 

  </style>
  <defs>
    <clipPath id="__lottie_element_2">
      <rect width="250" height="250" x="0" y="0"></rect>
    </clipPath>
    <clipPath id="__lottie_element_16">
      <path d="M0,0 L250,0 L250,250 L0,250z"></path>
    </clipPath>
    <clipPath id="__lottie_element_17">
      <path fill="#ffffff" clip-rule="nonzero" d=" M133.5,50 C133.5,50 -15,64 -15,64 C-15,64 3.5,200 3.5,200 C3.5,200 171,220.5 171,220.5 C171,220.5 219.25,160 219.25,160 C219.25,160 219,133 219,133 C219,133 229.5,114.25 216.25,103.5 C203,92.75 133.5,50 133.5,50" fill-opacity="1"></path>
    </clipPath>
  </defs>


  <g clip-path="url(#__lottie_element_2)">

    <!-- Lock -->
    <g transform="matrix(1,0,0,1,203.75,102.75)" opacity="1" style="display: block;">
      <g opacity="1" transform="matrix(1,0,0,1,9.75,16.25)">
        <path fill="rgb(155,171,217)" fill-opacity="1" d=" M0,-16 C5.247000217437744,-16 9.5,-8.836000442504883 9.5,0 C9.5,8.836999893188477 5.247000217437744,16 0,16 C-5.247000217437744,16 -9.5,8.836999893188477 -9.5,0 C-9.5,-8.836000442504883 -5.247000217437744,-16 0,-16z"></path>
      </g>
      <g opacity="1" transform="matrix(1,0,0,1,10.25,40.25)">
        <path fill="rgb(155,171,217)" fill-opacity="1" d=" M-5.428999900817871,-17 C-5.428999900817871,-17 4.427999973297119,-17 4.427999973297119,-17 C4.427999973297119,-17 6,17 6,17 C6,17 -6,12 -6,12 C-6,12 -5.428999900817871,-17 -5.428999900817871,-17z"></path>
      </g>
    </g>

    <!-- Small star -->
    <g transform="matrix(0.6403704285621643,0,0,0.6403704285621643,168.04888916015625,44.549896240234375)" opacity="1" style="display: block;">
      <g opacity="1" transform="matrix(1,0,0,1,13.343999862670898,13.343999862670898)">
        <path class="small-star" fill="rgb(222,228,248)" fill-opacity="1" d=" M11.904999732971191,-1.190999984741211 C5.97599983215332,-1.190999984741211 1.190999984741211,-5.97599983215332 1.190999984741211,-11.904000282287598 C1.190999984741211,-12.569999694824219 0.6669999957084656,-13.093999862670898 0.0010000000474974513,-13.093999862670898 C-0.6660000085830688,-13.093999862670898 -1.190000057220459,-12.569999694824219 -1.190000057220459,-11.904000282287598 C-1.190000057220459,-5.97599983215332 -5.974999904632568,-1.190999984741211 -11.904000282287598,-1.190999984741211 C-12.569999694824219,-1.190999984741211 -13.093999862670898,-0.6679999828338623 -13.093999862670898,-0.0010000000474974513 C-13.093999862670898,0.6660000085830688 -12.569999694824219,1.190999984741211 -11.904000282287598,1.190999984741211 C-5.974999904632568,1.190999984741211 -1.190000057220459,5.97599983215332 -1.190000057220459,11.904000282287598 C-1.190000057220459,12.571000099182129 -0.6660000085830688,13.093999862670898 0.0010000000474974513,13.093999862670898 C0.6669999957084656,13.093999862670898 1.190999984741211,12.571000099182129 1.190999984741211,11.904000282287598 C1.190999984741211,5.97599983215332 5.97599983215332,1.190999984741211 11.904999732971191,1.190999984741211 C12.571000099182129,1.190999984741211 13.093999862670898,0.6660000085830688 13.093999862670898,-0.0010000000474974513 C13.093999862670898,-0.6679999828338623 12.571000099182129,-1.190999984741211 11.904999732971191,-1.190999984741211z"></path>
      </g>
    </g>

    <!-- Medium star -->
    <g transform="matrix(0.9462666511535645,0,0,0.9462666511535645,91.2127685546875,23.213773727416992)" opacity="1" style="display: block;">
      <g opacity="1" transform="matrix(1,0,0,1,8.630000114440918,8.630999565124512)">
        <path class="medium-star" fill="rgb(155,171,217)" fill-opacity="1" d=" M7.618000030517578,-0.7620000243186951 C3.8239998817443848,-0.7620000243186951 0.7620000243186951,-3.825000047683716 0.7620000243186951,-7.61899995803833 C0.7620000243186951,-8.045999526977539 0.4259999990463257,-8.380999565124512 -0.0010000000474974513,-8.380999565124512 C-0.4269999861717224,-8.380999565124512 -0.7620000243186951,-8.045999526977539 -0.7620000243186951,-7.61899995803833 C-0.7620000243186951,-3.825000047683716 -3.8239998817443848,-0.7620000243186951 -7.618000030517578,-0.7620000243186951 C-8.045000076293945,-0.7620000243186951 -8.380000114440918,-0.4269999861717224 -8.380000114440918,0 C-8.380000114440918,0.4259999990463257 -8.045000076293945,0.7620000243186951 -7.618000030517578,0.7620000243186951 C-3.8239998817443848,0.7620000243186951 -0.7620000243186951,3.8239998817443848 -0.7620000243186951,7.618000030517578 C-0.7620000243186951,8.045000076293945 -0.4269999861717224,8.380999565124512 -0.0010000000474974513,8.380999565124512 C0.4259999990463257,8.380999565124512 0.7620000243186951,8.045000076293945 0.7620000243186951,7.618000030517578 C0.7620000243186951,3.8239998817443848 3.8239998817443848,0.7620000243186951 7.618000030517578,0.7620000243186951 C8.045000076293945,0.7620000243186951 8.380000114440918,0.4259999990463257 8.380000114440918,0 C8.380000114440918,-0.4269999861717224 8.045000076293945,-0.7620000243186951 7.618000030517578,-0.7620000243186951z"></path>
      </g>
    </g>

    <!-- Large star -->
    <g transform="matrix(0.9998775720596313,0,0,0.9998775720596313,42.252037048339844,26.75203514099121)" opacity="1" style="display: block;">
      <g opacity="1" transform="matrix(1,0,0,1,16.618000030517578,16.618000030517578)">
        <path class="large-star" fill="rgb(222,228,248)" fill-opacity="1" d=" M14.880999565124512,-1.4880000352859497 C7.46999979019165,-1.4880000352859497 1.4880000352859497,-7.46999979019165 1.4880000352859497,-14.880999565124512 C1.4880000352859497,-15.71399974822998 0.8339999914169312,-16.368000030517578 0.0010000000474974513,-16.368000030517578 C-0.8330000042915344,-16.368000030517578 -1.4880000352859497,-15.71399974822998 -1.4880000352859497,-14.880999565124512 C-1.4880000352859497,-7.46999979019165 -7.46999979019165,-1.4880000352859497 -14.880999565124512,-1.4880000352859497 C-15.71399974822998,-1.4880000352859497 -16.368000030517578,-0.8339999914169312 -16.368000030517578,0 C-16.368000030517578,0.8330000042915344 -15.71399974822998,1.4880000352859497 -14.880999565124512,1.4880000352859497 C-7.46999979019165,1.4880000352859497 -1.4880000352859497,7.46999979019165 -1.4880000352859497,14.880000114440918 C-1.4880000352859497,15.713000297546387 -0.8330000042915344,16.368000030517578 0.0010000000474974513,16.368000030517578 C0.8339999914169312,16.368000030517578 1.4880000352859497,15.713000297546387 1.4880000352859497,14.880000114440918 C1.4880000352859497,7.46999979019165 7.46999979019165,1.4880000352859497 14.880999565124512,1.4880000352859497 C15.71399974822998,1.4880000352859497 16.368000030517578,0.8330000042915344 16.368000030517578,0 C16.368000030517578,-0.8339999914169312 15.71399974822998,-1.4880000352859497 14.880999565124512,-1.4880000352859497z"></path>
      </g>
    </g>

    
    <g clip-path="url(#__lottie_element_16)" transform="matrix(1,0,0,1,0,0)" opacity="1" style="display: block;">
      <g clip-path="url(#__lottie_element_17)">
        <g class="key" transform="matrix(1,0,0,1,25.75,87.75)" opacity="1" style="display: block;">

          <!-- Key body -->
          <g opacity="1" transform="matrix(1,0,0,1,84.41100311279297,32.619998931884766)">
            <path class="key-body" fill="rgb(222,228,248)" fill-opacity="1" d=" M-57.18600082397461,-32.369998931884766 C-43.507999420166016,-32.369998931884766 -32.207000732421875,-20.152999877929688 -30.448999404907227,-4.315999984741211 C-30.448999404907227,-4.315999984741211 79.81199645996094,-4.315999984741211 79.81199645996094,-4.315999984741211 C79.81199645996094,-4.315999984741211 79.84600067138672,-4.315999984741211 79.84600067138672,-4.315999984741211 C82.2300033569336,-4.315999984741211 84.16100311279297,-2.382999897003174 84.16100311279297,0 C84.16100311279297,2.384000062942505 82.2300033569336,4.315999984741211 79.84600067138672,4.315999984741211 C79.84600067138672,4.315999984741211 -30.448999404907227,4.315999984741211 -30.448999404907227,4.315999984741211 C-32.207000732421875,20.152999877929688 -43.507999420166016,32.369998931884766 -57.18600082397461,32.369998931884766 C-72.08399963378906,32.369998931884766 -84.16100311279297,17.87700080871582 -84.16100311279297,0 C-84.16100311279297,-17.87700080871582 -72.08399963378906,-32.369998931884766 -57.18600082397461,-32.369998931884766z M-36.68600082397461,0.1080000028014183 C-36.68600082397461,-13.418999671936035 -45.86399841308594,-24.385000228881836 -57.18600082397461,-24.385000228881836 C-68.50800323486328,-24.385000228881836 -77.68800354003906,-13.418999671936035 -77.68800354003906,0.1080000028014183 C-77.68800354003906,13.635000228881836 -68.50800323486328,24.60099983215332 -57.18600082397461,24.60099983215332 C-45.86399841308594,24.60099983215332 -36.68600082397461,13.635000228881836 -36.68600082397461,0.1080000028014183z"></path>
          </g>

          <!-- Key middle ring -->
          <g opacity="1" transform="matrix(1,0,0,1,86.56999969482422,32.619998931884766)">
            <path class="key-middle" fill="rgb(155,171,217)" fill-opacity="1" d=" M-0.0010000000474974513,-10.789999961853027 C2.382999897003174,-10.789999961853027 4.315000057220459,-8.857999801635742 4.315000057220459,-6.473999977111816 C4.315000057220459,-6.473999977111816 4.315000057220459,-6.4730000495910645 4.315000057220459,-6.4730000495910645 C4.315000057220459,-6.4730000495910645 4.315999984741211,-6.4730000495910645 4.315999984741211,-6.4730000495910645 C4.315999984741211,-6.4730000495910645 4.315999984741211,6.361000061035156 4.315999984741211,6.361000061035156 C4.316999912261963,6.3979997634887695 4.316999912261963,6.435999870300293 4.316999912261963,6.473999977111816 C4.316999912261963,8.857000350952148 2.384999990463257,10.789999961853027 0.0010000000474974513,10.789999961853027 C-2.381999969482422,10.789999961853027 -4.314000129699707,8.857000350952148 -4.314000129699707,6.473999977111816 C-4.314000129699707,6.473999977111816 -4.315999984741211,6.473999977111816 -4.315999984741211,6.473999977111816 C-4.315999984741211,6.473999977111816 -4.315999984741211,-6.39900016784668 -4.315999984741211,-6.39900016784668 C-4.315999984741211,-6.423999786376953 -4.316999912261963,-6.448999881744385 -4.316999912261963,-6.473999977111816 C-4.316999912261963,-8.857999801635742 -2.384000062942505,-10.789999961853027 -0.0010000000474974513,-10.789999961853027z"></path>
          </g>

          <!-- Key end -->
          <g opacity="1" transform="matrix(1,0,0,1,142.677001953125,46.41600036621094)">
            <path class="key-end" fill="rgb(155,171,217)" fill-opacity="1" d=" M-9.767999649047852,9.479999542236328 C-9.45199966430664,4.361000061035156 -5.198999881744385,0.3070000112056732 0,0.3070000112056732 C5.198999881744385,0.3070000112056732 9.451000213623047,4.361000061035156 9.767999649047852,9.479999542236328 C13.586999893188477,8.072999954223633 16.31100082397461,4.4019999504089355 16.31100082397461,0.09300000220537186 C16.31100082397461,0.09300000220537186 16.31100082397461,-9.479999542236328 16.31100082397461,-9.479999542236328 C16.31100082397461,-9.479999542236328 -16.312000274658203,-9.479999542236328 -16.312000274658203,-9.479999542236328 C-16.312000274658203,-9.479999542236328 -16.312000274658203,0.09300000220537186 -16.312000274658203,0.09300000220537186 C-16.312000274658203,4.4019999504089355 -13.588000297546387,8.072999954223633 -9.767999649047852,9.479999542236328z"></path>
          </g>
        </g>
      </g>
    </g>
  </g>
</svg>