<svg xmlns="http://www.w3.org/2000/svg" viewBox="0 0 250 250" width="250" height="250" preserveAspectRatio="xMidYMid meet" style="width: 100%; height: 100%; transform: translate3d(0px, 0px, 0px);">
  <style>
    @keyframes flicker {
      0% { 
        transform: scale(1);
      }
      50% { 
        transform: scale(1.5);
      }
      100% { 
        transform: scale(1);
      }
    }

    @keyframes magnify {
      0% {
        transform: scale(1);
      }
      50% {
        transform: scale(0.7);
      }
      100% {
        transform: scale(1);
      }
    }

    .small-star {
      animation: flicker 2s infinite;
    }

    .medium-star {
      animation: flicker 3s infinite;
    }

    .large-star {
      animation: flicker 2.5s infinite;
    }

    .glass-ring {
      animation: magnify 1.5s;
    }

    .glass-tight-handle, .glass-wide-handle {
      transform-box: fill-box;
      transform-origin: -50% -50%;
      animation: magnify 1.5s;
    }

  </style>
  <defs>
    <clipPath id="__lottie_element_2">
      <rect width="250" height="250" x="0" y="0"></rect>
    </clipPath>
  </defs>
  <g clip-path="url(#__lottie_element_2)">

      <!-- Magnifying glass -->
    <g transform="matrix(0.9999110698699951,0,0,0.9999110698699951,55.37943649291992,44.381919860839844)" opacity="1" style="display: block;">
      <g opacity="0.25" transform="matrix(1,0,0,1,65.4000015258789,65.4000015258789)">
        <path fill="rgb(204,213,244)" fill-opacity="1" d=" M-38.26599884033203,-38.26599884033203 C-17.131999969482422,-59.400001525878906 17.131999969482422,-59.400001525878906 38.26599884033203,-38.26599884033203 C59.400001525878906,-17.131999969482422 59.400001525878906,17.131999969482422 38.26599884033203,38.26599884033203 C17.131999969482422,59.400001525878906 -17.131999969482422,59.400001525878906 -38.26599884033203,38.26599884033203 C-59.400001525878906,17.131999969482422 -59.400001525878906,-17.131999969482422 -38.26599884033203,-38.26599884033203z"></path>
        <g opacity="1" transform="matrix(1,0,0,1,0,0)"></g>
      </g>

      <!-- Glass ring -->
      <g opacity="1" transform="matrix(1,0,0,1,65.4000015258789,65.4000015258789)">
        <path class="glass-ring" stroke-linecap="butt" stroke-linejoin="miter" fill-opacity="0" stroke-miterlimit="4" stroke="rgb(222,228,248)" stroke-opacity="1" stroke-width="6" d=" M-38.26599884033203,-38.26599884033203 C-17.131999969482422,-59.400001525878906 17.131999969482422,-59.400001525878906 38.26599884033203,-38.26599884033203 C59.400001525878906,-17.131999969482422 59.400001525878906,17.131999969482422 38.26599884033203,38.26599884033203 C17.131999969482422,59.400001525878906 -17.131999969482422,59.400001525878906 -38.26599884033203,38.26599884033203 C-59.400001525878906,17.131999969482422 -59.400001525878906,-17.131999969482422 -38.26599884033203,-38.26599884033203z"></path>
      </g>

      <!-- Glass tight handle -->
      <g opacity="1" transform="matrix(1,0,0,1,138.6580047607422,138.65899658203125)">
        <path class="glass-tight-handle" fill="rgb(222,228,248)" fill-opacity="1" d=" M-35.229000091552734,-35.229000091552734 C-35.229000091552734,-35.229000091552734 -35.229000091552734,-35.229000091552734 -35.229000091552734,-35.229000091552734 C-32.7869987487793,-37.66999816894531 -28.82699966430664,-37.66999816894531 -26.384000778198242,-35.229000091552734 C-26.384000778198242,-35.229000091552734 35.229000091552734,26.384000778198242 35.229000091552734,26.384000778198242 C37.66999816894531,28.82699966430664 37.66999816894531,32.7869987487793 35.229000091552734,35.229000091552734 C32.7869987487793,37.66999816894531 28.82699966430664,37.66999816894531 26.384000778198242,35.229000091552734 C26.384000778198242,35.229000091552734 -35.229000091552734,-26.384000778198242 -35.229000091552734,-26.384000778198242 C-37.66999816894531,-28.82699966430664 -37.67100143432617,-32.7869987487793 -35.229000091552734,-35.229000091552734z"></path>
        <g opacity="1" transform="matrix(1,0,0,1,0,0)"></g>
      </g>

      <!-- Wide handle -->
      <g opacity="1" transform="matrix(1,0,0,1,150.00799560546875,150.00799560546875)">
        <path class="glass-wide-handle" fill="rgb(222,228,248)" fill-opacity="1" d=" M-24.17799949645996,-23.579999923706055 C-24.17799949645996,-23.579999923706055 -23.579999923706055,-24.17799949645996 -23.579999923706055,-24.17799949645996 C-19.674999237060547,-28.08300018310547 -13.343000411987305,-28.08300018310547 -9.437999725341797,-24.17799949645996 C-9.437999725341797,-24.17799949645996 24.177000045776367,9.437999725341797 24.177000045776367,9.437999725341797 C28.08300018310547,13.343000411987305 28.08300018310547,19.674999237060547 24.177000045776367,23.579999923706055 C24.177000045776367,23.579999923706055 23.579999923706055,24.17799949645996 23.579999923706055,24.17799949645996 C19.674999237060547,28.08300018310547 13.343000411987305,28.08300018310547 9.437000274658203,24.17799949645996 C9.437000274658203,24.17799949645996 -24.17799949645996,-9.437000274658203 -24.17799949645996,-9.437000274658203 C-28.08300018310547,-13.343000411987305 -28.08300018310547,-19.674999237060547 -24.17799949645996,-23.579999923706055z"></path>
        <g opacity="1" transform="matrix(1,0,0,1,0,0)"></g>
      </g>
    </g>

    <!-- Stars -->
    <g transform="matrix(0.6610875725746155,0,0,0.6610875725746155,163.38204956054688,24.38204574584961)" opacity="1" style="display: block;">
      <g opacity="1" transform="matrix(1,0,0,1,16.618000030517578,16.618000030517578)">
        <path class="medium-star" fill="rgb(222,228,248)" fill-opacity="1" d=" M14.880000114440918,-1.4880000352859497 C7.46999979019165,-1.4880000352859497 1.4880000352859497,-7.46999979019165 1.4880000352859497,-14.880999565124512 C1.4880000352859497,-15.71399974822998 0.8330000042915344,-16.368000030517578 0,-16.368000030517578 C-0.8330000042915344,-16.368000030517578 -1.4880000352859497,-15.71399974822998 -1.4880000352859497,-14.880999565124512 C-1.4880000352859497,-7.46999979019165 -7.46999979019165,-1.4880000352859497 -14.880000114440918,-1.4880000352859497 C-15.713000297546387,-1.4880000352859497 -16.368000030517578,-0.8339999914169312 -16.368000030517578,0 C-16.368000030517578,0.8330000042915344 -15.713000297546387,1.4880000352859497 -14.880000114440918,1.4880000352859497 C-7.46999979019165,1.4880000352859497 -1.4880000352859497,7.46999979019165 -1.4880000352859497,14.880000114440918 C-1.4880000352859497,15.713000297546387 -0.8330000042915344,16.368000030517578 0,16.368000030517578 C0.8330000042915344,16.368000030517578 1.4880000352859497,15.713000297546387 1.4880000352859497,14.880000114440918 C1.4880000352859497,7.46999979019165 7.46999979019165,1.4880000352859497 14.880000114440918,1.4880000352859497 C15.71399974822998,1.4880000352859497 16.368000030517578,0.8330000042915344 16.368000030517578,0 C16.368000030517578,-0.8339999914169312 15.71399974822998,-1.4880000352859497 14.880000114440918,-1.4880000352859497z"></path>
        <g opacity="1" transform="matrix(1,0,0,1,0,0)"></g>
      </g>
    </g>
    <g transform="matrix(0.721468985080719,0,0,0.721468985080719,27.46599769592285,128.46771240234375)" opacity="1" style="display: block;">
      <g opacity="1" transform="matrix(1,0,0,1,13.345000267028809,13.343999862670898)">
        <path class="medium-star" fill="rgb(222,228,248)" fill-opacity="1" d=" M11.904000282287598,-1.190999984741211 C5.97599983215332,-1.190999984741211 1.190999984741211,-5.974999904632568 1.190999984741211,-11.904000282287598 C1.190999984741211,-12.569999694824219 0.6679999828338623,-13.093999862670898 0.0010000000474974513,-13.093999862670898 C-0.6660000085830688,-13.093999862670898 -1.1890000104904175,-12.569999694824219 -1.1890000104904175,-11.904000282287598 C-1.1890000104904175,-5.974999904632568 -5.97599983215332,-1.190999984741211 -11.904000282287598,-1.190999984741211 C-12.571000099182129,-1.190999984741211 -13.093999862670898,-0.6679999828338623 -13.093999862670898,-0.0010000000474974513 C-13.093999862670898,0.6650000214576721 -12.571000099182129,1.190999984741211 -11.904000282287598,1.190999984741211 C-5.97599983215332,1.190999984741211 -1.1890000104904175,5.974999904632568 -1.1890000104904175,11.904000282287598 C-1.1890000104904175,12.569999694824219 -0.6660000085830688,13.093999862670898 0.0010000000474974513,13.093999862670898 C0.6679999828338623,13.093999862670898 1.190999984741211,12.569999694824219 1.190999984741211,11.904000282287598 C1.190999984741211,5.974999904632568 5.97599983215332,1.190999984741211 11.904000282287598,1.190999984741211 C12.571000099182129,1.190999984741211 13.093999862670898,0.6650000214576721 13.093999862670898,-0.0010000000474974513 C13.093999862670898,-0.6679999828338623 12.571000099182129,-1.190999984741211 11.904000282287598,-1.190999984741211z"></path>
        <g opacity="1" transform="matrix(1,0,0,1,0,0)"></g>
      </g>
    </g>
    <g transform="matrix(0.9775598645210266,0,0,0.9775598645210266,49.94268035888672,160.9446563720703)" opacity="1" style="display: block;">
      <g opacity="1" transform="matrix(1,0,0,1,8.630000114440918,8.630999565124512)">
        <path class="small-star" fill="rgb(222,228,248)" fill-opacity="1" d=" M7.618000030517578,-0.7620000243186951 C3.8239998817443848,-0.7620000243186951 0.7620000243186951,-3.8239998817443848 0.7620000243186951,-7.618000030517578 C0.7620000243186951,-8.045000076293945 0.4259999990463257,-8.380999565124512 -0.0010000000474974513,-8.380999565124512 C-0.4269999861717224,-8.380999565124512 -0.7620000243186951,-8.045000076293945 -0.7620000243186951,-7.618000030517578 C-0.7620000243186951,-3.8239998817443848 -3.8239998817443848,-0.7620000243186951 -7.618000030517578,-0.7620000243186951 C-8.045000076293945,-0.7620000243186951 -8.380000114440918,-0.4259999990463257 -8.380000114440918,0.0010000000474974513 C-8.380000114440918,0.4259999990463257 -8.045000076293945,0.7599999904632568 -7.618000030517578,0.7599999904632568 C-3.8239998817443848,0.7599999904632568 -0.7620000243186951,3.8239998817443848 -0.7620000243186951,7.618000030517578 C-0.7620000243186951,8.045000076293945 -0.4269999861717224,8.380999565124512 -0.0010000000474974513,8.380999565124512 C0.4259999990463257,8.380999565124512 0.7620000243186951,8.045000076293945 0.7620000243186951,7.618000030517578 C0.7620000243186951,3.8239998817443848 3.8239998817443848,0.7599999904632568 7.618000030517578,0.7599999904632568 C8.045000076293945,0.7599999904632568 8.380000114440918,0.4259999990463257 8.380000114440918,0.0010000000474974513 C8.380000114440918,-0.4259999990463257 8.045000076293945,-0.7620000243186951 7.618000030517578,-0.7620000243186951z"></path>
        <g opacity="1" transform="matrix(1,0,0,1,0,0)"></g>
      </g>
    </g>
    <g transform="matrix(0.7016850113868713,0,0,0.7016850113868713,97.55351257324219,87.40435791015625)" opacity="1" style="display: block;">
      <g opacity="1" transform="matrix(1,0,0,1,12.75,12.25)">
        <path class="small-star" fill="rgb(155,172,214)" fill-opacity="1" d=" M0.3199999928474426,-12 C0.3199999928474426,-12 -0.39100000262260437,-12 -0.39100000262260437,-12 C-0.8169999718666077,-12 -1.1720000505447388,-11.692999839782715 -1.1720000505447388,-11.282999992370605 C-1.5269999504089355,-6.468999862670898 -6.7829999923706055,-1.5529999732971191 -11.789999961853027,-1.1089999675750732 C-12.180000305175781,-1.0750000476837158 -12.5,-0.734000027179718 -12.5,-0.3580000102519989 C-12.5,-0.3580000102519989 -12.5,0.3580000102519989 -12.5,0.3580000102519989 C-12.5,0.7680000066757202 -12.180000305175781,1.0750000476837158 -11.753999710083008,1.1089999675750732 C-6.7829999923706055,1.4509999752044678 -1.7050000429153442,6.401000022888184 -1.1720000505447388,11.21500015258789 C-1.1360000371932983,11.659000396728516 -0.7459999918937683,12 -0.24899999797344208,12 C-0.24899999797344208,12 0.24899999797344208,12 0.24899999797344208,12 C0.7459999918937683,12 1.1360000371932983,11.659000396728516 1.1720000505447388,11.180999755859375 C1.5980000495910645,5.7870001792907715 6.107999801635742,1.3489999771118164 11.718999862670898,1.0750000476837158 C12.180000305175781,1.0420000553131104 12.5,0.699999988079071 12.5,0.25600001215934753 C12.5,0.25600001215934753 12.5,-0.3580000102519989 12.5,-0.3580000102519989 C12.5,-0.8019999861717224 12.145000457763672,-1.1440000534057617 11.718999862670898,-1.1779999732971191 C6.072000026702881,-1.4509999752044678 1.5269999504089355,-5.922999858856201 1.1720000505447388,-11.38599967956543 C1.1009999513626099,-11.692999839782715 0.7459999918937683,-12 0.3199999928474426,-12z"></path>
        <g opacity="1" transform="matrix(1,0,0,1,0,0)"></g>
      </g>
    </g>
    <g transform="matrix(0.9998833537101746,0,0,0.9998833537101746,115.7520751953125,113.7520751953125)" opacity="1" style="display: block;">
      <g opacity="1" transform="matrix(1,0,0,1,17.75,17.75)">
        <path class="large-star" fill="rgb(155,171,217)" fill-opacity="1" d=" M0.5070000290870667,-17.5 C0.5070000290870667,-17.5 -0.5070000290870667,-17.5 -0.5070000290870667,-17.5 C-1.100000023841858,-17.5 -1.590999960899353,-17.045000076293945 -1.6260000467300415,-16.451000213623047 C-2.115000009536743,-9.42300033569336 -9.458000183105469,-2.2899999618530273 -16.486000061035156,-1.6260000467300415 C-17.045000076293945,-1.590999960899353 -17.5,-1.1009999513626099 -17.5,-0.5070000290870667 C-17.5,-0.5070000290870667 -17.5,0.5419999957084656 -17.5,0.5419999957084656 C-17.5,1.1360000371932983 -17.045000076293945,1.590999960899353 -16.451000213623047,1.6610000133514404 C-9.493000030517578,2.1500000953674316 -2.359999895095825,9.387999534606934 -1.6260000467300415,16.34600067138672 C-1.555999994277954,17.010000228881836 -0.9959999918937683,17.5 -0.367000013589859,17.5 C-0.367000013589859,17.5 0.3319999873638153,17.5 0.3319999873638153,17.5 C0.996999979019165,17.5 1.555999994277954,16.97599983215332 1.6260000467300415,16.31100082397461 C2.2200000286102295,8.444000244140625 8.513999938964844,2.009999990463257 16.381000518798828,1.6260000467300415 C17.010000228881836,1.590999960899353 17.5,1.065999984741211 17.5,0.47200000286102295 C17.5,0.47200000286102295 17.5,-0.4020000100135803 17.5,-0.4020000100135803 C17.5,-1.031000018119812 17.010000228881836,-1.555999994277954 16.381000518798828,-1.555999994277954 C8.479000091552734,-1.940999984741211 2.1510000228881836,-8.444000244140625 1.6260000467300415,-16.381000518798828 C1.590999960899353,-17.045000076293945 1.1009999513626099,-17.5 0.5070000290870667,-17.5z"></path>
        <g opacity="1" transform="matrix(1,0,0,1,0,0)"></g>
      </g>
    </g>
  </g>
</svg>