<svg xmlns="http://www.w3.org/2000/svg" width="216" height="184" viewBox="0 0 217 185" fill="none">
    <path d="M195.4 27.2644C189.375 16.9786 180.32 7.92306 168.665 3.60332C148.697 -3.81387 124.755 4.43547 109.546 19.1097C101.481 26.9024 95.1326 36.4586 85.5369 42.5362C69.2942 52.8287 47.5038 50.8825 30.0061 59.1386C14.1795 66.6111 3.39762 82.3734 1.50555 98.8451C-0.397798 115.316 6.16243 132.096 17.8994 144.254C22.0872 148.595 26.8918 152.359 32.1271 155.525C44.8292 163.205 59.5328 166.805 74.3503 166.369L83.8884 166.088C103.509 165.576 122.856 161.136 140.638 153.062C158.207 145.009 173.866 133.569 185.478 118.828C206.127 92.6152 211.896 55.4154 195.4 27.2644Z" fill="#DEE5F9"/>
    <path d="M213.08 82.3814C213.08 82.4896 206.389 82.5821 198.139 82.5821C189.888 82.5821 183.197 82.4896 183.197 82.3814C183.197 82.2732 189.883 82.175 198.139 82.175C206.395 82.1762 213.08 82.2675 213.08 82.3814Z" fill="#E0E0E0"/>
    <path d="M200.049 89.0295H194.992V99.6942H200.049V89.0295Z" fill="#FAFAFA"/>
    <path d="M213.08 103.88C213.08 103.994 206.389 104.085 198.139 104.085C189.888 104.085 183.197 103.992 183.197 103.88C183.197 103.766 189.883 103.679 198.139 103.679C206.395 103.679 213.08 103.766 213.08 103.88Z" fill="#E0E0E0"/>
    <path d="M200.049 110.528H194.992V121.192H200.049V110.528Z" fill="#FAFAFA"/>
    <path d="M213.08 125.382C213.08 125.496 206.389 125.589 198.139 125.589C189.888 125.589 183.197 125.496 183.197 125.382C183.197 125.268 189.883 125.176 198.139 125.176C206.395 125.177 213.08 125.268 213.08 125.382Z" fill="#E0E0E0"/>
    <path d="M200.049 132.031H194.992V142.696H200.049V132.031Z" fill="#FAFAFA"/>
    <path d="M183.835 174.367H176.9V184.355H183.835V174.367Z" fill="#066FDE"/>
    <path d="M140.103 174.241C140.103 174.241 202.902 174.529 202.902 174.241V76.3329H156.885C154.535 76.334 152.209 76.8008 150.04 77.7063C147.872 78.6128 145.905 79.94 144.255 81.6122C142.604 83.2844 141.3 85.2667 140.421 87.4463C139.541 89.6259 139.104 91.9577 139.132 94.3064L140.103 174.241Z" fill="#7DBCFF"/>
    <path d="M203.059 76.3329H204.57C207.799 76.3329 210.896 77.6161 213.179 79.8994C215.462 82.1828 216.745 85.2802 216.745 88.5096V174.367H190.857V88.5141C190.856 86.9129 191.172 85.3264 191.785 83.8471C192.399 82.3677 193.299 81.0236 194.432 79.8915C195.565 78.7595 196.911 77.863 198.392 77.2519C199.871 76.643 201.458 76.3295 203.059 76.3329Z" fill="#066FDE"/>
    <path d="M182.32 101.031H149.539V112.811H182.32V101.031Z" fill="#066FDE"/>
    <path d="M147.026 173.137H140.092V184.355H147.026V173.137Z" fill="#7DBCFF"/>
    <path d="M190.511 174.367H183.576V184.355H190.511V174.367Z" fill="#7DBCFF"/>
    <path d="M215.673 174.367H208.738V184.355H215.673V174.367Z" fill="#066FDE"/>
    <path d="M162.456 76.3329L161.952 76.3656C161.617 76.3656 161.119 76.3656 160.47 76.4682C158.567 76.6452 156.71 77.1481 154.979 77.9566C153.736 78.5621 152.581 79.3367 151.547 80.2568C150.326 81.3607 149.274 82.6372 148.424 84.0466C147.445 85.676 146.715 87.4418 146.258 89.2876C145.742 91.3646 145.524 93.5047 145.608 95.6437C145.608 113.715 145.635 138.921 145.651 167.463L145.516 167.328H185.577L185.442 167.463C185.442 140.351 185.48 116.574 185.49 99.5688C185.49 95.319 185.49 91.4976 185.534 88.1465C185.751 84.7953 186.547 81.9471 187.77 79.9332C188.301 79.0357 188.997 78.2486 189.823 77.6104C190.433 77.1526 191.119 76.8099 191.852 76.5979L192.269 76.4783L192.637 76.4129C192.829 76.3746 193.021 76.3521 193.217 76.343H193.688L193.222 76.3972C193.027 76.4073 192.833 76.4344 192.643 76.4783L192.274 76.5483L191.862 76.6678C191.143 76.8899 190.469 77.2383 189.87 77.6961C189.059 78.3332 188.376 79.1169 187.856 80.0077C186.654 82.0102 185.875 84.8472 185.69 88.1769C185.647 91.5168 185.69 95.3506 185.69 99.5948C185.69 116.6 185.717 140.377 185.74 167.488V167.629H145.406V167.488C145.406 138.947 145.439 113.74 145.456 95.6697C145.377 93.5149 145.602 91.3612 146.127 89.2707C146.6 87.4124 147.348 85.6354 148.346 83.9981C149.208 82.5751 150.275 81.2875 151.513 80.1757C152.561 79.2556 153.728 78.4809 154.984 77.8754C156.727 77.0737 158.598 76.5821 160.511 76.4242C161.004 76.3746 161.499 76.3487 161.995 76.3487L162.456 76.3329Z" fill="#066FDE"/>
    <path d="M184.681 123.271C184.681 123.352 175.872 123.412 165.012 123.412C154.153 123.412 145.35 123.352 145.35 123.271C145.35 123.189 154.153 123.13 165.012 123.13C175.872 123.131 184.681 123.195 184.681 123.271Z" fill="#066FDE"/>
    <path d="M148.857 130.471H149.008H149.474H151.293L158.163 130.439L182.319 130.374H182.449V130.504C182.449 137.174 182.449 144.537 182.449 152.273L182.302 152.418H164.274H148.845H148.736V152.31C148.736 145.656 148.779 140.204 148.796 136.399C148.796 134.526 148.796 133.059 148.796 132.068C148.796 131.581 148.796 131.202 148.796 130.937C148.796 130.672 148.796 130.558 148.796 130.558C148.796 130.558 148.796 130.699 148.796 130.958C148.796 131.218 148.796 131.613 148.796 132.112C148.796 133.13 148.796 134.607 148.823 136.491C148.823 140.281 148.856 145.695 148.883 152.333L148.769 152.219H164.198H182.225C182.349 152.089 182.063 152.392 182.09 152.354C182.09 144.618 182.09 137.255 182.09 130.585L182.22 130.715L158.15 130.649L151.247 130.617H149.407H148.926L148.857 130.471Z" fill="#066FDE"/>
    <path d="M180.746 94H151.254C150.562 94 150 94.1365 150 94.3054V95.6947C150 95.8632 150.562 96 151.254 96H180.746C181.438 96 182 95.8635 182 95.6947V94.3054C182 94.1365 181.439 94 180.746 94Z" fill="white"/>
    <path d="M213.081 170.117C213.081 170.117 213.081 169.928 213.081 169.576C213.081 169.224 213.081 168.693 213.081 168.011C213.081 166.631 213.081 164.611 213.081 162.012C213.081 156.804 213.081 149.29 213.037 140C212.994 130.709 213.01 119.665 212.994 107.398C212.994 104.33 212.994 101.19 212.994 97.9782V93.1059C212.994 91.4822 213.108 89.7987 212.523 88.2337C211.98 86.6562 210.993 85.2681 209.681 84.2387C208.346 83.1912 206.729 82.5653 205.036 82.4413C204.614 82.4086 204.185 82.3985 203.752 82.403C203.319 82.4086 202.891 82.43 202.464 82.447C201.611 82.5394 200.774 82.7491 199.978 83.0694C199.187 83.4155 198.445 83.8666 197.775 84.4112C197.11 84.975 196.531 85.6335 196.059 86.3653C195.48 87.2651 195.072 88.263 194.857 89.3105C194.695 90.3648 194.639 91.4326 194.689 92.4993V98.8768C194.689 103.096 194.689 107.224 194.689 111.263C194.689 119.336 194.689 127.028 194.689 134.207C194.689 148.565 194.656 160.87 194.646 170.1L194.565 170.019L208.234 170.062H211.878H212.82H213.145H212.836H211.91H208.283L194.565 170.106H194.397V170.03C194.397 160.8 194.37 148.495 194.353 134.137C194.353 126.959 194.353 119.266 194.353 111.193C194.353 107.154 194.353 103.026 194.353 98.8069V92.5162C194.3 91.4303 194.359 90.3422 194.527 89.2677C194.748 88.1841 195.168 87.1501 195.766 86.2198C196.258 85.4677 196.854 84.7901 197.536 84.206C198.228 83.6456 198.994 83.181 199.81 82.8258C200.632 82.4954 201.495 82.2801 202.377 82.1865C202.815 82.1865 203.258 82.1324 203.693 82.1436C204.126 82.1549 204.559 82.1436 204.997 82.1763C206.729 82.3083 208.384 82.9453 209.757 84.0086C211.129 85.0719 212.161 86.5141 212.722 88.1581C212.997 88.9576 213.154 89.7931 213.188 90.6377C213.226 91.4766 213.188 92.2941 213.188 93.1172V97.9894C213.188 101.209 213.188 104.357 213.188 107.431C213.188 119.72 213.155 130.792 213.145 140.086C213.134 149.382 213.112 156.869 213.095 162.077C213.095 164.665 213.095 166.673 213.095 168.032C213.095 168.709 213.095 169.223 213.095 169.58C213.098 169.938 213.081 170.117 213.081 170.117Z" fill="#7DBCFF"/>
    <path d="M216.26 122.947C216.26 123.022 210.581 123.088 203.58 123.088C196.58 123.088 190.9 123.022 190.9 122.947C190.9 122.871 196.574 122.806 203.58 122.806C210.586 122.806 216.26 122.866 216.26 122.947Z" fill="#7DBCFF"/>
    <path d="M51.2835 48.9397C51.942 48.9904 52.605 48.907 53.232 48.6961C53.8589 48.4841 54.4362 48.1493 54.9301 47.7095C55.424 47.2697 55.8243 46.7353 56.1062 46.1377C56.3881 45.5389 56.547 44.8906 56.573 44.2298C56.6756 41.5552 56.7681 38.849 56.7681 38.849C56.7681 38.849 60.8284 38.4701 61.0991 34.4582C61.3697 30.4463 61.2727 21.1788 61.2727 21.1788C59.0503 20.0591 56.5685 19.5528 54.0844 19.7118C51.6004 19.8708 49.2043 20.6894 47.142 22.0831L46.5195 22.5048L46.7304 44.0945C46.7439 45.3258 47.2186 46.5075 48.0621 47.4051C48.9055 48.3026 50.0545 48.8506 51.2835 48.9397Z" fill="#B78876"/>
    <path d="M59.3832 28.243C59.302 28.1607 59.2456 28.057 59.2242 27.9431C59.2016 27.8303 59.2129 27.7119 59.258 27.6059C59.302 27.4988 59.3775 27.4075 59.4734 27.3432C59.5692 27.2789 59.682 27.2451 59.7981 27.2451C59.9131 27.2451 60.027 27.2789 60.1228 27.3432C60.2198 27.4075 60.2942 27.4988 60.3382 27.6059C60.3822 27.7119 60.3946 27.8303 60.372 27.9431C60.3495 28.057 60.2942 28.1607 60.2131 28.243C60.1026 28.3513 59.9537 28.4122 59.7981 28.4122C59.6414 28.4133 59.4925 28.3524 59.3832 28.243Z" fill="#263238"/>
    <path d="M60.9472 27.5677C60.8829 27.6319 60.5086 27.3027 59.9515 27.27C59.3945 27.2373 58.9829 27.4921 58.9232 27.4166C58.8634 27.341 58.9672 27.2655 59.1509 27.1403C59.3968 26.9813 59.6877 26.9092 59.9797 26.9351C60.2706 26.9565 60.548 27.0704 60.7702 27.2598C60.9314 27.4042 60.9799 27.535 60.9472 27.5677Z" fill="#263238"/>
    <path d="M54.1435 27.498C54.2371 27.5645 54.3092 27.6581 54.3509 27.7663C54.3927 27.8746 54.4006 27.9919 54.3746 28.1046C54.3487 28.2174 54.2912 28.32 54.2066 28.3989C54.1232 28.479 54.0172 28.532 53.9033 28.5511C53.7894 28.5703 53.6721 28.5556 53.5673 28.5094C53.4613 28.4621 53.3722 28.3854 53.3102 28.2884C53.2482 28.1903 53.2166 28.0775 53.2189 27.9614C53.2211 27.8464 53.2583 27.7336 53.3249 27.64C53.4162 27.5149 53.5526 27.4303 53.7048 27.4033C53.8582 27.3762 54.0149 27.41 54.1435 27.498Z" fill="#263238"/>
    <path d="M54.9159 27.6905C54.846 27.7559 54.4728 27.4255 53.9203 27.3872C53.3678 27.3488 52.946 27.6149 52.8919 27.5383C52.8378 27.4627 52.9348 27.3815 53.114 27.262C53.3621 27.1053 53.653 27.0331 53.9451 27.0534C54.2371 27.0748 54.5145 27.1898 54.7378 27.3804C54.8945 27.5281 54.9486 27.6589 54.9159 27.6905Z" fill="#263238"/>
    <path d="M56.8876 31.9845C57.1807 31.8886 57.4886 31.8446 57.7964 31.8548C57.9373 31.8548 58.0557 31.8221 58.0726 31.7409C58.0839 31.5966 58.0557 31.4534 57.9915 31.3237C57.8719 30.9448 57.7535 30.566 57.6227 30.1702C57.2687 29.1926 57.0139 28.1823 56.8594 27.1539C57.3172 28.0898 57.6802 29.0697 57.9418 30.0777C58.0614 30.478 58.1753 30.8569 58.2824 31.2369C58.3658 31.4274 58.3816 31.6417 58.3264 31.8424C58.3015 31.8954 58.2655 31.9427 58.2204 31.98C58.1753 32.0172 58.1234 32.0442 58.0659 32.0589C57.9836 32.0679 57.9001 32.0679 57.8167 32.0589C57.5066 32.0893 57.192 32.0634 56.8876 31.9845Z" fill="#A36957"/>
    <path d="M55.0416 32.4885C55.372 32.6351 56.5785 33.4312 57.7049 33.4413C57.5008 33.721 57.2065 33.9228 56.8717 34.013C56.5368 34.1032 56.1816 34.0773 55.8636 33.9397C54.6898 33.4515 55.0416 32.4885 55.0416 32.4885Z" fill="white"/>
    <path d="M56.7854 38.7892C54.9295 38.7125 53.1377 38.0833 51.6426 36.9817C51.6426 36.9817 52.7251 39.9483 56.7313 39.8345L56.7854 38.7892Z" fill="#A36957"/>
    <path d="M46.7636 27.4638C46.7647 27.3071 46.7049 27.156 46.5967 27.0432C46.4884 26.9293 46.3407 26.8628 46.184 26.8572C45.4364 26.8572 44.2085 27.1334 44.0946 29.2014C43.9322 32.1523 46.7692 31.416 46.8019 31.3348C46.8346 31.2536 46.7748 28.6117 46.7636 27.4638Z" fill="#B78876"/>
    <path d="M46.131 30.1714C46.131 30.1714 46.0769 30.2041 45.9901 30.2413C45.8661 30.2886 45.7296 30.2886 45.6056 30.2413C45.4184 30.1116 45.2696 29.9346 45.1737 29.7282C45.079 29.5219 45.0407 29.293 45.0644 29.0675C45.0734 28.8149 45.1376 28.5668 45.2538 28.3424C45.2865 28.2522 45.3395 28.1699 45.4105 28.1056C45.4816 28.0402 45.5673 27.994 45.6597 27.9692C45.7206 27.9557 45.7826 27.9647 45.8379 27.9929C45.892 28.0211 45.9348 28.0684 45.9574 28.1259C45.9901 28.2071 45.9574 28.2669 45.9574 28.2714C45.9574 28.277 46.0217 28.2274 46.0059 28.1034C45.9935 28.0301 45.9574 27.9636 45.9033 27.914C45.8649 27.8801 45.8198 27.8553 45.7713 27.8395C45.7229 27.8238 45.6721 27.8181 45.6214 27.8215C45.5019 27.8407 45.3902 27.8914 45.2955 27.9658C45.2008 28.0403 45.1275 28.1384 45.0801 28.2489C44.9403 28.4969 44.8625 28.7766 44.8535 29.0607C44.8253 29.3223 44.8738 29.5873 44.9956 29.8218C45.1162 30.0564 45.3045 30.2492 45.5357 30.3766C45.6135 30.4059 45.6969 30.4161 45.7792 30.4082C45.8616 30.3991 45.9416 30.3721 46.0115 30.3281C46.1209 30.2413 46.1423 30.2041 46.131 30.1714Z" fill="#A36957"/>
    <path d="M60.7255 19.608C57.2627 18.3462 53.5113 18.1049 49.9166 18.9134C49.9166 18.9134 46.1741 20.1672 45.9858 22.1078C45.8877 23.6943 46.0445 25.2887 46.173 26.8729L46.2914 28.0884L46.4346 30.1215H47.7426L47.9253 25.7296C47.9253 25.7296 50.4116 24.0235 50.4623 21.3433C51.6745 21.1843 57.6134 20.4841 61.6648 21.8665V20.9216C61.6591 20.634 61.5667 20.3533 61.3987 20.1187C61.2318 19.8853 60.9972 19.7072 60.7255 19.608Z" fill="#263238"/>
    <path d="M54.9975 25.4896C54.9975 25.6227 54.339 25.6317 53.5926 25.8099C52.845 25.988 52.2677 26.2451 52.1876 26.1391C52.1075 26.032 52.642 25.5517 53.4866 25.3566C54.33 25.1604 55.0246 25.3645 54.9975 25.4896Z" fill="#263238"/>
    <path d="M61.0401 25.1657C60.9432 25.2954 60.4245 25.0789 59.775 25.1657C59.1255 25.2525 58.6936 25.5976 58.564 25.5006C58.4343 25.4036 58.8132 24.7327 59.6453 24.603C60.4775 24.4734 61.1484 25.0574 61.0401 25.1657Z" fill="#263238"/>
    <path d="M46.0429 23.381C45.8376 21.1901 46.1906 19.501 47.1118 18.4253C47.6575 17.8649 48.3386 17.4567 49.0896 17.2391C49.8405 17.0214 50.6355 17.0034 51.3955 17.1849C51.869 17.4195 52.3753 17.5796 52.8974 17.663C53.7566 17.663 54.3993 16.9402 55.0477 16.3776C55.5438 15.8758 56.2192 15.5917 56.9251 15.5872C57.0976 15.5951 57.2667 15.6379 57.4223 15.7123C57.578 15.7879 57.7155 15.8939 57.8294 16.0235C57.9422 16.1543 58.0267 16.3065 58.0786 16.47C58.1316 16.6347 58.1485 16.8083 58.1316 16.9797C58.7123 16.7159 59.3336 16.5524 59.9695 16.496C60.2864 16.4723 60.6055 16.5197 60.9009 16.6369C61.1963 16.7542 61.4624 16.9369 61.6756 17.1725C61.8751 17.415 61.98 17.7217 61.971 18.0351C61.962 18.3486 61.8391 18.6485 61.6248 18.8785C61.8673 18.6846 62.1683 18.5786 62.4784 18.5786C62.7885 18.5786 63.0895 18.6846 63.332 18.8785C63.5631 19.0894 63.7244 19.3657 63.7954 19.6701C63.8664 19.9745 63.8439 20.2937 63.73 20.5857C63.6048 20.8755 63.4053 21.1269 63.1516 21.3152C62.8979 21.5035 62.599 21.6208 62.2856 21.6558C61.9732 21.684 61.6598 21.6434 61.3643 21.5362C61.0689 21.4303 60.8017 21.2611 60.5784 21.0412L58.7698 20.2903L50.0604 20.7909L46.0429 23.381Z" fill="#263238"/>
    <path d="M49.1211 24.2841C49.1538 23.9797 50.7121 22.1508 50.9433 21.95C51.1755 21.7493 51.4755 21.6433 51.7822 21.6546C52.4023 21.7008 52.9864 21.9591 53.4386 22.3853C53.8806 22.8126 54.3643 23.1938 54.8841 23.5219C55.4975 23.8387 56.1944 23.9537 56.8766 23.8523C57.5565 23.7497 58.2026 23.4926 58.7664 23.099C59.3978 23.4452 60.0992 23.6459 60.8186 23.6843C61.3034 23.7373 61.7917 23.6211 62.1987 23.3539C62.5731 23.0314 62.8189 22.586 62.8922 22.0978C62.9948 21.7087 62.9801 21.2983 62.8493 20.9172C62.6824 20.553 62.396 20.2564 62.0375 20.0783C61.6823 19.9024 61.3079 19.7682 60.9223 19.678L51.0639 19.9215L49.6341 21.9568L49.1211 24.2841Z" fill="#263238"/>
    <path d="M76.8427 182.065L77.1246 177.22L68.0611 176.629L67.5684 183.711L68.1096 183.78C70.6049 184.084 80.8095 185.139 82.5155 184.745C84.4324 184.301 76.8427 182.065 76.8427 182.065Z" fill="#7DBCFF"/>
    <g opacity="0.5">
        <path opacity="0.5" d="M70.8596 183.852C70.7739 183.08 70.4086 182.365 69.8312 181.844C69.2618 181.33 68.5199 181.045 67.752 181.048L67.584 183.581L70.8596 183.852Z" fill="white"/>
    </g>
    <g opacity="0.4">
        <path opacity="0.4" d="M80.54 183.289C80.54 183.289 83.1932 184.248 82.8244 184.669C82.4568 185.091 72.1102 184.409 67.5684 183.711V183.51L79.6357 184.403C79.6357 184.404 80.0145 183.278 80.54 183.289Z" fill="white"/>
    </g>
    <path opacity="0.6" d="M67.4551 183.495C67.5058 183.508 67.5588 183.517 67.6118 183.522L68.0561 183.576L69.6809 183.754C71.0723 183.901 72.9937 184.069 75.0944 184.208C77.1951 184.349 79.1492 184.436 80.5406 184.479L82.197 184.517H82.798C82.7473 184.509 82.6965 184.509 82.6469 184.517H82.1981L80.5473 184.442C79.1503 184.376 77.2289 184.279 75.1339 184.138C73.0388 183.998 71.0847 183.841 69.7204 183.717L68.0955 183.571L67.6468 183.539L67.4551 183.495Z" fill="white"/>
    <path opacity="0.6" d="M79.6523 184.545C79.7425 184.278 79.8621 184.022 80.0098 183.782C80.1868 183.56 80.3909 183.359 80.6164 183.187C80.3368 183.289 80.0955 183.474 79.9241 183.716C79.7516 183.959 79.6569 184.248 79.6523 184.545Z" fill="white"/>
    <path opacity="0.6" d="M77.0645 183.013C77.0915 183.013 77.2268 182.882 77.3734 182.682C77.52 182.482 77.6226 182.309 77.5955 182.292C77.5685 182.276 77.4332 182.417 77.2866 182.617C77.184 182.731 77.1073 182.866 77.0645 183.013Z" fill="white"/>
    <path opacity="0.6" d="M76.3773 182.574C76.3773 182.601 76.5509 182.514 76.7133 182.385C76.8756 182.255 76.9997 182.131 76.9783 182.103C76.9568 182.076 76.8102 182.168 76.6479 182.298C76.4855 182.428 76.3389 182.553 76.3773 182.574Z" fill="white"/>
    <path opacity="0.6" d="M75.9492 181.692C76.0981 181.755 76.2582 181.786 76.4205 181.784C76.5773 181.82 76.7396 181.82 76.8964 181.784C76.7475 181.721 76.5874 181.689 76.4251 181.692C76.2683 181.657 76.106 181.657 75.9492 181.692Z" fill="white"/>
    <path opacity="0.6" d="M75.8359 181.074C75.9915 181.194 76.181 181.261 76.3772 181.264C76.5565 181.308 76.7459 181.295 76.9184 181.226C76.5565 181.183 76.1956 181.132 75.8359 181.074Z" fill="white"/>
    <path d="M77.4277 182.244C77.6172 182.289 77.8134 182.299 78.0073 182.276C78.2215 182.264 78.4335 182.231 78.641 182.178C78.7662 182.151 78.8868 182.112 79.0041 182.059C79.0762 182.023 79.1315 181.961 79.1608 181.885C79.1721 181.842 79.171 181.797 79.1574 181.755C79.1439 181.714 79.1191 181.675 79.0853 181.647C78.8699 181.528 78.6196 181.485 78.3772 181.525C78.1336 181.567 77.9126 181.69 77.7491 181.874C77.6487 181.98 77.5754 182.108 77.5326 182.247C77.51 182.297 77.501 182.351 77.5055 182.404C77.5777 182.228 77.6781 182.064 77.8032 181.922C77.9532 181.777 78.1404 181.677 78.3445 181.635C78.5779 181.573 78.8271 181.605 79.0379 181.727C79.1247 181.803 79.0819 181.905 78.9725 181.961C78.8665 182.014 78.7526 182.054 78.6376 182.08C78.4369 182.137 78.2328 182.176 78.0253 182.2C77.6499 182.238 77.4277 182.222 77.4277 182.244Z" fill="#7DBCFF"/>
    <path d="M77.574 182.281C77.6552 182.164 77.6891 182.022 77.671 181.881C77.6631 181.725 77.6169 181.575 77.5357 181.442C77.4929 181.352 77.4275 181.275 77.3463 181.218C77.2651 181.161 77.1692 181.126 77.07 181.117C77.0103 181.125 76.9561 181.157 76.9201 181.204C76.884 181.252 76.8671 181.313 76.875 181.372C76.8828 181.467 76.911 181.559 76.9561 181.643C77.026 181.776 77.1117 181.899 77.211 182.01C77.2933 182.121 77.4015 182.21 77.5256 182.27C77.5256 182.27 77.4173 182.156 77.2707 181.961C77.1839 181.846 77.1095 181.723 77.0486 181.593C76.9787 181.468 76.9347 181.241 77.0869 181.225C77.238 181.209 77.3688 181.376 77.45 181.495C77.5278 181.612 77.5763 181.745 77.591 181.885C77.6011 182.018 77.5955 182.151 77.574 182.281Z" fill="#7DBCFF"/>
    <path opacity="0.6" d="M67.8008 181.026C67.8008 181.026 68.0658 181.026 68.4728 181.092C68.996 181.194 69.482 181.435 69.88 181.79C70.2747 182.156 70.5611 182.624 70.7077 183.143C70.8216 183.538 70.8159 183.803 70.8373 183.803C70.8486 183.742 70.8486 183.68 70.8373 183.62C70.8351 183.452 70.8125 183.285 70.7731 183.121C70.6468 182.578 70.3581 182.085 69.9443 181.708C69.5316 181.333 69.014 181.09 68.4615 181.015C68.2958 180.998 68.1289 180.998 67.9632 181.015C67.909 181.01 67.8549 181.014 67.8008 181.026Z" fill="white"/>
    <path opacity="0.6" d="M68.9933 177.312C68.8873 177.925 68.8197 178.546 68.7926 179.169C68.7238 179.789 68.6934 180.413 68.7001 181.037C68.8704 179.801 68.9674 178.558 68.9933 177.312Z" fill="white"/>
    <path opacity="0.6" d="M72.0469 183.045C72.9106 183.267 73.807 183.334 74.6944 183.245C74.6944 183.213 74.0991 183.207 73.3684 183.153C72.6366 183.1 72.0469 183.013 72.0469 183.045Z" fill="white"/>
    <path opacity="0.6" d="M70.2812 182.926C70.2812 182.926 70.3241 183.056 70.3737 183.191C70.4222 183.326 70.4549 183.456 70.482 183.456C70.509 183.456 70.5417 183.315 70.482 183.152C70.4211 182.99 70.3027 182.904 70.2812 182.926Z" fill="white"/>
    <path opacity="0.6" d="M69.6699 182.049C69.6699 182.049 69.697 182.168 69.7838 182.265C69.8706 182.363 69.9631 182.433 69.9845 182.412C70.0059 182.39 69.9574 182.298 69.8706 182.195C69.7838 182.093 69.6913 182.027 69.6699 182.049Z" fill="white"/>
    <path opacity="0.6" d="M68.7326 181.605C68.7326 181.637 68.8623 181.643 68.9919 181.697C69.1216 181.751 69.2084 181.832 69.2355 181.811C69.2625 181.79 69.1915 181.664 69.0291 181.594C68.8679 181.523 68.7269 181.572 68.7326 181.605Z" fill="white"/>
    <path opacity="0.6" d="M68.0684 181.378C68.0684 181.405 68.1011 181.459 68.1766 181.492C68.2522 181.525 68.3176 181.53 68.3333 181.492C68.3503 181.454 68.295 181.416 68.2195 181.384C68.1439 181.351 68.0785 181.351 68.0684 181.378Z" fill="white"/>
    <path d="M8.09363 167.496L11.6511 164.195L5.50698 157.504L0.255859 162.279L0.6133 162.718C2.20544 164.656 8.84234 172.462 10.3578 173.367C12.03 174.361 8.09363 167.496 8.09363 167.496Z" fill="#7DBCFF"/>
    <g opacity="0.5">
        <path opacity="0.5" d="M2.53364 164.655C3.01173 164.039 3.24176 163.267 3.17749 162.489C3.12449 161.724 2.78622 161.007 2.23032 160.481L0.357422 162.197L2.53364 164.655Z" fill="white"/>
    </g>
    <g opacity="0.4">
        <path opacity="0.4" d="M9.91722 170.961C9.91722 170.961 11.1733 173.479 10.6163 173.532C10.0582 173.586 3.03676 165.953 0.253906 162.294L0.416277 162.164L8.53707 171.156C8.53707 171.156 9.544 170.567 9.91722 170.961Z" fill="white"/>
    </g>
    <path opacity="0.6" d="M0.324219 162.039C0.324219 162.039 0.324219 162.088 0.41668 162.169L0.698574 162.516L1.78105 163.782C2.68536 164.864 3.94712 166.294 5.39154 167.864C6.83709 169.433 8.16312 170.83 9.13847 171.826L10.3078 172.995L10.628 173.309C10.6641 173.347 10.7035 173.382 10.7475 173.411C10.7475 173.411 10.7148 173.368 10.6449 173.292L10.336 172.967L9.19936 171.771C8.23529 170.764 6.90926 169.362 5.47498 167.791C4.03958 166.222 2.76767 164.775 1.84193 163.725L0.759463 162.485C0.651216 162.36 0.554244 162.247 0.461783 162.149L0.324219 162.039Z" fill="white"/>
    <path opacity="0.6" d="M8.4082 171.233C8.66191 171.107 8.92576 171.006 9.19863 170.93C9.4794 170.897 9.76242 170.897 10.0432 170.93C9.77595 170.794 9.46812 170.759 9.17721 170.832C8.88178 170.87 8.60891 171.012 8.4082 171.233Z" fill="white"/>
    <path opacity="0.6" d="M7.38867 167.534C7.50368 167.596 7.63223 167.628 7.7619 167.627C7.97276 167.627 8.1464 167.627 8.1464 167.627C8.1464 167.627 7.98403 167.551 7.77317 167.534C7.56232 167.519 7.39431 167.502 7.38867 167.534Z" fill="white"/>
    <path opacity="0.6" d="M7.70898 166.631C7.70898 166.631 7.80596 166.826 7.98524 167.021C8.1634 167.216 8.32126 167.357 8.34268 167.335C8.36411 167.314 8.24007 167.14 8.06643 166.945C7.89278 166.75 7.73041 166.592 7.70898 166.631Z" fill="white"/>
    <path opacity="0.6" d="M8.04492 166.089C8.07537 166.276 8.15993 166.449 8.28848 166.587C8.39109 166.744 8.53767 166.867 8.71019 166.939C8.71019 166.912 8.5591 166.75 8.37417 166.518C8.19151 166.284 8.07762 166.089 8.04492 166.089Z" fill="white"/>
    <path d="M8.39149 168.033C8.50086 168.196 8.63617 168.341 8.79178 168.46C8.95866 168.6 9.1402 168.722 9.33301 168.823C9.44126 168.891 9.55853 168.946 9.67918 168.986C9.7536 169.015 9.83704 169.015 9.91258 168.986C9.95092 168.962 9.98137 168.928 10.0017 168.887C10.022 168.848 10.0299 168.802 10.0265 168.758C9.9543 168.521 9.80321 168.316 9.59912 168.177C9.3939 168.038 9.14809 167.974 8.90115 167.994C8.75569 168.008 8.61362 168.05 8.48508 168.12C8.39261 168.168 8.35428 168.206 8.35991 168.212C8.53131 168.135 8.71397 168.088 8.90115 168.071C9.10299 168.065 9.30257 168.118 9.47509 168.222C9.57995 168.279 9.67241 168.355 9.74683 168.449C9.82125 168.541 9.8765 168.65 9.90807 168.763C9.90807 168.877 9.81561 168.926 9.70285 168.889C9.58897 168.852 9.48072 168.803 9.37811 168.742C9.19094 168.642 9.0094 168.53 8.83688 168.406C8.55837 168.184 8.40727 168.016 8.39149 168.033Z" fill="#7DBCFF"/>
    <path d="M8.47253 168.163C8.61235 168.132 8.73526 168.051 8.8187 167.935C8.91792 167.82 8.98896 167.682 9.02504 167.535C9.05323 167.442 9.05774 167.345 9.03858 167.25C9.01941 167.156 8.97769 167.068 8.9168 166.993C8.86718 166.958 8.80742 166.944 8.74653 166.954C8.68677 166.963 8.63378 166.994 8.59657 167.043C8.53793 167.116 8.49508 167.201 8.47253 167.292C8.42856 167.436 8.40375 167.585 8.39699 167.736C8.38007 167.874 8.39698 168.013 8.4466 168.142C8.45336 168.009 8.45336 167.875 8.4466 167.742C8.46464 167.6 8.49621 167.461 8.53793 167.325C8.57627 167.184 8.70594 166.994 8.81983 167.081C8.93371 167.168 8.92243 167.39 8.90101 167.536C8.87282 167.671 8.81532 167.798 8.733 167.909C8.65294 168 8.56612 168.086 8.47253 168.163Z" fill="#7DBCFF"/>
    <path opacity="0.6" d="M2.28516 160.496C2.28516 160.496 2.47459 160.675 2.71815 161.011C3.03274 161.445 3.21992 161.959 3.25938 162.493C3.28983 163.03 3.17369 163.566 2.92336 164.041C2.72829 164.41 2.5445 164.583 2.56028 164.583C2.57607 164.583 2.61441 164.544 2.69559 164.458C2.80722 164.332 2.90532 164.197 2.98764 164.052C3.27179 163.571 3.40371 163.016 3.3665 162.459C3.32816 161.902 3.12295 161.37 2.77565 160.933C2.67079 160.802 2.55465 160.681 2.42949 160.57C2.38438 160.541 2.3359 160.517 2.28516 160.496Z" fill="white"/>
    <path opacity="0.6" d="M5.70586 158.639C5.20634 159.011 4.72825 159.413 4.27609 159.841C3.80026 160.241 3.3481 160.67 2.92188 161.124C3.42026 160.751 3.89835 160.35 4.35164 159.922C4.8286 159.522 5.28076 159.094 5.70586 158.639Z" fill="white"/>
    <path opacity="0.6" d="M3.96289 164.898C4.42971 165.659 5.03183 166.329 5.73882 166.875C5.73882 166.875 5.33289 166.436 4.84014 165.895C4.34739 165.353 3.98995 164.883 3.96289 164.898Z" fill="white"/>
    <path opacity="0.6" d="M2.74978 163.583C2.71708 163.583 2.69002 163.708 2.63026 163.842C2.5705 163.977 2.50623 164.086 2.52765 164.107C2.54907 164.129 2.66296 164.042 2.73287 163.885C2.80391 163.729 2.78699 163.583 2.74978 163.583Z" fill="white"/>
    <path opacity="0.6" d="M2.92356 162.527C2.89086 162.527 2.86379 162.629 2.85928 162.765C2.85365 162.9 2.85928 163.008 2.89762 163.008C2.93596 163.008 2.96189 162.906 2.96753 162.77C2.97204 162.635 2.95626 162.527 2.92356 162.527Z" fill="white"/>
    <path opacity="0.6" d="M2.55469 161.559C2.55469 161.586 2.61896 161.678 2.67421 161.808C2.72833 161.938 2.74412 162.057 2.77682 162.057C2.80952 162.057 2.84673 161.922 2.77682 161.759C2.70578 161.596 2.57047 161.537 2.55469 161.559Z" fill="white"/>
    <path opacity="0.6" d="M2.2078 160.935C2.18073 160.935 2.18073 161.016 2.2078 161.092C2.23486 161.167 2.28334 161.217 2.31041 161.206C2.33747 161.195 2.33747 161.125 2.31041 161.049C2.28447 160.974 2.25741 160.925 2.2078 160.935Z" fill="white"/>
    <path d="M105.098 31.5087C104.297 31.2167 102.603 35.5206 102.429 34.3829C102.255 33.2463 105.136 29.3641 104.269 29.0935C103.187 28.7417 101.47 33.2779 101.297 33.6466C101.123 34.0153 100.576 33.7876 100.756 33.4572C101.005 32.9858 103.501 27.9569 102.418 27.5994C101.817 27.4044 101.557 28.5139 101.557 28.5139C101.557 28.5139 99.5761 33.3861 99.0721 33.2023C98.5681 33.0185 99.6133 30.1105 100.058 29.1577C100.502 28.2049 100.203 27.631 99.6302 27.7934C99.2401 27.9016 97.8543 30.7871 97.4653 31.7399C97.0752 32.6927 96.004 35.3233 95.4729 33.6026C94.9418 31.8808 93.8751 30.76 93.3778 30.6518C93.2538 30.6179 93.1219 30.6281 93.0057 30.6822C92.8896 30.7363 92.796 30.8299 92.7419 30.9461C92.6878 31.0622 92.6776 31.1941 92.7114 31.317C92.7453 31.4411 92.8231 31.5482 92.9279 31.6204C93.291 32.1187 93.5808 32.6645 93.7894 33.2441C93.9766 33.6951 94.0848 34.1754 94.1085 34.6626C94.175 35.6435 94.1468 36.6279 94.0217 37.6021L83.8758 55.3163L68.0457 49.1124L65.75 58.1702C65.75 58.1702 86.5222 67.6283 87.8381 66.9349C90.8047 65.3709 100.392 39.5416 100.392 39.5416C101.791 37.7972 103.092 35.9773 104.291 34.0897C105.612 31.741 105.396 31.617 105.098 31.5087Z" fill="#B78876"/>
    <path d="M65.7354 89.2131C65.7354 89.2131 79.6001 119.194 83.303 127.326C83.6875 128.174 83.86 129.103 83.807 130.034L80.7107 180.23L66.2823 179.315L68.4483 130.895L44.3521 99.9172C42.2999 97.2753 40.4157 94.2049 39.7019 90.936C39.4629 89.8536 39.7019 88.7711 39.7019 87.6875L65.7354 89.2131Z" fill="#066FDE"/>
    <path d="M64.3112 93.5443C64.3112 93.5443 53.0287 124.586 49.9267 132.968C49.602 133.846 49.0641 134.631 48.3628 135.252L10.7807 168.683L1.18164 157.856L36.8254 125.005L41.5466 86.0256C41.9164 82.6993 43.026 79.497 44.7951 76.6544C45.3724 75.7253 46.0535 74.8638 46.8259 74.088L64.3112 93.5443Z" fill="#066FDE"/>
    <path d="M68.4071 130.9C68.3755 130.871 68.3462 130.841 68.3203 130.807L68.0767 130.515L67.1724 129.379C66.3707 128.366 65.2397 126.942 63.854 125.183L58.9434 118.952L52.815 111.411C48.484 106.057 44.657 101.092 42.3455 97.1942C41.3938 95.6776 40.6135 94.0595 40.017 92.3704C39.867 91.9047 39.7532 91.4289 39.6765 90.9463L39.6381 90.573C39.6336 90.5302 39.6336 90.4862 39.6381 90.4434C39.6551 90.4828 39.6663 90.5245 39.6708 90.5685C39.6708 90.6711 39.7137 90.7907 39.7408 90.9417C39.84 91.4131 39.9674 91.8776 40.1253 92.3332C40.759 93.9952 41.5607 95.5874 42.518 97.087C44.8678 100.947 48.7005 105.879 53.0371 111.234C55.2032 113.914 57.287 116.453 59.1441 118.813C61.0012 121.173 62.6204 123.296 64.0163 125.082L67.2649 129.338L68.1365 130.503L68.3586 130.806C68.3947 130.867 68.4105 130.9 68.4071 130.9Z" fill="#7DBCFF"/>
    <path d="M74.6117 130.9C73.6026 131.023 72.5844 131.052 71.5695 130.987C70.5513 131.016 69.5331 130.953 68.5273 130.797C69.5388 130.674 70.5592 130.644 71.5752 130.706C72.5911 130.673 73.6082 130.738 74.6117 130.9Z" fill="#7DBCFF"/>
    <path d="M73.5294 133.411C71.8651 132.846 70.2651 132.104 68.7598 131.197C69.6066 131.436 70.4241 131.765 71.201 132.176C72.0185 132.507 72.7987 132.919 73.5294 133.411Z" fill="#7DBCFF"/>
    <path d="M80.7095 180.246C80.7095 180.321 77.5421 180.246 73.6711 180.018C69.8002 179.79 66.6328 179.585 66.6328 179.508C66.6328 179.433 69.7945 179.508 73.6711 179.736C77.5477 179.964 80.7095 180.165 80.7095 180.246Z" fill="#7DBCFF"/>
    <path d="M80.8447 178.092C80.8447 178.173 77.5691 177.995 73.5414 177.697C69.5137 177.4 66.2494 177.102 66.2539 177.025C66.2595 176.95 69.5295 177.124 73.5629 177.421C77.5962 177.719 80.8504 178 80.8447 178.092Z" fill="#7DBCFF"/>
    <path d="M10.7361 168.682C10.682 168.735 8.52722 166.412 5.99131 163.479C3.45539 160.546 1.39418 158.132 1.44831 158.079C1.50243 158.026 3.65272 160.345 6.19314 163.283C8.73244 166.219 10.7936 168.625 10.7361 168.682Z" fill="#7DBCFF"/>
    <path d="M12.3745 167.276C12.3159 167.333 10.16 164.861 7.56544 161.766C4.96976 158.671 2.90743 156.123 2.96606 156.075C3.0247 156.026 5.18062 158.491 7.77968 161.589C10.3765 164.687 12.4445 167.216 12.3745 167.276Z" fill="#7DBCFF"/>
    <path d="M39.4608 129.41C38.9657 128.783 38.5452 128.1 38.2103 127.375C37.7919 126.695 37.4559 125.969 37.209 125.21C37.704 125.837 38.1234 126.52 38.4595 127.245C38.8778 127.925 39.2138 128.652 39.4608 129.41Z" fill="#7DBCFF"/>
    <path d="M41.9945 128.377C41.1612 127.947 40.3741 127.431 39.6446 126.84C38.8643 126.328 38.1381 125.736 37.4785 125.076C38.3095 125.512 39.0966 126.026 39.8284 126.613C40.6098 127.123 41.3359 127.715 41.9945 128.377Z" fill="#7DBCFF"/>
    <path d="M77.6447 52.3459C73.2539 50.0885 70.1463 48.7456 67.7491 47.203C60.2936 42.4165 58.3293 43.4787 56.5748 43.261C55.1022 43.7109 52.9203 44.5713 52.0972 44.7224C51.1929 44.8904 48.2477 43.8564 46.2992 43.2498C41.763 43.4448 38.9801 45.3719 34.7901 48.458L27.9355 54.2244L36.7791 63.351L39.4988 61.4466C39.9859 65.3829 39.8664 66.9142 40.0401 71.6568L39.6499 90.724L67.8607 92.3207L66.3182 74.0551L65.636 59.6921L73.67 63.7141L77.6379 52.3448" fill="#7DBCFF"/>
    <path d="M46.0918 43.7868V40.8585C46.0918 40.8585 51.1264 41.3998 52.1503 44.8919L46.0918 43.7868Z" fill="#7DBCFF"/>
    <path d="M56.5747 43.2613L56.3853 40.8573C55.3423 40.9926 54.3703 41.4572 53.6092 42.1822C52.8481 42.9072 52.3373 43.8555 52.1523 44.8906L56.5747 43.2613Z" fill="#7DBCFF"/>
    <path d="M57.1758 54.0835C57.4983 54.0362 57.8242 54.017 58.15 54.0238C58.7939 54.0238 59.7365 53.9753 60.8573 53.9584H60.9769V54.0835C60.9769 55.166 60.9769 56.4763 60.9769 57.8733V57.9489L60.9115 57.9872L60.6409 58.1766L59.1897 59.1723L59.1141 59.2219L59.0386 59.1723C58.335 58.7179 57.6686 58.2905 57.0676 57.8947L57.0078 57.862V57.7966C57.0078 56.66 57.0518 55.7174 57.0721 55.0893C57.0642 54.7635 57.0845 54.4376 57.1318 54.1151C57.1318 54.1151 57.1645 54.5154 57.186 55.1649C57.2074 55.8144 57.2345 56.7187 57.2514 57.8068L57.1916 57.7042L59.184 58.9547H59.0544L60.5044 57.9534L60.775 57.7696L60.7153 57.8835C60.7153 56.5089 60.7153 55.2258 60.7153 54.0937L60.8348 54.2132C59.7523 54.2132 58.8322 54.1692 58.1816 54.1489C57.5333 54.1264 57.1916 54.0993 57.1758 54.0835Z" fill="#066FDE"/>
    <path d="M60.7857 55.0039C60.1802 55.1336 59.5577 55.1719 58.9398 55.1178C58.3208 55.1562 57.7006 55.0987 57.0996 54.9498C57.7051 54.8201 58.3287 54.7818 58.9455 54.8359C59.5634 54.7942 60.1847 54.8517 60.7857 55.0039Z" fill="#066FDE"/>
    <path d="M51.2521 43.1371C51.3164 43.1856 50.3591 44.2962 49.5518 45.9741L49.4762 46.1308L49.3409 46.0226L49.0049 45.7576C47.9901 45.0145 47.035 44.1948 46.1465 43.3051C47.212 43.9715 48.2257 44.7179 49.1785 45.5354L49.5134 45.8061L49.3026 45.8489C49.6532 45.134 50.0806 44.4586 50.5745 43.8351C50.7583 43.5644 50.9872 43.3288 51.2521 43.1371Z" fill="#066FDE"/>
    <path d="M56.5409 43.3693C56.0178 44.0898 55.4213 44.7539 54.7594 45.3504L54.694 45.4102L54.5745 45.5297L54.4775 45.3944C53.952 44.7133 53.501 43.9782 53.1289 43.2024C53.7265 43.8214 54.2565 44.5014 54.7098 45.232H54.4933L54.5587 45.1666C55.1518 44.4969 55.8159 43.8936 56.5409 43.3693Z" fill="#066FDE"/>
    <path d="M52.6009 60.3644C52.5254 60.3644 52.3732 56.9693 52.2604 52.7849C52.1465 48.6005 52.1251 45.2053 52.2007 45.2053C52.2762 45.2053 52.4329 48.6005 52.5412 52.7849C52.6494 56.9693 52.6821 60.3588 52.6009 60.3644Z" fill="#066FDE"/>
    <path d="M42.3734 44.7123C42.4557 44.6999 42.5403 44.6999 42.6226 44.7123C42.8605 44.7033 43.0973 44.7191 43.3319 44.7608C44.199 44.9085 45.0108 45.2817 45.6874 45.8433C46.718 46.6799 47.425 47.8492 47.6843 49.1516C47.9955 50.7302 47.8072 52.3674 47.1431 53.8344C46.4699 55.2845 45.4979 56.5767 44.2903 57.6242C43.3183 58.471 42.2652 59.2174 41.1444 59.8545C40.1916 60.3958 39.4011 60.8073 38.8543 61.0779C38.5757 61.2302 38.286 61.3598 37.9883 61.4681C38.2454 61.2854 38.5171 61.1219 38.8001 60.981C39.3414 60.6776 40.1104 60.2559 41.0418 59.6876C42.1344 59.0314 43.1638 58.2759 44.1166 57.4302C45.2848 56.4064 46.2286 55.1503 46.8882 53.7431C47.5242 52.3291 47.7136 50.7527 47.4295 49.2282C47.1938 47.9834 46.5432 46.8558 45.5836 46.0282C44.9398 45.4689 44.1685 45.0765 43.3364 44.886C42.7139 44.7236 42.3734 44.745 42.3734 44.7123Z" fill="#066FDE"/>
    <path d="M65.5073 60.574C65.3596 60.2481 65.2626 59.9008 65.2209 59.5457C65.0563 58.6988 64.9424 57.8441 64.8804 56.9849C64.8139 56.1257 64.7992 55.2631 64.8364 54.4028C64.8274 54.0374 64.8714 53.6732 64.9661 53.3203C65.0529 53.3203 65.0101 54.944 65.1612 56.9421C65.3123 58.939 65.5885 60.5582 65.5073 60.574Z" fill="#066FDE"/>
    <path d="M59.7129 61.423L5.88477 70.2959L11.4042 103.784L65.2324 94.9108L59.7129 61.423Z" fill="#FF725E"/>
    <path d="M59.7129 61.423L5.88477 70.2959L11.4042 103.784L65.2324 94.9108L59.7129 61.423Z" fill="#066FDE"/>
    <path d="M8.35786 71.7237L61.1993 63.0135L66.5562 95.5135L13.7147 104.224L8.35786 71.7237Z" fill="#EAEAEA" stroke="white"/>
    <path opacity="0.3" d="M7.77344 71.3155C7.83207 71.3279 7.88845 71.3482 7.94145 71.3753L8.40713 71.5816L10.2045 72.4047L16.7929 75.4683L38.4807 85.6729L39.774 86.2852L39.606 86.3179L55.1598 69.3569L59.8584 64.2783L61.1416 62.9094L61.4821 62.5576C61.5204 62.5159 61.5621 62.4776 61.6072 62.4437C61.5768 62.4911 61.5418 62.5362 61.5046 62.579L61.1855 62.9478L59.9396 64.3493L55.2996 69.4922L39.8124 86.5073L39.7424 86.5885L39.6455 86.54L38.3521 85.9289L16.6971 75.6431L10.1515 72.4983L8.37556 71.6323L7.91551 71.3989L7.77344 71.3155Z" fill="black"/>
    <path opacity="0.3" d="M30.1866 81.9101C30.252 81.9597 26.5209 87.1183 21.855 93.4361C17.1879 99.7539 13.3553 104.843 13.2899 104.805C13.2245 104.767 16.9602 99.5972 21.6272 93.2794C26.2942 86.9616 30.128 81.8672 30.1866 81.9101Z" fill="black"/>
    <path opacity="0.3" d="M67.1294 95.7692C67.0832 95.829 62.5052 92.0336 56.9045 87.291C51.3039 82.5484 46.8037 78.629 46.85 78.5906C46.8962 78.5523 51.4741 82.3263 57.0748 87.0689C62.6755 91.8126 67.1756 95.7095 67.1294 95.7692Z" fill="black"/>
    <path d="M39.9854 89.0181L11.9043 73.2648L39.7092 86.4145L61.0395 63.0591L39.9854 89.0181Z" fill="#066FDE"/>
    <path d="M28.0312 97.3351C27.4787 97.0825 26.9623 96.7544 26.4989 96.3597C26.1121 96.0586 25.7806 95.6922 25.519 95.2772C25.121 94.6616 24.7602 94.0234 24.4365 93.366C24.4365 93.366 24.7996 75.7927 25.4435 72.8904C26.0873 69.9891 36.2062 62.7557 36.2062 62.7557L29.39 55.7557C24.688 59.2084 20.5746 63.3984 17.2088 68.1636C13.9602 72.9219 17.4963 95.0427 17.4963 95.0596C17.1964 96.9506 17.0013 98.8573 16.9111 100.771C16.9111 103.478 17.1332 103.478 17.4523 103.407C18.2913 103.266 17.6587 98.6859 18.3668 99.6173C19.076 100.549 18.4863 105.307 19.3579 105.129C20.4945 104.891 19.7481 100.11 19.7154 99.7154C19.6827 99.3196 20.2566 99.244 20.2566 99.6184C20.2566 100.16 20.5656 105.752 21.6807 105.536C22.3032 105.411 21.9784 104.318 21.9784 104.318C21.9784 104.318 21.3177 99.0986 21.8476 99.0129C22.3787 98.9261 22.8816 101.974 22.9741 103.019C23.0654 104.064 23.5909 104.421 24.0137 103.999C24.3012 103.717 24.0949 100.518 23.9754 99.4955C23.8558 98.4728 23.4939 95.6516 24.8041 96.8919C26.1144 98.1311 27.587 98.5923 28.0527 98.4344C28.1248 98.4333 28.1959 98.4175 28.2624 98.3893C28.3289 98.36 28.3887 98.3183 28.4383 98.2664C28.4879 98.2146 28.5274 98.1525 28.5533 98.086C28.5804 98.0184 28.5928 97.9473 28.5917 97.8752C28.5905 97.803 28.5747 97.732 28.5454 97.6654C28.5161 97.5989 28.4755 97.5403 28.4225 97.4895C28.3706 97.4399 28.3086 97.4005 28.2421 97.3745C28.1756 97.3463 28.1034 97.3328 28.0312 97.3351Z" fill="#B78876"/>
    <path d="M84.5272 57.8407C84.8993 58.6199 85.3684 59.3381 85.904 59.9673C85.6932 59.8568 85.5003 59.6967 85.3414 59.4994C84.5205 58.6007 83.9962 57.3795 83.8687 56.0625C83.8259 55.793 83.8259 55.5202 83.88 55.2574C83.9939 56.1505 84.2104 57.0187 84.5272 57.8407Z" fill="#996F62"/>
    <path opacity="0.6" d="M7.62305 168.341C7.92524 168.358 8.22743 168.304 8.50481 168.184C8.50481 168.152 8.29395 168.184 8.05603 168.184C7.81812 168.184 7.62305 168.309 7.62305 168.341Z" fill="white"/>
</svg>