<svg xmlns="http://www.w3.org/2000/svg" viewBox="0 0 250 250" width="250" height="250" preserveAspectRatio="xMidYMid meet" style="width: 100%; height: 100%; transform: translate3d(0px, 0px, 0px);">
  <style>
    @keyframes flicker {
      0% { 
        transform: scale(1);
      }
      50% { 
        transform: scale(1.5);
      }
      100% { 
        transform: scale(1);
      }
    }

    @keyframes rotate {
      0% {
        transform: rotate(0deg)
      }

      100% {
        transform: rotate(360deg)
      }
    }

    .small-star {
      animation: flicker 2s infinite;
    }

    .medium-star {
      animation: flicker 3s infinite;
    }

    .large-star {
      animation: flicker 2.5s infinite;
    }

    .wheel {
      animation: rotate 5s infinite running linear;
      animation-delay: 0;
      animation-direction: forward;
    }
  </style>
  <defs>
    <clipPath id="__lottie_element_2">
      <rect width="250" height="250" x="0" y="0"></rect>
    </clipPath>
  </defs>

  <g clip-path="url(#__lottie_element_2)">

    <!-- Background circle -->
    <g transform="matrix(1,0,0,1,60.092994689941406,55.25499725341797)" opacity="1" style="display: block;">
      <g opacity="1" transform="matrix(1,0,0,1,66.2030029296875,66.2030029296875)">
        <path fill="rgb(222,228,248)" fill-opacity="1" d=" M0,-65.9530029296875 C36.42499923706055,-65.9530029296875 65.9530029296875,-36.42499923706055 65.9530029296875,0 C65.9530029296875,36.42499923706055 36.42499923706055,65.9530029296875 0,65.9530029296875 C-36.42499923706055,65.9530029296875 -65.9530029296875,36.42499923706055 -65.9530029296875,0 C-65.9530029296875,-36.42499923706055 -36.42499923706055,-65.9530029296875 0,-65.9530029296875z"></path>
      </g>
    </g>

    <!-- Wheel -->
    <g transform="matrix(0.3545820415019989,0.9350249171257019,-0.9350249171257019,0.3545820415019989,174.74879455566406,13.575386047363281)" opacity="1" style="display: block;">
      <g opacity="1" transform="matrix(1,0,0,1,83.84300231933594,83.83200073242188)">
        <path class="wheel" fill="rgb(155,171,217)" fill-opacity="1" d=" M83.50299835205078,-2.631999969482422 C83.0979995727539,-15.958000183105469 79.5719985961914,-28.493000030517578 73.63200378417969,-39.53799819946289 C72.7959976196289,-41.07400131225586 71.93900299072266,-42.5880012512207 71.01300048828125,-44.055999755859375 C64.21299743652344,-54.98699951171875 54.952999114990234,-64.24800109863281 43.99800109863281,-71.0469970703125 C42.529998779296875,-71.9729995727539 41.018001556396484,-72.83100128173828 39.48099899291992,-73.66699981689453 C28.437000274658203,-79.60700225830078 15.899999618530273,-83.13099670410156 2.5980000495910645,-83.53700256347656 C1.7380000352859497,-83.55999755859375 0.8579999804496765,-83.58300018310547 -0.020999999716877937,-83.58300018310547 C-0.902999997138977,-83.58300018310547 -1.7630000114440918,-83.55999755859375 -2.6440000534057617,-83.53700256347656 C-15.946999549865723,-83.13099670410156 -28.48200035095215,-79.60700225830078 -39.527000427246094,-73.66699981689453 C-41.0629997253418,-72.83100128173828 -42.57600021362305,-71.9729995727539 -44.04399871826172,-71.0469970703125 C-54.99800109863281,-64.24800109863281 -64.26000213623047,-54.98699951171875 -71.05899810791016,-44.055999755859375 C-71.98400115966797,-42.5880012512207 -72.84200286865234,-41.07400131225586 -73.6780014038086,-39.53799819946289 C-79.61799621582031,-28.493000030517578 -83.14199829101562,-15.958000183105469 -83.5479965209961,-2.631999969482422 C-83.57099914550781,-1.7730000019073486 -83.59300231933594,-0.8920000195503235 -83.59300231933594,-0.012000000104308128 C-83.59300231933594,0.8690000176429749 -83.57099914550781,1.7289999723434448 -83.5479965209961,2.6089999675750732 C-83.14199829101562,15.935999870300293 -79.61799621582031,28.47100067138672 -73.6780014038086,39.51599884033203 C-72.84200286865234,41.051998138427734 -71.98400115966797,42.564998626708984 -71.05899810791016,44.034000396728516 C-64.26000213623047,54.987998962402344 -54.99800109863281,64.2490005493164 -44.04399871826172,71.0469970703125 C-42.57600021362305,71.9729995727539 -41.0629997253418,72.83200073242188 -39.527000427246094,73.66699981689453 C-28.48200035095215,79.60800170898438 -15.946000099182129,83.13099670410156 -2.619999885559082,83.53800201416016 C-1.7619999647140503,83.55999755859375 -0.8820000290870667,83.58300018310547 -0.0010000000474974513,83.58300018310547 C0.8799999952316284,83.58300018310547 1.7380000352859497,83.55999755859375 2.61899995803833,83.53800201416016 C15.944999694824219,83.13099670410156 28.481000900268555,79.60800170898438 39.5260009765625,73.66699981689453 C41.0629997253418,72.83200073242188 42.57600021362305,71.9729995727539 44.04399871826172,71.0469970703125 C54.999000549316406,64.2490005493164 64.25900268554688,54.987998962402344 71.05899810791016,44.034000396728516 C71.98400115966797,42.564998626708984 72.84100341796875,41.051998138427734 73.6780014038086,39.51599884033203 C79.61699676513672,28.47100067138672 83.14299774169922,15.935999870300293 83.5479965209961,2.6089999675750732 C83.57099914550781,1.7510000467300415 83.59300231933594,0.8690000176429749 83.59300231933594,-0.012000000104308128 C83.5469970703125,-0.8920000195503235 83.5260009765625,-1.7510000467300415 83.50299835205078,-2.631999969482422z M78.14900207519531,-2.631999969482422 C78.14900207519531,-2.631999969482422 54.637001037597656,-2.631999969482422 54.637001037597656,-2.631999969482422 C54.25199890136719,-10.694999694824219 52.12900161743164,-18.30699920654297 48.62799835205078,-25.08300018310547 C48.62799835205078,-25.08300018310547 69.00299835205078,-36.849998474121094 69.00299835205078,-36.849998474121094 C74.49099731445312,-26.59600067138672 77.74299621582031,-14.96399974822998 78.14900207519531,-2.631999969482422z M49.4640007019043,-0.012000000104308128 C49.4640007019043,0.8690000176429749 49.441001892089844,1.7289999723434448 49.39699935913086,2.6089999675750732 C49.03499984741211,9.723999977111816 47.1609992980957,16.454999923706055 44.0890007019043,22.46299934387207 C43.29899978637695,24.02199935913086 42.41699981689453,25.534000396728516 41.46799850463867,26.979999542236328 C37.69599914550781,32.784000396728516 32.75,37.731998443603516 26.94499969482422,41.50400161743164 C25.5,42.45199966430664 23.986000061035156,43.33300018310547 22.429000854492188,44.124000549316406 C16.420000076293945,47.19599914550781 9.689000129699707,49.06999969482422 2.5739998817443848,49.43199920654297 C1.715999960899353,49.47700119018555 0.8349999785423279,49.5 -0.04600000008940697,49.5 C-0.9269999861717224,49.5 -1.784999966621399,49.47700119018555 -2.6649999618530273,49.43199920654297 C-9.781000137329102,49.06999969482422 -16.511999130249023,47.19599914550781 -22.518999099731445,44.124000549316406 C-24.077999114990234,43.33300018310547 -25.590999603271484,42.45199966430664 -27.035999298095703,41.50400161743164 C-32.840999603271484,37.731998443603516 -37.7869987487793,32.784000396728516 -41.558998107910156,26.979999542236328 C-42.507999420166016,25.534000396728516 -43.38999938964844,24.02199935913086 -44.18000030517578,22.46299934387207 C-47.25199890136719,16.454999923706055 -49.12699890136719,9.723999977111816 -49.487998962402344,2.6089999675750732 C-49.53300094604492,1.7510000467300415 -49.55500030517578,0.8690000176429749 -49.55500030517578,-0.012000000104308128 C-49.55500030517578,-0.8920000195503235 -49.53300094604492,-1.7510000467300415 -49.487998962402344,-2.631999969482422 C-49.12699890136719,-9.746000289916992 -47.25199890136719,-16.47599983215332 -44.18000030517578,-22.485000610351562 C-43.38999938964844,-24.042999267578125 -42.507999420166016,-25.55699920654297 -41.558998107910156,-27.003000259399414 C-37.7869987487793,-32.80699920654297 -32.840999603271484,-37.75400161743164 -27.035999298095703,-41.5260009765625 C-25.590999603271484,-42.474998474121094 -24.077999114990234,-43.35599899291992 -22.518999099731445,-44.145999908447266 C-16.511999130249023,-47.21799850463867 -9.781000137329102,-49.09199905395508 -2.6649999618530273,-49.45399856567383 C-1.8079999685287476,-49.499000549316406 -0.9269999861717224,-49.52199935913086 -0.04600000008940697,-49.52199935913086 C0.8349999785423279,-49.52199935913086 1.6929999589920044,-49.499000549316406 2.5739998817443848,-49.45399856567383 C9.689000129699707,-49.09199905395508 16.420000076293945,-47.21799850463867 22.429000854492188,-44.145999908447266 C23.986000061035156,-43.35599899291992 25.5,-42.474998474121094 26.94499969482422,-41.5260009765625 C32.75,-37.75400161743164 37.69599914550781,-32.80699920654297 41.46799850463867,-27.003000259399414 C42.41699981689453,-25.55699920654297 43.29899978637695,-24.042999267578125 44.0890007019043,-22.485000610351562 C47.1609992980957,-16.47599983215332 49.03499984741211,-9.746000289916992 49.39699935913086,-2.631999969482422 C49.441001892089844,-1.7730000019073486 49.4640007019043,-0.8920000195503235 49.4640007019043,-0.012000000104308128z M66.38200378417969,-41.36800003051758 C66.38200378417969,-41.36800003051758 46.007999420166016,-29.600000381469727 46.007999420166016,-29.600000381469727 C41.76300048828125,-36.17300033569336 36.15999984741211,-41.797000885009766 29.565000534057617,-46.042999267578125 C29.565000534057617,-46.042999267578125 41.33300018310547,-66.41699981689453 41.33300018310547,-66.41699981689453 C51.474998474121094,-60.09199905395508 60.05799865722656,-51.50899887084961 66.38200378417969,-41.36800003051758z M36.814998626708984,-69.03700256347656 C36.814998626708984,-69.03700256347656 25.04800033569336,-48.66299819946289 25.04800033569336,-48.66299819946289 C18.273000717163086,-52.16400146484375 10.65999984741211,-54.2869987487793 2.5980000495910645,-54.672000885009766 C2.5980000495910645,-54.672000885009766 2.5980000495910645,-78.18399810791016 2.5980000495910645,-78.18399810791016 C14.930000305175781,-77.77799987792969 26.562000274658203,-74.5250015258789 36.814998626708984,-69.03700256347656z M-2.6440000534057617,-78.18399810791016 C-2.6440000534057617,-78.18399810791016 -2.6440000534057617,-54.672000885009766 -2.6440000534057617,-54.672000885009766 C-10.706000328063965,-54.2869987487793 -18.31800079345703,-52.16400146484375 -25.0939998626709,-48.66299819946289 C-25.0939998626709,-48.66299819946289 -36.861000061035156,-69.03700256347656 -36.861000061035156,-69.03700256347656 C-26.60700035095215,-74.5250015258789 -14.97599983215332,-77.77799987792969 -2.6440000534057617,-78.18399810791016z M-41.37799835205078,-66.41699981689453 C-41.37799835205078,-66.41699981689453 -29.611000061035156,-46.042999267578125 -29.611000061035156,-46.042999267578125 C-36.183998107910156,-41.797000885009766 -41.808998107910156,-36.19499969482422 -46.05500030517578,-29.600000381469727 C-46.05500030517578,-29.600000381469727 -66.427001953125,-41.36800003051758 -66.427001953125,-41.36800003051758 C-60.10300064086914,-51.50899887084961 -51.52000045776367,-60.09199905395508 -41.37799835205078,-66.41699981689453z M-69.0479965209961,-36.849998474121094 C-69.0479965209961,-36.849998474121094 -48.67399978637695,-25.08300018310547 -48.67399978637695,-25.08300018310547 C-52.17499923706055,-18.30699920654297 -54.29800033569336,-10.694999694824219 -54.68199920654297,-2.631999969482422 C-54.68199920654297,-2.631999969482422 -78.19499969482422,-2.631999969482422 -78.19499969482422,-2.631999969482422 C-77.78900146484375,-14.96399974822998 -74.53700256347656,-26.59600067138672 -69.0479965209961,-36.849998474121094z M-78.19499969482422,2.5869998931884766 C-78.19499969482422,2.5869998931884766 -54.68199920654297,2.5869998931884766 -54.68199920654297,2.5869998931884766 C-54.29800033569336,10.649999618530273 -52.17499923706055,18.261999130249023 -48.67399978637695,25.038000106811523 C-48.67399978637695,25.038000106811523 -69.0479965209961,36.80500030517578 -69.0479965209961,36.80500030517578 C-74.53700256347656,26.549999237060547 -77.78900146484375,14.942000389099121 -78.19499969482422,2.5869998931884766z M-66.427001953125,41.34600067138672 C-66.427001953125,41.34600067138672 -46.05500030517578,29.57699966430664 -46.05500030517578,29.57699966430664 C-41.808998107910156,36.150001525878906 -36.20600128173828,41.775001525878906 -29.611000061035156,46.020999908447266 C-29.611000061035156,46.020999908447266 -41.37799835205078,66.39399719238281 -41.37799835205078,66.39399719238281 C-51.52000045776367,60.04800033569336 -60.10300064086914,51.46500015258789 -66.427001953125,41.34600067138672z M-36.861000061035156,68.99199676513672 C-36.861000061035156,68.99199676513672 -25.0939998626709,48.61800003051758 -25.0939998626709,48.61800003051758 C-18.31800079345703,52.11899948120117 -10.706000328063965,54.242000579833984 -2.6440000534057617,54.625999450683594 C-2.6440000534057617,54.625999450683594 -2.6440000534057617,78.13899993896484 -2.6440000534057617,78.13899993896484 C-14.97599983215332,77.75499725341797 -26.60700035095215,74.4800033569336 -36.861000061035156,68.99199676513672z M2.5980000495910645,78.16100311279297 C2.5980000495910645,78.16100311279297 2.5980000495910645,54.625999450683594 2.5980000495910645,54.625999450683594 C10.65999984741211,54.242000579833984 18.273000717163086,52.11899948120117 25.04800033569336,48.61800003051758 C25.04800033569336,48.61800003051758 36.814998626708984,68.99199676513672 36.814998626708984,68.99199676513672 C26.562000274658203,74.4800033569336 14.930000305175781,77.75499725341797 2.5980000495910645,78.16100311279297z M41.33300018310547,66.39399719238281 C41.33300018310547,66.39399719238281 29.565000534057617,46.020999908447266 29.565000534057617,46.020999908447266 C36.138999938964844,41.775001525878906 41.76300048828125,36.172000885009766 46.007999420166016,29.57699966430664 C46.007999420166016,29.57699966430664 66.38200378417969,41.34600067138672 66.38200378417969,41.34600067138672 C60.05799865722656,51.46500015258789 51.474998474121094,60.04800033569336 41.33300018310547,66.39399719238281z M69.00299835205078,36.80500030517578 C69.00299835205078,36.80500030517578 48.62799835205078,25.038000106811523 48.62799835205078,25.038000106811523 C52.12900161743164,18.261999130249023 54.25199890136719,10.649999618530273 54.637001037597656,2.5869998931884766 C54.637001037597656,2.5869998931884766 78.14900207519531,2.5869998931884766 78.14900207519531,2.5869998931884766 C77.74299621582031,14.942000389099121 74.49099731445312,26.549999237060547 69.00299835205078,36.80500030517578z"></path>
      </g>

      <!-- Center circle -->
      <g opacity="1" transform="matrix(1,0,0,1,84.0459976196289,83.59600067138672)">
        <path fill="rgb(187,200,236)" fill-opacity="1" d=" M0,-23.038000106811523 C12.723999977111816,-23.038000106811523 23.038999557495117,-12.722999572753906 23.038999557495117,0.0010000000474974513 C23.038999557495117,12.723999977111816 12.723999977111816,23.038999557495117 0,23.038999557495117 C-12.723999977111816,23.038999557495117 -23.038999557495117,12.723999977111816 -23.038999557495117,0.0010000000474974513 C-23.038999557495117,-12.722999572753906 -12.723999977111816,-23.038000106811523 0,-23.038000106811523z"></path>
      </g>
    </g>

    <!-- Small star -->
    <g transform="matrix(0.558538019657135,0,0,0.558538019657135,197.87843322753906,33.5731315612793)" opacity="1" style="display: block;">
      <g opacity="1" transform="matrix(1,0,0,1,8.199999809265137,8.189000129699707)">
        <path class="small-star" fill="rgb(155,172,214)" fill-opacity="1" d=" M0.20399999618530273,-7.939000129699707 C0.20399999618530273,-7.939000129699707 -0.24899999797344208,-7.939000129699707 -0.24899999797344208,-7.939000129699707 C-0.5199999809265137,-7.939000129699707 -0.7450000047683716,-7.735000133514404 -0.7450000047683716,-7.464000225067139 C-0.9700000286102295,-4.28000020980835 -4.315000057220459,-1.0269999504089355 -7.499000072479248,-0.734000027179718 C-7.747000217437744,-0.7110000252723694 -7.951000213623047,-0.48500001430511475 -7.951000213623047,-0.2370000034570694 C-7.951000213623047,-0.2370000034570694 -7.951000213623047,0.2370000034570694 -7.951000213623047,0.2370000034570694 C-7.951000213623047,0.5090000033378601 -7.745999813079834,0.7120000123977661 -7.474999904632568,0.734000027179718 C-4.314000129699707,0.9599999785423279 -1.0829999446868896,4.235000133514404 -0.7450000047683716,7.420000076293945 C-0.722000002861023,7.714000225067139 -0.4740000069141388,7.939000129699707 -0.15800000727176666,7.939000129699707 C-0.15800000727176666,7.939000129699707 0.15800000727176666,7.939000129699707 0.15800000727176666,7.939000129699707 C0.4740000069141388,7.939000129699707 0.7229999899864197,7.714000225067139 0.7450000047683716,7.396999835968018 C1.0149999856948853,3.8289999961853027 3.885999917984009,0.8930000066757202 7.453999996185303,0.7120000123977661 C7.748000144958496,0.6890000104904175 7.951000213623047,0.46299999952316284 7.951000213623047,0.17000000178813934 C7.951000213623047,0.17000000178813934 7.951000213623047,-0.2370000034570694 7.951000213623047,-0.2370000034570694 C7.951000213623047,-0.5299999713897705 7.724999904632568,-0.7559999823570251 7.453999996185303,-0.7789999842643738 C3.86299991607666,-0.9599999785423279 0.9710000157356262,-3.9179999828338623 0.7450000047683716,-7.5320000648498535 C0.699999988079071,-7.735000133514404 0.4749999940395355,-7.939000129699707 0.20399999618530273,-7.939000129699707z"></path>
      </g>
    </g>

    <!-- Medium star -->
    <g transform="matrix(0.9367935657501221,0,0,0.9367935657501221,202.870361328125,56.66428756713867)" opacity="1" style="display: block;">
      <g opacity="1" transform="matrix(1,0,0,1,11.555000305175781,11.555000305175781)">
        <path class="medium-star" fill="rgb(107,123,168)" fill-opacity="1" d=" M0.328000009059906,-11.305000305175781 C0.328000009059906,-11.305000305175781 -0.3269999921321869,-11.305000305175781 -0.3269999921321869,-11.305000305175781 C-0.7110000252723694,-11.305000305175781 -1.0269999504089355,-11.01200008392334 -1.0509999990463257,-10.628000259399414 C-1.3660000562667847,-6.0879998207092285 -6.109000205993652,-1.4789999723434448 -10.649999618530273,-1.0499999523162842 C-11.01200008392334,-1.0269999504089355 -11.305000305175781,-0.7110000252723694 -11.305000305175781,-0.3269999921321869 C-11.305000305175781,-0.3269999921321869 -11.305000305175781,0.3499999940395355 -11.305000305175781,0.3499999940395355 C-11.305000305175781,0.7350000143051147 -11.01200008392334,1.027999997138977 -10.626999855041504,1.0729999542236328 C-6.131999969482422,1.3890000581741333 -1.524999976158142,6.065000057220459 -1.0509999990463257,10.5600004196167 C-1.0049999952316284,10.98900032043457 -0.6439999938011169,11.305000305175781 -0.2370000034570694,11.305000305175781 C-0.2370000034570694,11.305000305175781 0.2150000035762787,11.305000305175781 0.2150000035762787,11.305000305175781 C0.6430000066757202,11.305000305175781 1.0049999952316284,10.965999603271484 1.0509999990463257,10.53600025177002 C1.434000015258789,5.453999996185303 5.5,1.2979999780654907 10.581999778747559,1.0490000247955322 C10.98799991607666,1.0269999504089355 11.305000305175781,0.6890000104904175 11.305000305175781,0.3050000071525574 C11.305000305175781,0.3050000071525574 11.305000305175781,-0.2590000033378601 11.305000305175781,-0.2590000033378601 C11.305000305175781,-0.6660000085830688 10.98799991607666,-1.0049999952316284 10.581999778747559,-1.0049999952316284 C5.4770002365112305,-1.253000020980835 1.3890000581741333,-5.453999996185303 1.0509999990463257,-10.581000328063965 C1.0269999504089355,-11.01099967956543 0.7120000123977661,-11.305000305175781 0.328000009059906,-11.305000305175781z"></path>
      </g>
    </g>

    <!-- Large star -->
    <g transform="matrix(0.81010901927948,0,0,0.81010901927948,45.29756164550781,192.4698486328125)" opacity="1" style="display: block;">
      <g opacity="1" transform="matrix(1,0,0,1,16.048999786376953,16.06100082397461)">
        <path class="large-star" fill="rgb(187,200,236)" fill-opacity="1" d=" M0.46399998664855957,-15.810999870300293 C0.46399998664855957,-15.810999870300293 -0.4410000145435333,-15.810999870300293 -0.4410000145435333,-15.810999870300293 C-0.9829999804496765,-15.810999870300293 -1.4110000133514404,-15.404000282287598 -1.4559999704360962,-14.862000465393066 C-1.9079999923706055,-8.515000343322754 -8.548999786376953,-2.0329999923706055 -14.895999908447266,-1.468000054359436 C-15.414999961853027,-1.4229999780654907 -15.798999786376953,-0.9940000176429749 -15.798999786376953,-0.4740000069141388 C-15.798999786376953,-0.4740000069141388 -15.798999786376953,0.4519999921321869 -15.798999786376953,0.4519999921321869 C-15.798999786376953,0.9710000157356262 -15.392000198364258,1.4229999780654907 -14.871999740600586,1.4459999799728394 C-8.571000099182129,1.8969999551773071 -2.134999990463257,8.425000190734863 -1.4789999723434448,14.75 C-1.4119999408721924,15.336999893188477 -0.9139999747276306,15.810999870300293 -0.3269999921321869,15.810999870300293 C-0.3269999921321869,15.810999870300293 0.3269999921321869,15.810999870300293 0.3269999921321869,15.810999870300293 C0.9369999766349792,15.810999870300293 1.434999942779541,15.336999893188477 1.4800000190734863,14.72700023651123 C2,7.611999988555908 7.7129998207092285,1.8070000410079956 14.805000305175781,1.4459999799728394 C15.369999885559082,1.4229999780654907 15.798999786376953,0.9490000009536743 15.798999786376953,0.3840000033378601 C15.798999786376953,0.3840000033378601 15.798999786376953,-0.4059999883174896 15.798999786376953,-0.4059999883174896 C15.798999786376953,-0.9710000157356262 15.347000122070312,-1.4450000524520874 14.805000305175781,-1.468000054359436 C7.645999908447266,-1.8289999961853027 1.9320000410079956,-7.702000141143799 1.4579999446868896,-14.883999824523926 C1.434999942779541,-15.404000282287598 0.984000027179718,-15.810999870300293 0.46399998664855957,-15.810999870300293z"></path>
      </g>
    </g>
  </g>
</svg>