<svg xmlns="http://www.w3.org/2000/svg" viewBox="0 0 250 250" width="250" height="250" preserveAspectRatio="xMidYMid meet" style="width: 100%; height: 100%; transform: translate3d(0px, 0px, 0px);">
  <style>
    @keyframes rotate {
      0% {
        transform: rotate(0deg)
      }

      100% {
        transform: rotate(180deg)
      }
    }

    .sun {
      transform-box: fill-box;
      transform-origin: 50% 50%;
      animation: rotate 3s ease-in-out;
      animation-delay: 0;
      animation-direction: forward;
    }
  </style>
  <defs>
    <clipPath id="__lottie_element_2">
      <rect width="250" height="250" x="0" y="0"></rect>
    </clipPath>
  </defs>
  <g class="sun" clip-path="url(#__lottie_element_2)">
    <g transform="matrix(0.01308959536254406,0.9999143481254578,-0.9999143481254578,0.01308959536254406,216.997314453125,33.26408767700195)" opacity="1" style="display: block;">
      <g opacity="1" transform="matrix(1,0,0,1,52.75199890136719,23.680999755859375)">
        <path fill="rgb(222,228,248)" fill-opacity="1" d=" M6.098999977111816,10.562000274658203 C8.043000221252441,9.439000129699707 8.708999633789062,6.953000068664551 7.586999893188477,5.007999897003174 C7.586999893188477,5.007999897003174 -0.5440000295639038,-9.074000358581543 -0.5440000295639038,-9.074000358581543 C-1.6660000085830688,-11.017999649047852 -4.1529998779296875,-11.684000015258789 -6.0980000495910645,-10.562000274658203 C-8.041999816894531,-9.439000129699707 -8.708000183105469,-6.953000068664551 -7.585000038146973,-5.007999897003174 C-7.585000038146973,-5.007999897003174 0.5460000038146973,9.074000358581543 0.5460000038146973,9.074000358581543 C1.6679999828338623,11.017999649047852 4.1539998054504395,11.684000015258789 6.098999977111816,10.562000274658203z"></path>
      </g>
      <g opacity="1" transform="matrix(1,0,0,1,135.281005859375,163.79100036621094)">
        <path fill="rgb(222,228,248)" fill-opacity="1" d=" M-6.0980000495910645,-10.562000274658203 C-8.041999816894531,-9.439000129699707 -8.708000183105469,-6.953999996185303 -7.585999965667725,-5.007999897003174 C-7.585999965667725,-5.007999897003174 0.5440000295639038,9.074000358581543 0.5440000295639038,9.074000358581543 C1.6670000553131104,11.017999649047852 4.1529998779296875,11.684000015258789 6.0980000495910645,10.562000274658203 C8.041999816894531,9.439000129699707 8.708000183105469,6.953000068664551 7.585999965667725,5.007999897003174 C7.585999965667725,5.007999897003174 -0.5450000166893005,-9.074000358581543 -0.5450000166893005,-9.074000358581543 C-1.6670000553131104,-11.017999649047852 -4.1529998779296875,-11.684000015258789 -6.0980000495910645,-10.562000274658203z"></path>
      </g>
      <g opacity="1" transform="matrix(1,0,0,1,164.072998046875,52.47200012207031)">
        <path fill="rgb(222,228,248)" fill-opacity="1" d=" M5.007999897003174,-7.585999965667725 C5.007999897003174,-7.585999965667725 -9.074999809265137,0.5440000295639038 -9.074999809265137,0.5440000295639038 C-11.019000053405762,1.6670000553131104 -11.6850004196167,4.1539998054504395 -10.562999725341797,6.0980000495910645 C-9.4399995803833,8.041999816894531 -6.954999923706055,8.708999633789062 -5.010000228881836,7.586999893188477 C-5.010000228881836,7.586999893188477 9.071999549865723,-0.5440000295639038 9.071999549865723,-0.5440000295639038 C11.017000198364258,-1.6670000553131104 11.684000015258789,-4.1529998779296875 10.560999870300293,-6.0980000495910645 C9.437999725341797,-8.043000221252441 6.951000213623047,-8.708999633789062 5.007999897003174,-7.585999965667725z"></path>
      </g>
      <g opacity="1" transform="matrix(1,0,0,1,23.961999893188477,134.99899291992188)">
        <path fill="rgb(222,228,248)" fill-opacity="1" d=" M10.562000274658203,-6.0980000495910645 C9.439000129699707,-8.041999816894531 6.952000141143799,-8.708999633789062 5.007999897003174,-7.585999965667725 C5.007999897003174,-7.585999965667725 -9.074000358581543,0.5450000166893005 -9.074000358581543,0.5450000166893005 C-11.017999649047852,1.6679999828338623 -11.6850004196167,4.1529998779296875 -10.562999725341797,6.0980000495910645 C-9.4399995803833,8.041999816894531 -6.953000068664551,8.708999633789062 -5.007999897003174,7.586999893188477 C-5.007999897003174,7.586999893188477 9.074000358581543,-0.5450000166893005 9.074000358581543,-0.5450000166893005 C11.017999649047852,-1.6670000553131104 11.6850004196167,-4.1539998054504395 10.562000274658203,-6.0980000495910645z"></path>
      </g>
      <g opacity="1" transform="matrix(1,0,0,1,23.27899932861328,53.50699996948242)">
        <path fill="rgb(192,204,238)" fill-opacity="1" d=" M4.984000205993652,7.7779998779296875 C6.24399995803833,8.505999565124512 7.797999858856201,8.503999710083008 9.057000160217285,7.77400016784668 C9.677000045776367,7.419000148773193 10.1899995803833,6.90500020980835 10.543999671936035,6.285999774932861 C11.666999816894531,4.341000080108643 11.00100040435791,1.8559999465942383 9.057000160217285,0.7329999804496765 C9.057000160217285,0.7329999804496765 -5.025000095367432,-7.395999908447266 -5.025000095367432,-7.395999908447266 C-6.97599983215332,-8.505999565124512 -9.458000183105469,-7.824999809265137 -10.567999839782715,-5.872000217437744 C-11.666999816894531,-3.938999891281128 -11.008999824523926,-1.4800000190734863 -9.09000015258789,-0.35499998927116394 C-9.09000015258789,-0.35499998927116394 4.984000205993652,7.7779998779296875 4.984000205993652,7.7779998779296875z"></path>
      </g>
      <g opacity="1" transform="matrix(1,0,0,1,164.7989959716797,133.5800018310547)">
        <path fill="rgb(192,204,238)" fill-opacity="1" d=" M-5.0289998054504395,-7.394000053405762 C-6.980999946594238,-8.503999710083008 -9.463000297546387,-7.821000099182129 -10.572999954223633,-5.869999885559082 C-11.670999526977539,-3.936000108718872 -11.012999534606934,-1.4780000448226929 -9.093999862670898,-0.3529999852180481 C-9.093999862670898,-0.3529999852180481 4.98799991607666,7.7769999504089355 4.98799991607666,7.7769999504089355 C6.248000144958496,8.503999710083008 7.800000190734863,8.501999855041504 9.059000015258789,7.7729997634887695 C9.678999900817871,7.418000221252441 10.194000244140625,6.9039998054504395 10.54800033569336,6.284999847412109 C11.670999526977539,4.339000225067139 11.003000259399414,1.8539999723434448 9.059000015258789,0.7319999933242798 C9.059000015258789,0.7319999933242798 -5.0289998054504395,-7.394000053405762 -5.0289998054504395,-7.394000053405762z"></path>
      </g>
      <g opacity="1" transform="matrix(1,0,0,1,134.09300231933594,22.711000442504883)">
        <path fill="rgb(192,204,238)" fill-opacity="1" d=" M-2.0739998817443848,10.824999809265137 C-1.4539999961853027,10.470999717712402 -0.9409999847412109,9.956999778747559 -0.5870000123977661,9.336999893188477 C-0.5870000123977661,9.336999893188477 7.544000148773193,-4.744999885559082 7.544000148773193,-4.744999885559082 C8.746999740600586,-6.640999794006348 8.184000015258789,-9.152999877929688 6.288000106811523,-10.354999542236328 C4.392000198364258,-11.557999610900879 1.88100004196167,-10.996000289916992 0.6779999732971191,-9.098999977111816 C0.6169999837875366,-9.003000259399414 0.5600000023841858,-8.904000282287598 0.5070000290870667,-8.803000450134277 C0.5070000290870667,-8.803000450134277 -7.624000072479248,5.2789998054504395 -7.624000072479248,5.2789998054504395 C-8.746999740600586,7.223999977111816 -8.079000473022461,9.710000038146973 -6.135000228881836,10.831999778747559 C-4.876999855041504,11.557999610900879 -3.328000068664551,11.557999610900879 -2.069999933242798,10.831999778747559 C-2.069999933242798,10.831999778747559 -2.0739998817443848,10.824999809265137 -2.0739998817443848,10.824999809265137z"></path>
      </g>
      <g opacity="1" transform="matrix(1,0,0,1,54.02000045776367,164.22999572753906)">
        <path fill="rgb(192,204,238)" fill-opacity="1" d=" M0.5040000081062317,-8.805999755859375 C0.5040000081062317,-8.805999755859375 -7.625999927520752,5.275000095367432 -7.625999927520752,5.275000095367432 C-8.748000144958496,7.218999862670898 -8.081999778747559,9.706000328063965 -6.138000011444092,10.829000473022461 C-4.880000114440918,11.553999900817871 -3.3299999237060547,11.553999900817871 -2.072999954223633,10.829000473022461 C-1.4539999961853027,10.472999572753906 -0.9390000104904175,9.961000442504883 -0.5849999785423279,9.34000015258789 C-0.5849999785423279,9.34000015258789 7.545000076293945,-4.742000102996826 7.545000076293945,-4.742000102996826 C8.748000144958496,-6.63700008392334 8.185999870300293,-9.149999618530273 6.289000034332275,-10.35200023651123 C4.39300012588501,-11.553999900817871 1.88100004196167,-10.993000030517578 0.6790000200271606,-9.095999717712402 C0.6179999709129333,-8.99899959564209 0.5609999895095825,-8.901000022888184 0.5080000162124634,-8.798999786376953 C0.5080000162124634,-8.798999786376953 0.5040000081062317,-8.805999755859375 0.5040000081062317,-8.805999755859375z"></path>
      </g>
      <g opacity="1" transform="matrix(1,0,0,1,12.866000175476074,94.39900207519531)">
        <path fill="rgb(173,188,232)" fill-opacity="1" d=" M-8.279000282287598,4.111000061035156 C-8.279000282287598,4.111000061035156 7.980000019073486,4.111000061035156 7.980000019073486,4.111000061035156 C8.692000389099121,4.11299991607666 9.392000198364258,3.9260001182556152 10.006999969482422,3.569999933242798 C11.951000213623047,2.447999954223633 12.616000175476074,-0.039000000804662704 11.494000434875488,-1.9839999675750732 C10.767999649047852,-3.242000102996826 9.425999641418457,-4.015999794006348 7.9730000495910645,-4.015999794006348 C7.9730000495910645,-4.015999794006348 -8.28600025177002,-4.017000198364258 -8.28600025177002,-4.017000198364258 C-10.529000282287598,-4.11299991607666 -12.425000190734863,-2.371000051498413 -12.520999908447266,-0.1289999932050705 C-12.616000175476074,2.114000082015991 -10.87600040435791,4.010000228881836 -8.633000373840332,4.105000019073486 C-8.519000053405762,4.111000061035156 -8.404000282287598,4.111999988555908 -8.289999961853027,4.10699987411499 C-8.289999961853027,4.10699987411499 -8.279000282287598,4.111000061035156 -8.279000282287598,4.111000061035156z"></path>
      </g>
      <g opacity="1" transform="matrix(1,0,0,1,175.47000122070312,92.9800033569336)">
        <path fill="rgb(173,188,232)" fill-opacity="1" d=" M7.97599983215332,-4.015999794006348 C7.97599983215332,-4.015999794006348 -8.28499984741211,-4.017000198364258 -8.28499984741211,-4.017000198364258 C-10.527999877929688,-4.111999988555908 -12.42300033569336,-2.371000051498413 -12.519000053405762,-0.1289999932050705 C-12.614999771118164,2.114000082015991 -10.87399959564209,4.011000156402588 -8.630000114440918,4.105999946594238 C-8.517000198364258,4.111000061035156 -8.402999877929688,4.111000061035156 -8.288999557495117,4.10699987411499 C-8.288999557495117,4.10699987411499 7.9710001945495605,4.10699987411499 7.9710001945495605,4.10699987411499 C8.685999870300293,4.109000205993652 9.38700008392334,3.921999931335449 10.003999710083008,3.562999963760376 C11.949000358581543,2.440999984741211 12.614999771118164,-0.04699999839067459 11.493000030517578,-1.9910000562667847 C10.765000343322754,-3.249000072479248 9.42300033569336,-4.02400016784668 7.9710001945495605,-4.02400016784668 C7.9710001945495605,-4.02400016784668 7.974999904632568,-4.015999794006348 7.974999904632568,-4.015999794006348 C7.974999904632568,-4.015999794006348 7.97599983215332,-4.015999794006348 7.97599983215332,-4.015999794006348z"></path>
      </g>
      <g opacity="1" transform="matrix(1,0,0,1,93.31500244140625,12.442000389099121)">
        <path fill="rgb(173,188,232)" fill-opacity="1" d=" M-0.004999999888241291,12.189000129699707 C0.7089999914169312,12.192000389099121 1.409999966621399,12.005000114440918 2.0269999504089355,11.645999908447266 C3.2890000343322754,10.920000076293945 4.066999912261963,9.576000213623047 4.066999912261963,8.121000289916992 C4.066999912261963,8.121000289916992 4.066999912261963,-8.140000343322754 4.066999912261963,-8.140000343322754 C4.052000045776367,-10.385000228881836 2.2200000286102295,-12.192999839782715 -0.02500000037252903,-12.178000450134277 C-2.249000072479248,-12.163000106811523 -4.048999786376953,-10.36400032043457 -4.064000129699707,-8.140000343322754 C-4.064000129699707,-8.140000343322754 -4.064000129699707,8.121000289916992 -4.064000129699707,8.121000289916992 C-4.066999912261963,10.364999771118164 -2.249000072479248,12.1850004196167 -0.004999999888241291,12.189000129699707z"></path>
      </g>
      <g opacity="1" transform="matrix(1,0,0,1,94.72699737548828,175.03599548339844)">
        <path fill="rgb(173,188,232)" fill-opacity="1" d=" M-0.003000000026077032,-12.196999549865723 C-2.247999906539917,-12.196999549865723 -4.067999839782715,-10.376999855041504 -4.067999839782715,-8.131999969482422 C-4.067999839782715,-8.131999969482422 -4.067999839782715,8.130000114440918 -4.067999839782715,8.130000114440918 C-4.067999839782715,10.375 -2.249000072479248,12.194999694824219 -0.003000000026077032,12.194999694824219 C0.7110000252723694,12.197999954223633 1.4119999408721924,12.008999824523926 2.0290000438690186,11.649999618530273 C3.2909998893737793,10.923999786376953 4.067999839782715,9.581000328063965 4.067999839782715,8.12600040435791 C4.067999839782715,8.12600040435791 4.067999839782715,-8.135000228881836 4.067999839782715,-8.135000228881836 C4.065999984741211,-10.380999565124512 2.24399995803833,-12.199000358581543 -0.0010000000474974513,-12.196999549865723 C-0.0010000000474974513,-12.196999549865723 -0.003000000026077032,-12.196999549865723 -0.003000000026077032,-12.196999549865723z"></path>
      </g>
    </g>
    <g transform="matrix(0.01308959536254406,0.9999143481254578,-0.9999143481254578,0.01308959536254406,183.4627685546875,67.97301483154297)" opacity="1" style="display: block;">
      <g opacity="1" transform="matrix(1,0,0,1,59.75,59.75)">
        <path fill="rgb(230,235,249)" fill-opacity="1" d=" M0,59.5 C32.861000061035156,59.5 59.5,32.861000061035156 59.5,0 C59.5,-32.861000061035156 32.861000061035156,-59.5 0,-59.5 C-32.861000061035156,-59.5 -59.5,-32.861000061035156 -59.5,0 C-59.5,32.861000061035156 -32.861000061035156,59.5 0,59.5z"></path>
      </g>
    </g>
  </g>
</svg>